<svg width="480" height="367" viewBox="0 0 480 367" fill="none" xmlns="http://www.w3.org/2000/svg">
<path d="M169.862 61.84C205.142 61.84 232.262 72.88 251.222 94.96C270.182 117.04 279.662 148.6 279.662 189.64C279.662 230.92 270.182 262.72 251.222 285.04C232.262 307.12 205.142 318.16 169.862 318.16C134.342 318.16 106.982 307.12 87.7819 285.04C68.8219 262.72 59.3419 231.04 59.3419 190C59.3419 148.72 68.8219 117.04 87.7819 94.96C106.982 72.88 134.342 61.84 169.862 61.84ZM169.862 103.6C152.102 103.6 138.902 110.44 130.262 124.12C121.862 137.8 117.662 159.76 117.662 190C117.662 219.76 121.862 241.6 130.262 255.52C138.902 269.44 152.102 276.4 169.862 276.4C187.382 276.4 200.342 269.44 208.742 255.52C217.142 241.6 221.342 219.76 221.342 190C221.342 159.76 217.142 137.8 208.742 124.12C200.342 110.44 187.382 103.6 169.862 103.6ZM293.73 64H401.37V316H344.49V85.6L369.33 110.44H293.73V64Z" fill="#FFD16C"/>
<mask id="path-2-outside-1_55_67" maskUnits="userSpaceOnUse" x="58" y="53" width="345" height="260" fill="black">
<rect fill="white" x="58" y="53" width="345" height="260"/>
<path d="M169.862 54.84C205.142 54.84 232.262 65.88 251.222 87.96C270.182 110.04 279.662 141.6 279.662 182.64C279.662 223.92 270.182 255.72 251.222 278.04C232.262 300.12 205.142 311.16 169.862 311.16C134.342 311.16 106.982 300.12 87.7819 278.04C68.8219 255.72 59.3419 224.04 59.3419 183C59.3419 141.72 68.8219 110.04 87.7819 87.96C106.982 65.88 134.342 54.84 169.862 54.84ZM169.862 96.6C152.102 96.6 138.902 103.44 130.262 117.12C121.862 130.8 117.662 152.76 117.662 183C117.662 212.76 121.862 234.6 130.262 248.52C138.902 262.44 152.102 269.4 169.862 269.4C187.382 269.4 200.342 262.44 208.742 248.52C217.142 234.6 221.342 212.76 221.342 183C221.342 152.76 217.142 130.8 208.742 117.12C200.342 103.44 187.382 96.6 169.862 96.6ZM293.73 57H401.37V309H344.49V78.6L369.33 103.44H293.73V57Z"/>
</mask>
<path d="M251.222 278.04L251.981 278.691L251.984 278.687L251.222 278.04ZM87.7819 278.04L87.0197 278.687L87.0273 278.696L87.7819 278.04ZM87.7819 87.96L87.0273 87.3038L87.0232 87.3085L87.7819 87.96ZM130.262 117.12L129.416 116.586L129.41 116.597L130.262 117.12ZM130.262 248.52L129.406 249.037L129.412 249.047L130.262 248.52ZM208.742 248.52L207.886 248.003L208.742 248.52ZM208.742 117.12L209.594 116.597L208.742 117.12ZM169.862 55.84C204.918 55.84 231.733 66.7994 250.463 88.6115L251.981 87.3085C232.791 64.9606 205.366 53.84 169.862 53.84V55.84ZM250.463 88.6115C269.214 110.448 278.662 141.742 278.662 182.64H280.662C280.662 141.458 271.15 109.632 251.981 87.3085L250.463 88.6115ZM278.662 182.64C278.662 223.779 269.214 255.315 250.46 277.393L251.984 278.687C271.15 256.125 280.662 224.061 280.662 182.64H278.662ZM250.463 277.389C231.733 299.201 204.918 310.16 169.862 310.16V312.16C205.366 312.16 232.791 301.039 251.981 278.691L250.463 277.389ZM169.862 310.16C134.564 310.16 107.506 299.199 88.5365 277.384L87.0273 278.696C106.457 301.041 134.12 312.16 169.862 312.16V310.16ZM88.544 277.393C69.7892 255.314 60.3419 223.897 60.3419 183H58.3419C58.3419 224.183 67.8545 256.126 87.0197 278.687L88.544 277.393ZM60.3419 183C60.3419 141.86 69.7904 110.447 88.5406 88.6115L87.0232 87.3085C67.8534 109.633 58.3419 141.58 58.3419 183H60.3419ZM88.5365 88.6162C107.506 66.8009 134.564 55.84 169.862 55.84V53.84C134.12 53.84 106.457 64.9591 87.0273 87.3038L88.5365 88.6162ZM169.862 95.6C151.799 95.6 138.26 102.584 129.416 116.586L131.107 117.654C139.544 104.296 152.405 97.6 169.862 97.6V95.6ZM129.41 116.597C120.86 130.52 116.662 152.713 116.662 183H118.662C118.662 152.807 122.864 131.08 131.114 117.643L129.41 116.597ZM116.662 183C116.662 212.813 120.862 234.878 129.406 249.037L131.118 248.003C122.862 234.322 118.662 212.707 118.662 183H116.662ZM129.412 249.047C138.252 263.29 151.791 270.4 169.862 270.4V268.4C152.413 268.4 139.551 261.59 131.112 247.993L129.412 249.047ZM169.862 270.4C187.699 270.4 201.001 263.284 209.598 249.037L207.886 248.003C199.683 261.596 187.064 268.4 169.862 268.4V270.4ZM209.598 249.037C218.142 234.878 222.342 212.813 222.342 183H220.342C220.342 212.707 216.142 234.322 207.886 248.003L209.598 249.037ZM222.342 183C222.342 152.713 218.144 130.52 209.594 116.597L207.89 117.643C216.14 131.08 220.342 152.807 220.342 183H222.342ZM209.594 116.597C200.993 102.589 187.691 95.6 169.862 95.6V97.6C187.072 97.6 199.691 104.291 207.89 117.643L209.594 116.597ZM293.73 57V56H292.73V57H293.73ZM401.37 57H402.37V56H401.37V57ZM401.37 309V310H402.37V309H401.37ZM344.49 309H343.49V310H344.49V309ZM344.49 78.6L345.197 77.8929L343.49 76.1858V78.6H344.49ZM369.33 103.44V104.44H371.744L370.037 102.733L369.33 103.44ZM293.73 103.44H292.73V104.44H293.73V103.44ZM293.73 58H401.37V56H293.73V58ZM400.37 57V309H402.37V57H400.37ZM401.37 308H344.49V310H401.37V308ZM345.49 309V78.6H343.49V309H345.49ZM343.783 79.3071L368.623 104.147L370.037 102.733L345.197 77.8929L343.783 79.3071ZM369.33 102.44H293.73V104.44H369.33V102.44ZM294.73 103.44V57H292.73V103.44H294.73Z" fill="#313567" mask="url(#path-2-outside-1_55_67)"/>
</svg>
