<svg width="480" height="367" viewBox="0 0 480 367" fill="none" xmlns="http://www.w3.org/2000/svg">
<path d="M133.124 61.84C168.404 61.84 195.524 72.88 214.484 94.96C233.444 117.04 242.924 148.6 242.924 189.64C242.924 230.92 233.444 262.72 214.484 285.04C195.524 307.12 168.404 318.16 133.124 318.16C97.6036 318.16 70.2436 307.12 51.0436 285.04C32.0836 262.72 22.6036 231.04 22.6036 190C22.6036 148.72 32.0836 117.04 51.0436 94.96C70.2436 72.88 97.6036 61.84 133.124 61.84ZM133.124 103.6C115.364 103.6 102.164 110.44 93.5236 124.12C85.1236 137.8 80.9236 159.76 80.9236 190C80.9236 219.76 85.1236 241.6 93.5236 255.52C102.164 269.44 115.364 276.4 133.124 276.4C150.644 276.4 163.604 269.44 172.004 255.52C180.404 241.6 184.604 219.76 184.604 190C184.604 159.76 180.404 137.8 172.004 124.12C163.604 110.44 150.644 103.6 133.124 103.6ZM366.432 181.36C374.592 173.2 381.192 164.92 386.232 156.52C391.272 148.12 393.792 140.68 393.792 134.2C393.792 125.8 390.672 119.32 384.432 114.76C378.432 110.2 370.032 107.92 359.232 107.92C348.432 107.92 336.792 110.8 324.312 116.56C312.072 122.08 300.312 129.64 289.032 139.24L266.712 98.2C282.312 86.92 298.512 78.04 315.312 71.56C332.352 64.84 349.752 61.48 367.512 61.48C384.312 61.48 399.072 64.12 411.792 69.4C424.752 74.68 434.832 82.24 442.032 92.08C449.472 101.68 453.192 113.08 453.192 126.28C453.192 139.48 448.632 153.16 439.512 167.32C430.632 181.24 419.112 195.4 404.952 209.8L328.992 287.56L321.792 270.28H462.552V316H273.192V278.2L366.432 181.36Z" fill="#C2ADFF"/>
<mask id="path-2-outside-1_55_79" maskUnits="userSpaceOnUse" x="21" y="53" width="443" height="260" fill="black">
<rect fill="white" x="21" y="53" width="443" height="260"/>
<path d="M133.124 54.84C168.404 54.84 195.524 65.88 214.484 87.96C233.444 110.04 242.924 141.6 242.924 182.64C242.924 223.92 233.444 255.72 214.484 278.04C195.524 300.12 168.404 311.16 133.124 311.16C97.6036 311.16 70.2436 300.12 51.0436 278.04C32.0836 255.72 22.6036 224.04 22.6036 183C22.6036 141.72 32.0836 110.04 51.0436 87.96C70.2436 65.88 97.6036 54.84 133.124 54.84ZM133.124 96.6C115.364 96.6 102.164 103.44 93.5236 117.12C85.1236 130.8 80.9236 152.76 80.9236 183C80.9236 212.76 85.1236 234.6 93.5236 248.52C102.164 262.44 115.364 269.4 133.124 269.4C150.644 269.4 163.604 262.44 172.004 248.52C180.404 234.6 184.604 212.76 184.604 183C184.604 152.76 180.404 130.8 172.004 117.12C163.604 103.44 150.644 96.6 133.124 96.6ZM366.432 174.36C374.592 166.2 381.192 157.92 386.232 149.52C391.272 141.12 393.792 133.68 393.792 127.2C393.792 118.8 390.672 112.32 384.432 107.76C378.432 103.2 370.032 100.92 359.232 100.92C348.432 100.92 336.792 103.8 324.312 109.56C312.072 115.08 300.312 122.64 289.032 132.24L266.712 91.2C282.312 79.92 298.512 71.04 315.312 64.56C332.352 57.84 349.752 54.48 367.512 54.48C384.312 54.48 399.072 57.12 411.792 62.4C424.752 67.68 434.832 75.24 442.032 85.08C449.472 94.68 453.192 106.08 453.192 119.28C453.192 132.48 448.632 146.16 439.512 160.32C430.632 174.24 419.112 188.4 404.952 202.8L328.992 280.56L321.792 263.28H462.552V309H273.192V271.2L366.432 174.36Z"/>
</mask>
<path d="M214.484 278.04L215.242 278.691L215.246 278.687L214.484 278.04ZM51.0436 278.04L50.2814 278.687L50.289 278.696L51.0436 278.04ZM51.0436 87.96L50.289 87.3038L50.2849 87.3085L51.0436 87.96ZM93.5236 117.12L92.678 116.586L92.6714 116.597L93.5236 117.12ZM93.5236 248.52L92.6673 249.037L92.674 249.047L93.5236 248.52ZM172.004 248.52L171.147 248.003L172.004 248.52ZM172.004 117.12L172.856 116.597L172.004 117.12ZM133.124 55.84C168.18 55.84 194.995 66.7994 213.725 88.6115L215.242 87.3085C196.052 64.9606 168.628 53.84 133.124 53.84V55.84ZM213.725 88.6115C232.476 110.448 241.924 141.742 241.924 182.64H243.924C243.924 141.458 234.411 109.632 215.242 87.3085L213.725 88.6115ZM241.924 182.64C241.924 223.779 232.475 255.315 213.721 277.393L215.246 278.687C234.412 256.125 243.924 224.061 243.924 182.64H241.924ZM213.725 277.389C194.995 299.201 168.18 310.16 133.124 310.16V312.16C168.628 312.16 196.052 301.039 215.242 278.691L213.725 277.389ZM133.124 310.16C97.8255 310.16 70.768 299.199 51.7982 277.384L50.289 278.696C69.7192 301.041 97.3817 312.16 133.124 312.16V310.16ZM51.8057 277.393C33.0509 255.314 23.6036 223.897 23.6036 183H21.6036C21.6036 224.183 31.1162 256.126 50.2815 278.687L51.8057 277.393ZM23.6036 183C23.6036 141.86 33.0521 110.447 51.8023 88.6115L50.2849 87.3085C31.1151 109.633 21.6036 141.58 21.6036 183H23.6036ZM51.7982 88.6162C70.768 66.8009 97.8255 55.84 133.124 55.84V53.84C97.3817 53.84 69.7192 64.9591 50.289 87.3038L51.7982 88.6162ZM133.124 95.6C115.06 95.6 101.522 102.584 92.6781 116.586L94.3691 117.654C102.805 104.296 115.667 97.6 133.124 97.6V95.6ZM92.6714 116.597C84.1218 130.52 79.9236 152.713 79.9236 183H81.9236C81.9236 152.807 86.1254 131.08 94.3758 117.643L92.6714 116.597ZM79.9236 183C79.9236 212.813 84.1236 234.878 92.6674 249.037L94.3798 248.003C86.1236 234.322 81.9236 212.707 81.9236 183H79.9236ZM92.674 249.047C101.514 263.29 115.053 270.4 133.124 270.4V268.4C115.675 268.4 102.813 261.59 94.3732 247.993L92.674 249.047ZM133.124 270.4C150.961 270.4 164.262 263.284 172.86 249.037L171.147 248.003C162.945 261.596 150.326 268.4 133.124 268.4V270.4ZM172.86 249.037C181.404 234.878 185.604 212.813 185.604 183H183.604C183.604 212.707 179.404 234.322 171.147 248.003L172.86 249.037ZM185.604 183C185.604 152.713 181.405 130.52 172.856 116.597L171.151 117.643C179.402 131.08 183.604 152.807 183.604 183H185.604ZM172.856 116.597C164.255 102.589 150.953 95.6 133.124 95.6V97.6C150.334 97.6 162.952 104.291 171.151 117.643L172.856 116.597ZM366.432 174.36L365.725 173.653L365.718 173.66L365.711 173.666L366.432 174.36ZM384.432 107.76L383.827 108.556L383.834 108.562L383.842 108.567L384.432 107.76ZM324.312 109.56L324.723 110.472L324.731 110.468L324.312 109.56ZM289.032 132.24L288.153 132.718L288.742 133.8L289.68 133.002L289.032 132.24ZM266.712 91.2L266.126 90.3896L265.413 90.905L265.833 91.6778L266.712 91.2ZM315.312 64.56L315.672 65.493L315.679 65.4903L315.312 64.56ZM411.792 62.4L411.408 63.3236L411.414 63.3261L411.792 62.4ZM442.032 85.08L441.225 85.6705L441.233 85.6816L441.241 85.6926L442.032 85.08ZM439.512 160.32L438.671 159.779L438.669 159.782L439.512 160.32ZM404.952 202.8L404.239 202.099L404.236 202.101L404.952 202.8ZM328.992 280.56L328.069 280.945L328.65 282.341L329.707 281.259L328.992 280.56ZM321.792 263.28V262.28H320.292L320.869 263.665L321.792 263.28ZM462.552 263.28H463.552V262.28H462.552V263.28ZM462.552 309V310H463.552V309H462.552ZM273.192 309H272.192V310H273.192V309ZM273.192 271.2L272.471 270.506L272.192 270.797V271.2H273.192ZM367.139 175.067C375.347 166.859 382 158.516 387.089 150.034L385.374 149.005C380.383 157.324 373.837 165.541 365.725 173.653L367.139 175.067ZM387.089 150.034C392.178 141.553 394.792 133.931 394.792 127.2H392.792C392.792 133.429 390.365 140.687 385.374 149.005L387.089 150.034ZM394.792 127.2C394.792 118.513 391.544 111.719 385.022 106.953L383.842 108.567C389.799 112.921 392.792 119.087 392.792 127.2H394.792ZM385.037 106.964C378.802 102.225 370.159 99.92 359.232 99.92V101.92C369.905 101.92 378.062 104.175 383.827 108.556L385.037 106.964ZM359.232 99.92C348.253 99.92 336.469 102.847 323.893 108.652L324.731 110.468C337.114 104.753 348.61 101.92 359.232 101.92V99.92ZM323.901 108.648C311.567 114.211 299.728 121.824 288.384 131.478L289.68 133.002C300.896 123.456 312.577 115.949 324.723 110.472L323.901 108.648ZM289.91 131.762L267.59 90.7222L265.833 91.6778L288.153 132.718L289.91 131.762ZM267.298 92.0103C282.833 80.7773 298.957 71.94 315.672 65.493L314.952 63.627C298.066 70.14 281.791 79.0627 266.126 90.3896L267.298 92.0103ZM315.679 65.4903C332.605 58.8149 349.881 55.48 367.512 55.48V53.48C349.622 53.48 332.098 56.8651 314.945 63.6297L315.679 65.4903ZM367.512 55.48C384.208 55.48 398.833 58.1038 411.408 63.3236L412.175 61.4764C399.31 56.1362 384.415 53.48 367.512 53.48V55.48ZM411.414 63.3261C424.229 68.5467 434.15 76.001 441.225 85.6705L442.839 84.4895C435.514 74.4789 425.275 66.8132 412.169 61.4739L411.414 63.3261ZM441.241 85.6926C448.533 95.1017 452.192 106.281 452.192 119.28H454.192C454.192 105.879 450.41 94.2582 442.822 84.4674L441.241 85.6926ZM452.192 119.28C452.192 132.241 447.715 145.736 438.671 159.779L440.352 160.861C449.548 146.584 454.192 132.719 454.192 119.28H452.192ZM438.669 159.782C429.833 173.632 418.36 187.738 404.239 202.099L405.665 203.501C419.863 189.062 431.43 174.848 440.355 160.858L438.669 159.782ZM404.236 202.101L328.276 279.861L329.707 281.259L405.667 203.499L404.236 202.101ZM329.915 280.175L322.715 262.895L320.869 263.665L328.069 280.945L329.915 280.175ZM321.792 264.28H462.552V262.28H321.792V264.28ZM461.552 263.28V309H463.552V263.28H461.552ZM462.552 308H273.192V310H462.552V308ZM274.192 309V271.2H272.192V309H274.192ZM273.912 271.894L367.152 175.054L365.711 173.666L272.471 270.506L273.912 271.894Z" fill="#313567" mask="url(#path-2-outside-1_55_79)"/>
</svg>
