<svg width="480" height="367" viewBox="0 0 480 367" fill="none" xmlns="http://www.w3.org/2000/svg">
<path d="M132.948 61.84C168.228 61.84 195.348 72.88 214.308 94.96C233.268 117.04 242.748 148.6 242.748 189.64C242.748 230.92 233.268 262.72 214.308 285.04C195.348 307.12 168.228 318.16 132.948 318.16C97.4278 318.16 70.0678 307.12 50.8678 285.04C31.9078 262.72 22.4278 231.04 22.4278 190C22.4278 148.72 31.9078 117.04 50.8678 94.96C70.0678 72.88 97.4278 61.84 132.948 61.84ZM132.948 103.6C115.188 103.6 101.988 110.44 93.3478 124.12C84.9478 137.8 80.7478 159.76 80.7478 190C80.7478 219.76 84.9478 241.6 93.3478 255.52C101.988 269.44 115.188 276.4 132.948 276.4C150.468 276.4 163.428 269.44 171.828 255.52C180.228 241.6 184.428 219.76 184.428 190C184.428 159.76 180.228 137.8 171.828 124.12C163.428 110.44 150.468 103.6 132.948 103.6ZM388.216 168.4C409.816 170.8 427.216 178 440.416 190C453.856 201.76 460.576 217.48 460.576 237.16C460.576 253 456.376 267.16 447.976 279.64C439.816 291.88 428.176 301.48 413.056 308.44C397.936 315.16 380.056 318.52 359.416 318.52C341.416 318.52 323.776 315.88 306.496 310.6C289.456 305.08 274.936 297.88 262.936 289L284.896 248.32C295.216 256.96 306.376 263.56 318.376 268.12C330.376 272.68 342.616 274.96 355.096 274.96C365.656 274.96 374.656 273.52 382.096 270.64C389.536 267.52 395.176 263.2 399.016 257.68C402.856 251.92 404.776 245.32 404.776 237.88C404.776 226.12 400.336 217.24 391.456 211.24C382.816 205.24 370.576 202.24 354.736 202.24H314.056V170.56L396.496 90.28L404.056 108.28H275.896L275.536 63.64H447.976V96.76L356.536 183.52L350.056 163L388.216 168.4Z" fill="#FFD16C"/>
<mask id="path-2-outside-1_55_88" maskUnits="userSpaceOnUse" x="21" y="53" width="441" height="260" fill="black">
<rect fill="white" x="21" y="53" width="441" height="260"/>
<path d="M132.948 54.84C168.228 54.84 195.348 65.88 214.308 87.96C233.268 110.04 242.748 141.6 242.748 182.64C242.748 223.92 233.268 255.72 214.308 278.04C195.348 300.12 168.228 311.16 132.948 311.16C97.4278 311.16 70.0678 300.12 50.8678 278.04C31.9078 255.72 22.4278 224.04 22.4278 183C22.4278 141.72 31.9078 110.04 50.8678 87.96C70.0678 65.88 97.4278 54.84 132.948 54.84ZM132.948 96.6C115.188 96.6 101.988 103.44 93.3478 117.12C84.9478 130.8 80.7478 152.76 80.7478 183C80.7478 212.76 84.9478 234.6 93.3478 248.52C101.988 262.44 115.188 269.4 132.948 269.4C150.468 269.4 163.428 262.44 171.828 248.52C180.228 234.6 184.428 212.76 184.428 183C184.428 152.76 180.228 130.8 171.828 117.12C163.428 103.44 150.468 96.6 132.948 96.6ZM388.216 161.4C409.816 163.8 427.216 171 440.416 183C453.856 194.76 460.576 210.48 460.576 230.16C460.576 246 456.376 260.16 447.976 272.64C439.816 284.88 428.176 294.48 413.056 301.44C397.936 308.16 380.056 311.52 359.416 311.52C341.416 311.52 323.776 308.88 306.496 303.6C289.456 298.08 274.936 290.88 262.936 282L284.896 241.32C295.216 249.96 306.376 256.56 318.376 261.12C330.376 265.68 342.616 267.96 355.096 267.96C365.656 267.96 374.656 266.52 382.096 263.64C389.536 260.52 395.176 256.2 399.016 250.68C402.856 244.92 404.776 238.32 404.776 230.88C404.776 219.12 400.336 210.24 391.456 204.24C382.816 198.24 370.576 195.24 354.736 195.24H314.056V163.56L396.496 83.28L404.056 101.28H275.896L275.536 56.64H447.976V89.76L356.536 176.52L350.056 156L388.216 161.4Z"/>
</mask>
<path d="M214.308 278.04L215.067 278.691L215.07 278.687L214.308 278.04ZM50.8678 278.04L50.1056 278.687L50.1132 278.696L50.8678 278.04ZM50.8678 87.96L50.1132 87.3038L50.1091 87.3085L50.8678 87.96ZM93.3478 117.12L92.5023 116.586L92.4957 116.597L93.3478 117.12ZM93.3478 248.52L92.4916 249.037L92.4982 249.047L93.3478 248.52ZM171.828 248.52L170.972 248.003L171.828 248.52ZM171.828 117.12L172.68 116.597L171.828 117.12ZM132.948 55.84C168.004 55.84 194.819 66.7994 213.549 88.6115L215.066 87.3085C195.876 64.9606 168.452 53.84 132.948 53.84V55.84ZM213.549 88.6115C232.3 110.448 241.748 141.742 241.748 182.64H243.748C243.748 141.458 234.236 109.632 215.066 87.3085L213.549 88.6115ZM241.748 182.64C241.748 223.779 232.3 255.315 213.546 277.393L215.07 278.687C234.236 256.125 243.748 224.061 243.748 182.64H241.748ZM213.549 277.389C194.819 299.201 168.004 310.16 132.948 310.16V312.16C168.452 312.16 195.876 301.039 215.066 278.691L213.549 277.389ZM132.948 310.16C97.6497 310.16 70.5923 299.199 51.6224 277.384L50.1132 278.696C69.5434 301.041 97.2059 312.16 132.948 312.16V310.16ZM51.63 277.393C32.8752 255.314 23.4278 223.897 23.4278 183H21.4278C21.4278 224.183 30.9405 256.126 50.1057 278.687L51.63 277.393ZM23.4278 183C23.4278 141.86 32.8763 110.447 51.6265 88.6115L50.1091 87.3085C30.9393 109.633 21.4278 141.58 21.4278 183H23.4278ZM51.6224 88.6162C70.5923 66.8009 97.6497 55.84 132.948 55.84V53.84C97.2059 53.84 69.5434 64.9591 50.1132 87.3038L51.6224 88.6162ZM132.948 95.6C114.885 95.6 101.346 102.584 92.5023 116.586L94.1933 117.654C102.63 104.296 115.491 97.6 132.948 97.6V95.6ZM92.4957 116.597C83.946 130.52 79.7478 152.713 79.7478 183H81.7478C81.7478 152.807 85.9496 131.08 94.2 117.643L92.4957 116.597ZM79.7478 183C79.7478 212.813 83.9479 234.878 92.4916 249.037L94.204 248.003C85.9478 234.322 81.7478 212.707 81.7478 183H79.7478ZM92.4982 249.047C101.338 263.29 114.877 270.4 132.948 270.4V268.4C115.499 268.4 102.637 261.59 94.1975 247.993L92.4982 249.047ZM132.948 270.4C150.785 270.4 164.087 263.284 172.684 249.037L170.972 248.003C162.769 261.596 150.15 268.4 132.948 268.4V270.4ZM172.684 249.037C181.228 234.878 185.428 212.813 185.428 183H183.428C183.428 212.707 179.228 234.322 170.972 248.003L172.684 249.037ZM185.428 183C185.428 152.713 181.23 130.52 172.68 116.597L170.976 117.643C179.226 131.08 183.428 152.807 183.428 183H185.428ZM172.68 116.597C164.079 102.589 150.777 95.6 132.948 95.6V97.6C150.158 97.6 162.777 104.291 170.976 117.643L172.68 116.597ZM388.216 161.4L388.076 162.39L388.091 162.392L388.105 162.394L388.216 161.4ZM440.416 183L439.743 183.74L439.75 183.746L439.757 183.753L440.416 183ZM447.976 272.64L447.146 272.082L447.144 272.085L447.976 272.64ZM413.056 301.44L413.462 302.354L413.474 302.348L413.056 301.44ZM306.496 303.6L306.188 304.551L306.196 304.554L306.204 304.556L306.496 303.6ZM262.936 282L262.056 281.525L261.644 282.288L262.341 282.804L262.936 282ZM284.896 241.32L285.538 240.553L284.598 239.766L284.016 240.845L284.896 241.32ZM318.376 261.12L318.021 262.055L318.376 261.12ZM382.096 263.64L382.457 264.573L382.47 264.568L382.483 264.562L382.096 263.64ZM399.016 250.68L399.837 251.251L399.842 251.243L399.848 251.235L399.016 250.68ZM391.456 204.24L390.885 205.061L390.896 205.069L391.456 204.24ZM314.056 195.24H313.056V196.24H314.056V195.24ZM314.056 163.56L313.358 162.844L313.056 163.138V163.56H314.056ZM396.496 83.28L397.418 82.8928L396.85 81.5397L395.798 82.5636L396.496 83.28ZM404.056 101.28V102.28H405.561L404.978 100.893L404.056 101.28ZM275.896 101.28L274.896 101.288L274.904 102.28H275.896V101.28ZM275.536 56.64V55.64H274.528L274.536 56.6481L275.536 56.64ZM447.976 56.64H448.976V55.64H447.976V56.64ZM447.976 89.76L448.664 90.4854L448.976 90.1897V89.76H447.976ZM356.536 176.52L355.582 176.821L356.064 178.346L357.224 177.245L356.536 176.52ZM350.056 156L350.196 155.01L348.624 154.787L349.102 156.301L350.056 156ZM388.105 162.394C409.543 164.776 426.731 171.91 439.743 183.74L441.089 182.26C427.701 170.09 410.089 162.824 388.326 160.406L388.105 162.394ZM439.757 183.753C452.957 195.302 459.576 210.735 459.576 230.16H461.576C461.576 210.225 454.755 194.218 441.074 182.247L439.757 183.753ZM459.576 230.16C459.576 245.812 455.429 259.776 447.146 272.082L448.806 273.198C457.323 260.544 461.576 246.188 461.576 230.16H459.576ZM447.144 272.085C439.099 284.152 427.612 293.639 412.638 300.532L413.474 302.348C428.739 295.321 440.532 285.608 448.808 273.195L447.144 272.085ZM412.65 300.526C397.685 307.177 379.95 310.52 359.416 310.52V312.52C380.162 312.52 398.187 309.143 413.462 302.354L412.65 300.526ZM359.416 310.52C341.515 310.52 323.974 307.895 306.788 302.644L306.204 304.556C323.578 309.865 341.317 312.52 359.416 312.52V310.52ZM306.804 302.649C289.847 297.156 275.428 290 263.531 281.196L262.341 282.804C274.443 291.76 289.065 299.004 306.188 304.551L306.804 302.649ZM263.816 282.475L285.776 241.795L284.016 240.845L262.056 281.525L263.816 282.475ZM284.254 242.087C294.655 250.795 305.911 257.453 318.021 262.055L318.731 260.185C306.84 255.667 295.777 249.125 285.538 240.553L284.254 242.087ZM318.021 262.055C330.131 266.657 342.491 268.96 355.096 268.96V266.96C342.741 266.96 330.621 264.703 318.731 260.185L318.021 262.055ZM355.096 268.96C365.742 268.96 374.871 267.509 382.457 264.573L381.735 262.707C374.441 265.531 365.57 266.96 355.096 266.96V268.96ZM382.483 264.562C390.062 261.384 395.868 256.956 399.837 251.251L398.195 250.109C394.483 255.444 389.009 259.656 381.709 262.718L382.483 264.562ZM399.848 251.235C403.806 245.298 405.776 238.502 405.776 230.88H403.776C403.776 238.138 401.906 244.542 398.184 250.125L399.848 251.235ZM405.776 230.88C405.776 218.826 401.201 209.618 392.016 203.411L390.896 205.069C399.471 210.862 403.776 219.414 403.776 230.88H405.776ZM392.026 203.419C383.154 197.257 370.683 194.24 354.736 194.24V196.24C370.469 196.24 382.478 199.223 390.886 205.061L392.026 203.419ZM354.736 194.24H314.056V196.24H354.736V194.24ZM315.056 195.24V163.56H313.056V195.24H315.056ZM314.754 164.276L397.194 83.9964L395.798 82.5636L313.358 162.844L314.754 164.276ZM395.574 83.6672L403.134 101.667L404.978 100.893L397.418 82.8928L395.574 83.6672ZM404.056 100.28H275.896V102.28H404.056V100.28ZM276.896 101.272L276.536 56.6319L274.536 56.6481L274.896 101.288L276.896 101.272ZM275.536 57.64H447.976V55.64H275.536V57.64ZM446.976 56.64V89.76H448.976V56.64H446.976ZM447.288 89.0346L355.848 175.795L357.224 177.245L448.664 90.4854L447.288 89.0346ZM357.49 176.219L351.01 155.699L349.102 156.301L355.582 176.821L357.49 176.219ZM349.916 156.99L388.076 162.39L388.356 160.41L350.196 155.01L349.916 156.99Z" fill="#313567" mask="url(#path-2-outside-1_55_88)"/>
</svg>
