<svg width="480" height="367" viewBox="0 0 480 367" fill="none" xmlns="http://www.w3.org/2000/svg">
<path d="M132.069 61.84C167.349 61.84 194.469 72.88 213.429 94.96C232.389 117.04 241.869 148.6 241.869 189.64C241.869 230.92 232.389 262.72 213.429 285.04C194.469 307.12 167.349 318.16 132.069 318.16C96.5489 318.16 69.1889 307.12 49.9889 285.04C31.0289 262.72 21.5489 231.04 21.5489 190C21.5489 148.72 31.0289 117.04 49.9889 94.96C69.1889 72.88 96.5489 61.84 132.069 61.84ZM132.069 103.6C114.309 103.6 101.109 110.44 92.4689 124.12C84.0689 137.8 79.8689 159.76 79.8689 190C79.8689 219.76 84.0689 241.6 92.4689 255.52C101.109 269.44 114.309 276.4 132.069 276.4C149.589 276.4 162.549 269.44 170.949 255.52C179.349 241.6 183.549 219.76 183.549 190C183.549 159.76 179.349 137.8 170.949 124.12C162.549 110.44 149.589 103.6 132.069 103.6ZM259.897 258.4V219.52L336.937 64H390.937L307.777 235.72L293.737 213.76H464.017V258.4H259.897ZM377.257 157.24H429.457V316H377.257V157.24Z" fill="#C2ADFF"/>
<mask id="path-2-outside-1_55_97" maskUnits="userSpaceOnUse" x="20" y="53" width="446" height="260" fill="black">
<rect fill="white" x="20" y="53" width="446" height="260"/>
<path d="M132.069 54.84C167.349 54.84 194.469 65.88 213.429 87.96C232.389 110.04 241.869 141.6 241.869 182.64C241.869 223.92 232.389 255.72 213.429 278.04C194.469 300.12 167.349 311.16 132.069 311.16C96.5489 311.16 69.1889 300.12 49.9889 278.04C31.0289 255.72 21.5489 224.04 21.5489 183C21.5489 141.72 31.0289 110.04 49.9889 87.96C69.1889 65.88 96.5489 54.84 132.069 54.84ZM132.069 96.6C114.309 96.6 101.109 103.44 92.4689 117.12C84.0689 130.8 79.8689 152.76 79.8689 183C79.8689 212.76 84.0689 234.6 92.4689 248.52C101.109 262.44 114.309 269.4 132.069 269.4C149.589 269.4 162.549 262.44 170.949 248.52C179.349 234.6 183.549 212.76 183.549 183C183.549 152.76 179.349 130.8 170.949 117.12C162.549 103.44 149.589 96.6 132.069 96.6ZM259.897 251.4V212.52L336.937 57H390.937L307.777 228.72L293.737 206.76H464.017V251.4H259.897ZM377.257 150.24H429.457V309H377.257V150.24Z"/>
</mask>
<path d="M132.069 54.84C167.349 54.84 194.469 65.88 213.429 87.96C232.389 110.04 241.869 141.6 241.869 182.64C241.869 223.92 232.389 255.72 213.429 278.04C194.469 300.12 167.349 311.16 132.069 311.16C96.5489 311.16 69.1889 300.12 49.9889 278.04C31.0289 255.72 21.5489 224.04 21.5489 183C21.5489 141.72 31.0289 110.04 49.9889 87.96C69.1889 65.88 96.5489 54.84 132.069 54.84ZM132.069 96.6C114.309 96.6 101.109 103.44 92.4689 117.12C84.0689 130.8 79.8689 152.76 79.8689 183C79.8689 212.76 84.0689 234.6 92.4689 248.52C101.109 262.44 114.309 269.4 132.069 269.4C149.589 269.4 162.549 262.44 170.949 248.52C179.349 234.6 183.549 212.76 183.549 183C183.549 152.76 179.349 130.8 170.949 117.12C162.549 103.44 149.589 96.6 132.069 96.6ZM259.897 251.4V212.52L336.937 57H390.937L307.777 228.72L293.737 206.76H464.017V251.4H259.897ZM377.257 150.24H429.457V309H377.257V150.24Z" fill="#C2ADFF"/>
<path d="M213.429 278.04L214.188 278.691L214.191 278.687L213.429 278.04ZM49.9889 278.04L49.2267 278.687L49.2343 278.696L49.9889 278.04ZM49.9889 87.96L49.2343 87.3038L49.2302 87.3085L49.9889 87.96ZM92.4689 117.12L91.6234 116.586L91.6167 116.597L92.4689 117.12ZM92.4689 248.52L91.6127 249.037L91.6193 249.047L92.4689 248.52ZM170.949 248.52L170.093 248.003L170.949 248.52ZM170.949 117.12L171.801 116.597L170.949 117.12ZM132.069 55.84C167.125 55.84 193.94 66.7994 212.67 88.6115L214.188 87.3085C194.998 64.9606 167.573 53.84 132.069 53.84V55.84ZM212.67 88.6115C231.421 110.448 240.869 141.742 240.869 182.64H242.869C242.869 141.458 233.357 109.632 214.188 87.3085L212.67 88.6115ZM240.869 182.64C240.869 223.779 231.421 255.315 212.667 277.393L214.191 278.687C233.357 256.125 242.869 224.061 242.869 182.64H240.869ZM212.67 277.389C193.94 299.201 167.125 310.16 132.069 310.16V312.16C167.573 312.16 194.998 301.039 214.188 278.691L212.67 277.389ZM132.069 310.16C96.7708 310.16 69.7133 299.199 50.7435 277.384L49.2343 278.696C68.6645 301.041 96.327 312.16 132.069 312.16V310.16ZM50.751 277.393C31.9963 255.314 22.5489 223.897 22.5489 183H20.5489C20.5489 224.183 30.0616 256.126 49.2268 278.687L50.751 277.393ZM22.5489 183C22.5489 141.86 31.9974 110.447 50.7476 88.6115L49.2302 87.3085C30.0604 109.633 20.5489 141.58 20.5489 183H22.5489ZM50.7435 88.6162C69.7133 66.8009 96.7708 55.84 132.069 55.84V53.84C96.327 53.84 68.6645 64.9591 49.2343 87.3038L50.7435 88.6162ZM132.069 95.6C114.006 95.6 100.467 102.584 91.6234 116.586L93.3144 117.654C101.751 104.296 114.612 97.6 132.069 97.6V95.6ZM91.6167 116.597C83.0671 130.52 78.8689 152.713 78.8689 183H80.8689C80.8689 152.807 85.0707 131.08 93.3211 117.643L91.6167 116.597ZM78.8689 183C78.8689 212.813 83.069 234.878 91.6127 249.037L93.3251 248.003C85.0689 234.322 80.8689 212.707 80.8689 183H78.8689ZM91.6193 249.047C100.459 263.29 113.998 270.4 132.069 270.4V268.4C114.62 268.4 101.758 261.59 93.3186 247.993L91.6193 249.047ZM132.069 270.4C149.906 270.4 163.208 263.284 171.805 249.037L170.093 248.003C161.89 261.596 149.271 268.4 132.069 268.4V270.4ZM171.805 249.037C180.349 234.878 184.549 212.813 184.549 183H182.549C182.549 212.707 178.349 234.322 170.093 248.003L171.805 249.037ZM184.549 183C184.549 152.713 180.351 130.52 171.801 116.597L170.097 117.643C178.347 131.08 182.549 152.807 182.549 183H184.549ZM171.801 116.597C163.2 102.589 149.898 95.6 132.069 95.6V97.6C149.279 97.6 161.898 104.291 170.097 117.643L171.801 116.597ZM259.897 251.4H258.897V252.4H259.897V251.4ZM259.897 212.52L259.001 212.076L258.897 212.286V212.52H259.897ZM336.937 57V56H336.316L336.041 56.5561L336.937 57ZM390.937 57L391.837 57.4358L392.532 56H390.937V57ZM307.777 228.72L306.935 229.259L307.898 230.765L308.677 229.156L307.777 228.72ZM293.737 206.76V205.76H291.911L292.895 207.299L293.737 206.76ZM464.017 206.76H465.017V205.76H464.017V206.76ZM464.017 251.4V252.4H465.017V251.4H464.017ZM377.257 150.24V149.24H376.257V150.24H377.257ZM429.457 150.24H430.457V149.24H429.457V150.24ZM429.457 309V310H430.457V309H429.457ZM377.257 309H376.257V310H377.257V309ZM260.897 251.4V212.52H258.897V251.4H260.897ZM260.793 212.964L337.833 57.4439L336.041 56.5561L259.001 212.076L260.793 212.964ZM336.937 58H390.937V56H336.937V58ZM390.037 56.5641L306.877 228.284L308.677 229.156L391.837 57.4358L390.037 56.5641ZM308.62 228.181L294.58 206.221L292.895 207.299L306.935 229.259L308.62 228.181ZM293.737 207.76H464.017V205.76H293.737V207.76ZM463.017 206.76V251.4H465.017V206.76H463.017ZM464.017 250.4H259.897V252.4H464.017V250.4ZM377.257 151.24H429.457V149.24H377.257V151.24ZM428.457 150.24V309H430.457V150.24H428.457ZM429.457 308H377.257V310H429.457V308ZM378.257 309V150.24H376.257V309H378.257Z" fill="#313567" mask="url(#path-2-outside-1_55_97)"/>
</svg>
