<svg width="26" height="26" viewBox="0 0 26 26" fill="none" xmlns="http://www.w3.org/2000/svg">
<path fill-rule="evenodd" clip-rule="evenodd" d="M1.35352 13C1.35352 6.59289 6.59228 1.35413 12.9993 1.35413C19.4064 1.35413 24.6452 6.59289 24.6452 13C24.6452 19.407 19.4064 24.6458 12.9993 24.6458C6.59228 24.6458 1.35352 19.407 1.35352 13ZM12.9993 2.97913C7.48975 2.97913 2.97852 7.49036 2.97852 13C2.97852 18.5096 7.48975 23.0208 12.9993 23.0208C18.5089 23.0208 23.0202 18.5096 23.0202 13C23.0202 7.49036 18.5089 2.97913 12.9993 2.97913Z" fill="#313567"/>
<path fill-rule="evenodd" clip-rule="evenodd" d="M18.1799 9.36019C18.4969 9.67777 18.4964 10.1922 18.1788 10.5092L12.0363 16.6409C11.7189 16.9577 11.2049 16.9575 10.8878 16.6404L7.82196 13.5745C7.50466 13.2572 7.50466 12.7428 7.82196 12.4255C8.13926 12.1082 8.65371 12.1082 8.97101 12.4255L11.4628 14.9173L17.0308 9.35917C17.3484 9.04215 17.8628 9.04261 18.1799 9.36019Z" fill="#313567"/>
</svg>
