<svg width="1800" height="422" viewBox="0 0 1800 422" fill="none" xmlns="http://www.w3.org/2000/svg">
<rect width="1800" height="422" rx="15" fill="#F0F8FF"/>
<mask id="mask0_155_3" style="mask-type:alpha" maskUnits="userSpaceOnUse" x="0" y="0" width="1800" height="422">
<rect width="1800" height="422" rx="15" fill="#F5F5F5"/>
</mask>
<g mask="url(#mask0_155_3)">
<path d="M1492.2 392.5C1298.2 423.3 1319.03 553.667 1353.7 615H1891.7V141.5C1849.53 131.333 1758.5 132.9 1731.7 220.5C1698.2 330 1734.7 354 1492.2 392.5Z" fill="#C2ADFF"/>
<path d="M1348.85 596.534C1341.52 574.692 1333.92 553.694 1331.96 530.614C1329.01 496.018 1334.17 463.41 1355.68 435.225C1378.65 405.122 1414.03 392.823 1449.88 385.054C1498.68 374.479 1547.76 373.311 1597.18 368.116C1633.02 364.347 1670.38 356.44 1699.65 334.19C1726.35 313.887 1746.02 283.318 1756.5 251.628C1766.31 221.985 1767.17 190.54 1756.06 161.192C1748.65 141.635 1749.5 146 1723.27 108C1697.04 70 1701.7 -8.6 1804.5 -25" stroke="#313567" stroke-width="2" stroke-linecap="round"/>
<path d="M295.5 28.5001C489.5 -2.2999 468.666 -132.667 434 -194H-104V279.5C-61.8333 289.667 29.2 288.1 56 200.5C89.5 91.0001 52.9997 67.0001 295.5 28.5001Z" fill="#FFD16C"/>
<path d="M438.853 -175.534C446.175 -153.692 453.777 -132.694 455.741 -109.614C458.686 -75.0177 453.527 -42.4096 432.018 -14.2249C409.044 15.8784 373.667 28.177 337.817 35.946C289.017 46.5215 239.939 47.6887 190.524 52.8842C154.677 56.6532 117.317 64.5595 88.0528 86.8102C61.3507 107.113 41.6812 137.682 31.1958 169.372C21.3873 199.015 20.5251 230.46 31.6416 259.808C39.0495 279.365 38.1992 275 64.4284 313C90.6577 351 85.9992 429.6 -16.8008 446" stroke="#313567" stroke-width="2" stroke-linecap="round"/>
</g>
</svg>
