<svg width="768" height="422" viewBox="0 0 768 422" fill="none" xmlns="http://www.w3.org/2000/svg">
<rect width="768" height="422" rx="15" fill="#F5FBFF"/>
<mask id="mask0_168_2" style="mask-type:alpha" maskUnits="userSpaceOnUse" x="0" y="0" width="768" height="422">
<rect width="768" height="422" rx="15" fill="#F5F5F5"/>
</mask>
<g mask="url(#mask0_168_2)">
<path d="M508.2 392.5C314.2 423.3 335.033 553.667 369.7 615H907.699V141.5C865.533 131.333 774.499 132.9 747.699 220.5C714.199 330 750.7 354 508.2 392.5Z" fill="#C2ADFF"/>
<path d="M364.847 596.534C357.525 574.692 349.922 553.694 347.958 530.614C345.014 496.018 350.172 463.41 371.681 435.225C394.655 405.122 430.032 392.823 465.882 385.054C514.682 374.479 563.76 373.311 613.175 368.116C649.023 364.347 686.382 356.44 715.646 334.19C742.349 313.887 762.018 283.318 772.503 251.628C782.312 221.985 783.174 190.54 772.058 161.192C764.65 141.635 765.5 146 739.271 108C713.042 70 717.7 -8.6 820.5 -25" stroke="#313567" stroke-width="2" stroke-linecap="round"/>
<path d="M259.5 28.5001C453.5 -2.2999 432.666 -132.667 398 -194H-140V279.5C-97.8333 289.667 -6.79999 288.1 20 200.5C53.5 91.0001 16.9997 67.0001 259.5 28.5001Z" fill="#FFD16C"/>
<path d="M402.853 -175.534C410.175 -153.692 417.777 -132.694 419.741 -109.614C422.686 -75.0177 417.527 -42.4096 396.018 -14.2249C373.044 15.8784 337.667 28.177 301.817 35.946C253.017 46.5215 203.939 47.6887 154.524 52.8842C118.677 56.6532 81.3173 64.5595 52.0528 86.8102C25.3507 107.113 5.68125 137.682 -4.80417 169.372C-14.6127 199.015 -15.4749 230.46 -4.35843 259.808C3.04955 279.365 2.19922 275 28.4284 313C54.6577 351 49.9992 429.6 -52.8008 446" stroke="#313567" stroke-width="2" stroke-linecap="round"/>
</g>
</svg>
