<svg width="97" height="98" viewBox="0 0 97 98" fill="none" xmlns="http://www.w3.org/2000/svg">
<path d="M97 53C97 77.8528 75.2858 98 48.5 98C21.7142 98 0 77.8528 0 53C0 28.1472 2.31419 0 29.1 0C55.8858 0 97 28.1472 97 53Z" fill="white"/>
<path fill-rule="evenodd" clip-rule="evenodd" d="M34.4973 43.5279C33.6011 43.6484 33.1828 43.8612 32.8973 44.1468C32.6118 44.4323 32.3989 44.8507 32.2784 45.7468C32.153 46.679 32.1504 47.9232 32.1504 49.7499V50.3999H63.8504V49.7499C63.8504 47.9232 63.8477 46.679 63.7224 45.7468C63.6019 44.8507 63.389 44.4323 63.1035 44.1468C62.8179 43.8613 62.3996 43.6484 61.5034 43.5279C60.5713 43.4026 59.327 43.3999 57.5004 43.3999H38.5004C36.6737 43.3999 35.4295 43.4026 34.4973 43.5279ZM38.412 40.8999H57.5888C59.3048 40.8999 60.7183 40.8998 61.8366 41.0502C63.0099 41.2079 64.0438 41.5516 64.8712 42.379C65.6987 43.2065 66.0424 44.2403 66.2001 45.4137C66.3505 46.532 66.3504 47.9454 66.3504 49.6615V52.8999H29.6504L29.6504 49.6615C29.6503 47.9454 29.6503 46.532 29.8007 45.4137C29.9584 44.2403 30.3021 43.2065 31.1295 42.379C31.957 41.5515 32.9908 41.2079 34.1642 41.0502C35.2825 40.8998 36.6959 40.8999 38.412 40.8999Z" fill="#313567"/>
<path d="M63.1035 44.1468C63.389 44.4323 63.6019 44.8507 63.7224 45.7468C63.8477 46.679 63.8504 47.9232 63.8504 49.7499V50.3999H32.1504V49.7499C32.1504 47.9232 32.153 46.679 32.2784 45.7468C32.3989 44.8507 32.6118 44.4323 32.8973 44.1468C33.1828 43.8612 33.6011 43.6484 34.4973 43.5279C35.4295 43.4026 36.6737 43.3999 38.5004 43.3999H57.5004C59.327 43.3999 60.5713 43.4026 61.5034 43.5279C62.3996 43.6484 62.8179 43.8613 63.1035 44.1468ZM63.1035 44.1468L63.8991 43.3512M31.1295 42.379C30.3021 43.2065 29.9584 44.2403 29.8007 45.4137C29.6503 46.532 29.6503 47.9454 29.6504 49.6615L29.6504 52.8999H66.3504V49.6615C66.3504 47.9454 66.3505 46.532 66.2001 45.4137C66.0424 44.2403 65.6987 43.2065 64.8712 42.379C64.0438 41.5516 63.0099 41.2079 61.8366 41.0502C60.7183 40.8998 59.3048 40.8999 57.5888 40.8999H38.412C36.6959 40.8999 35.2825 40.8998 34.1642 41.0502C32.9908 41.2079 31.957 41.5515 31.1295 42.379ZM31.1295 42.379L32.0134 43.2629" stroke="#313567" stroke-width="0.5"/>
<path fill-rule="evenodd" clip-rule="evenodd" d="M34.7004 43.3999C33.2921 43.3999 32.1504 44.5416 32.1504 45.9499V66.8499C32.1504 68.2582 33.2921 69.3999 34.7004 69.3999H61.3004C62.7087 69.3999 63.8504 68.2582 63.8504 66.8499V45.9499C63.8504 44.5416 62.7087 43.3999 61.3004 43.3999H34.7004ZM29.6504 45.9499C29.6504 43.1609 31.9114 40.8999 34.7004 40.8999H61.3004C64.0894 40.8999 66.3504 43.1609 66.3504 45.9499V66.8499C66.3504 69.6389 64.0894 71.8999 61.3004 71.8999H34.7004C31.9114 71.8999 29.6504 69.6389 29.6504 66.8499V45.9499Z" fill="#313567" stroke="#313567" stroke-width="0.5"/>
<path fill-rule="evenodd" clip-rule="evenodd" d="M38.5 35.2C39.1904 35.2 39.75 35.7596 39.75 36.45V45.95C39.75 46.6403 39.1904 47.2 38.5 47.2C37.8096 47.2 37.25 46.6403 37.25 45.95V36.45C37.25 35.7596 37.8096 35.2 38.5 35.2Z" fill="#313567" stroke="#313567" stroke-width="0.5" stroke-linecap="round"/>
<path fill-rule="evenodd" clip-rule="evenodd" d="M57.5 35.2C58.1904 35.2 58.75 35.7596 58.75 36.45V45.95C58.75 46.6403 58.1904 47.2 57.5 47.2C56.8096 47.2 56.25 46.6403 56.25 45.95V36.45C56.25 35.7596 56.8096 35.2 57.5 35.2Z" fill="#313567" stroke="#313567" stroke-width="0.5" stroke-linecap="round"/>
</svg>
