<svg width="28" height="28" viewBox="0 0 28 28" fill="none" xmlns="http://www.w3.org/2000/svg">
<path fill-rule="evenodd" clip-rule="evenodd" d="M8.16732 3.20825C6.28319 3.20825 4.57941 3.67915 3.34275 4.82747C2.09437 5.98669 1.45898 7.70814 1.45898 9.91658V18.0833C1.45898 20.2917 2.09437 22.0132 3.34275 23.1724C4.57941 24.3207 6.28319 24.7916 8.16732 24.7916H19.834C21.7182 24.7916 23.4219 24.3207 24.6585 23.1724C25.9069 22.0132 26.5423 20.2917 26.5423 18.0833V9.91658C26.5423 7.70814 25.9069 5.98669 24.6585 4.82747C23.4219 3.67915 21.7182 3.20825 19.834 3.20825H8.16732ZM22.4339 9.75593C22.8162 9.46046 22.8867 8.91094 22.5912 8.52855C22.2958 8.14616 21.7463 8.0757 21.3638 8.37118L14.8922 13.3718C14.3671 13.7777 13.6341 13.7777 13.1089 13.3718L6.63735 8.37118C6.25495 8.0757 5.70544 8.14616 5.40996 8.52855C5.11448 8.91094 5.18493 9.46046 5.56733 9.75593L12.0389 14.7566C13.1944 15.6494 14.8068 15.6494 15.9623 14.7566L22.4339 9.75593Z" fill="#313567"/>
</svg>
