<svg width="520" height="267" viewBox="0 0 520 267" fill="none" xmlns="http://www.w3.org/2000/svg">
<path d="M318.098 79.9917C315.361 80.7053 317.154 99.7276 318.111 103.302C320.46 105.028 324.756 96.3928 325.399 94.8222C326.202 92.8589 321.519 79.0997 318.098 79.9917Z" fill="#EDE7FF"/>
<path d="M316.337 86.4479C316.155 82.7213 316.767 76.188 320.67 79.868C325.548 84.468 327.273 99.7546 321.352 103.901C315.43 108.048 315.423 84.0429 318.782 92.6362" stroke="#313567" stroke-width="2" stroke-linecap="round"/>
<path d="M342.626 257.814C336.674 267.802 253.951 264.026 197.505 259.726C153.339 268.616 111.265 272.232 117.644 253.549C127.28 225.324 162.537 210.76 183 199C201.385 128.766 237.876 34.854 269.964 27.5171C295.351 21.712 314.42 65.6321 326.878 116.689C352.592 158.691 403.399 245.718 400.912 257.814C398.541 269.344 363.301 260.359 344.197 247.017C344.031 252.567 343.509 256.333 342.626 257.814Z" fill="#EDE7FF"/>
<path d="M177.5 258C177.9 256 181.667 216.833 183 197.5C121.5 223.5 114 256.5 114 258C114 259.5 177 260.5 177.5 258Z" fill="#313567"/>
<path d="M318.5 125.5C289 172.5 230.999 129 205 136C196.5 140.262 168.5 239.5 184 224C199.5 208.5 232 232.5 232 234.5C232 236.5 224.5 248.5 220 258.5C215.5 268.5 326.341 262.091 342.5 258.5C351.5 256.5 346 246 345 245C361 248 382.009 214.965 379 207C370.5 184.5 337.728 94.8646 318.5 125.5Z" fill="#FFD16C"/>
<path d="M214 55.501C218.8 39.101 247.333 24.8333 253 26L225 71.5009C219.333 73.0009 209.2 71.901 214 55.501Z" fill="#313567" stroke="#313567" stroke-width="2" stroke-linecap="round"/>
<path d="M234.213 93.2745C226.442 78.0555 237.391 48.0913 242.312 45.0487L253.196 97.3543C250.106 102.336 241.984 108.493 234.213 93.2745Z" fill="#313567" stroke="#313567" stroke-width="2" stroke-linecap="round"/>
<path d="M308.674 96.2745C316.444 81.0555 305.496 51.0913 300.575 48.0487L289.691 100.354C292.781 105.336 300.903 111.493 308.674 96.2745Z" fill="#313567" stroke="#313567" stroke-width="2" stroke-linecap="round"/>
<path d="M288.5 100.5C298.518 80.8099 281.193 40.0224 274.805 36.0636L252.001 100.5C256.022 106.965 278.483 120.19 288.5 100.5Z" fill="#313567" stroke="#313567" stroke-width="2" stroke-linecap="round"/>
<path d="M244.098 19.31C256.011 11.7105 281.542 18.354 284.435 22.1641L242.24 35.2585C237.895 33.1088 232.184 26.9095 244.098 19.31Z" fill="#313567" stroke="#313567" stroke-width="2" stroke-linecap="round"/>
<path d="M323 55.501C318.2 39.101 289.667 24.8333 284 26L312 71.5009C317.667 73.0009 327.8 71.901 323 55.501Z" fill="#313567" stroke="#313567" stroke-width="2" stroke-linecap="round"/>
<path d="M240.017 31.9204C252.41 19.7824 280.431 15.1283 298.213 26.5035C306.681 31.9203 324.001 57.921 324.001 79.5883C324.001 87.5447 302.876 100.172 294.979 100.172C282.357 100.172 272.027 104.89 261.031 102.881C246.153 100.161 224.792 94.9212 219.5 79.5883C215.155 67 222.138 49.432 240.017 31.9204Z" fill="#313567"/>
<path d="M242 30C233.833 32.8333 216.5 42 211.5 61.4999M259.5 22.4999C274.333 16.3333 307.2 15.4999 320 61.4999M243.5 44.5C230.5 54 221 81 233.5 93.5M275.5 32C283.5 32 292.5 40 295 49.5M257 41.5C253.667 45.8333 250 51 250 60M279 56C290 63.5 295 80.3 289 93.5M309 70C310.167 76.1667 310.6 90.2 303 97M257 74.5C252 81.5 247 99 259.5 108" stroke="#EDE7FF" stroke-width="2" stroke-linecap="round" stroke-linejoin="round"/>
<path d="M207 122.5C192.72 132.992 191 154.743 196.5 159.743C208 129.243 218 164.743 271.5 164.743C304.096 164.743 327.026 148.439 330.5 142.743C339.5 127.987 350 145.243 350.5 142.743C351 140.243 339.844 117.536 325 110.743C310.835 104.26 297.826 117.733 274.5 120.743C249.25 124.002 231.5 104.5 207 122.5Z" fill="white"/>
<path d="M195 158C187.167 177.833 178.5 212 178.5 256M237 216.5C235 227.833 228.6 252.2 219 259M334.5 175.5C341.5 191.667 348.5 231 345.5 256" stroke="#313567" stroke-width="2" stroke-linecap="round"/>
<path d="M219.033 86.933C216.552 86.7891 212.825 102.828 212.642 106.007C214.13 108.044 220.089 102.121 221.057 101.007C222.267 99.6145 222.135 87.1129 219.033 86.933Z" fill="#EDE7FF"/>
<path d="M198 163.5C190 150 189.5 127.8 221.5 115M316.5 110C326.167 105.333 346.6 105.3 351 142.5M239.5 160.5C254.334 167 291.4 174 321 150M371.5 220.5C366.5 232 359 241.5 346 246M232.5 234.5C228.334 229.167 215.6 218.6 198 219" stroke="#313567" stroke-width="2" stroke-linecap="round"/>
<path d="M221.581 93.1882C221.982 90.0419 221.896 84.4644 218.345 87.3245C213.905 90.8997 211.43 103.741 216.174 107.647C220.918 111.554 222.514 91.2104 219.099 98.2707" stroke="#313567" stroke-width="2" stroke-linecap="round"/>
<path d="M319 90C321 94.3333 325.2 104.8 326 112" stroke="#313567" stroke-width="2" stroke-linecap="round"/>
<path d="M212.949 239.545C217.757 244.355 208.2 255.499 209.073 257.662" stroke="#313567" stroke-width="2" stroke-linecap="round"/>
<path d="M364.904 239.82C360.914 245.327 372.108 254.826 371.587 257.099" stroke="#313567" stroke-width="2" stroke-linecap="round"/>
<path d="M518.5 258.5L494 258.5M1.5 258.5H20M467.5 258.5L444.5 258.5M54 258.5H74M87 258.5H109.5H119H201.5L265 263.5L347 258.5L431 258.5" stroke="#313567" stroke-width="2" stroke-linecap="round"/>
<path d="M169.043 210.289C163.231 212.52 151.156 218.745 141.501 228.189M130.5 240.169C131.686 238.53 132.974 236.959 134.333 235.458" stroke="#EDE7FF" stroke-width="2" stroke-linecap="round"/>
</svg>
