<svg width="92" height="98" viewBox="0 0 92 98" fill="none" xmlns="http://www.w3.org/2000/svg">
<path d="M92 53C92 77.8528 71.4051 98 46 98C20.5949 98 0 77.8528 0 53C0 28.1472 2.1949 0 27.6 0C53.0051 0 92 28.1472 92 53Z" fill="white"/>
<path fill-rule="evenodd" clip-rule="evenodd" d="M60.823 47.5104C60.0315 46.7189 58.748 46.7189 57.9565 47.5104L57.6534 47.8134C57.6698 47.8692 57.6887 47.9286 57.7103 47.9909C57.8671 48.4428 58.1646 49.0405 58.7287 49.6046C58.7287 49.6046 58.7287 49.6046 58.7287 49.6046C58.7287 49.6046 58.7288 49.6047 58.7288 49.6047C59.293 50.1688 59.8907 50.4663 60.3426 50.6231C60.4049 50.6448 60.4643 50.6636 60.5201 50.68L60.8231 50.377C61.6147 49.5855 61.6147 48.3021 60.823 47.5105L60.823 47.5104ZM58.6328 52.6008C58.341 52.9051 58.0555 53.2051 57.7746 53.5003C54.7879 56.6391 52.3193 59.2334 48.1692 60.6349L47.6985 60.1643C49.1 56.0142 51.6943 53.5456 54.8332 50.5588C55.1284 50.278 55.4284 49.9925 55.7326 49.7007C56.0116 50.2366 56.4056 50.817 56.961 51.3724L56.9611 51.3725C57.5165 51.9279 58.0969 52.3218 58.6328 52.6008ZM62.5908 45.7427C60.823 43.9748 57.9566 43.9748 56.1887 45.7426C56.1887 45.7426 56.1887 45.7427 56.1886 45.7427L55.4162 46.515L55.4162 46.5151C54.7068 47.2244 53.9841 47.9091 53.2647 48.5906C50.0582 51.6282 46.9164 54.6046 45.3052 59.438C45.3052 59.4381 45.3052 59.4381 45.3052 59.4381L44.8595 60.775C44.604 61.5417 44.8036 62.387 45.375 62.9585C45.9464 63.5299 46.7918 63.7295 47.5585 63.4739L48.227 63.2511L48.2271 63.2511L48.8953 63.0283C48.8954 63.0283 48.8954 63.0282 48.8954 63.0282C53.7289 61.4171 56.7053 58.2753 59.7429 55.0688C60.4244 54.3494 61.1091 53.6267 61.8184 52.9173L62.5907 52.1448C64.3588 50.377 64.3588 47.5106 62.5908 45.7427Z" fill="#313567"/>
<path d="M58.7287 49.6046C58.1646 49.0405 57.8671 48.4428 57.7103 47.9909C57.6887 47.9286 57.6698 47.8692 57.6534 47.8134L57.9565 47.5104C58.748 46.7189 60.0315 46.7189 60.823 47.5104L60.823 47.5105C61.6147 48.3021 61.6147 49.5855 60.8231 50.377L60.5201 50.68C60.4643 50.6636 60.4049 50.6448 60.3426 50.6231C59.8907 50.4663 59.293 50.1688 58.7288 49.6047C58.7288 49.6047 58.7287 49.6046 58.7287 49.6046ZM58.7287 49.6046C58.7287 49.6046 58.7287 49.6046 58.7287 49.6046ZM58.6328 52.6008C58.341 52.9051 58.0555 53.2051 57.7746 53.5003C54.7879 56.6391 52.3193 59.2334 48.1692 60.6349L47.6985 60.1643C49.1 56.0142 51.6943 53.5456 54.8332 50.5588C55.1284 50.278 55.4284 49.9925 55.7326 49.7007C56.0116 50.2366 56.4056 50.817 56.961 51.3724L56.9611 51.3725C57.5165 51.9279 58.0969 52.3218 58.6328 52.6008ZM62.5908 45.7427C60.823 43.9748 57.9566 43.9748 56.1887 45.7426C56.1887 45.7426 56.1887 45.7427 56.1886 45.7427L55.4162 46.515L55.4162 46.5151C54.7068 47.2244 53.9841 47.9091 53.2647 48.5906C50.0582 51.6282 46.9164 54.6046 45.3052 59.438C45.3052 59.4381 45.3052 59.4381 45.3052 59.4381L44.8595 60.775C44.604 61.5417 44.8036 62.387 45.375 62.9585C45.9464 63.5299 46.7918 63.7295 47.5585 63.4739L48.227 63.2511L48.2271 63.2511L48.8953 63.0283C48.8954 63.0283 48.8954 63.0282 48.8954 63.0282C53.7289 61.4171 56.7053 58.2753 59.7429 55.0688C60.4244 54.3494 61.1091 53.6267 61.8184 52.9173L62.5907 52.1448C64.3588 50.377 64.3588 47.5106 62.5908 45.7427Z" stroke="#313567" stroke-width="0.5"/>
<path fill-rule="evenodd" clip-rule="evenodd" d="M35.7998 55.6667C35.7998 54.9764 36.3594 54.4167 37.0498 54.4167H41.2165C41.9068 54.4167 42.4665 54.9764 42.4665 55.6667C42.4665 56.3571 41.9068 56.9167 41.2165 56.9167H37.0498C36.3594 56.9167 35.7998 56.3571 35.7998 55.6667Z" fill="#313567" stroke="#313567" stroke-width="0.5" stroke-linecap="round"/>
<path fill-rule="evenodd" clip-rule="evenodd" d="M35.7998 49C35.7998 48.3096 36.3594 47.75 37.0498 47.75H47.8831C48.5735 47.75 49.1331 48.3096 49.1331 49C49.1331 49.6904 48.5735 50.25 47.8831 50.25H37.0498C36.3594 50.25 35.7998 49.6904 35.7998 49Z" fill="#313567" stroke="#313567" stroke-width="0.5" stroke-linecap="round"/>
<path fill-rule="evenodd" clip-rule="evenodd" d="M35.7998 62.3333C35.7998 61.6429 36.3594 61.0833 37.0498 61.0833H39.5498C40.2402 61.0833 40.7998 61.6429 40.7998 62.3333C40.7998 63.0236 40.2402 63.5833 39.5498 63.5833H37.0498C36.3594 63.5833 35.7998 63.0236 35.7998 62.3333Z" fill="#313567" stroke="#313567" stroke-width="0.5" stroke-linecap="round"/>
<path fill-rule="evenodd" clip-rule="evenodd" d="M37.1847 38.8162C35.5079 39.0416 34.5419 39.4644 33.8365 40.1697C33.8365 40.1698 33.8365 40.1697 33.8365 40.1697M33.8365 40.1697C33.1312 40.8751 32.7084 41.8412 32.4829 43.518C32.2527 45.2308 32.25 47.4885 32.25 50.6666V57.3333C32.25 58.0236 31.6904 58.5833 31 58.5833C30.3096 58.5833 29.75 58.0236 29.75 57.3333L29.75 50.5726C29.75 47.5096 29.75 45.0836 30.0052 43.1849C30.2679 41.2308 30.8215 39.6493 32.0687 38.402C33.316 37.1547 34.8976 36.6012 36.8516 36.3385C38.7503 36.0832 41.1764 36.0832 44.2393 36.0833H47.7607C50.8236 36.0832 53.2497 36.0832 55.1484 36.3385C57.1024 36.6012 58.684 37.1547 59.9312 38.402C60.4194 38.8902 60.4194 39.6816 59.9312 40.1698C59.443 40.6579 58.6516 40.6579 58.1634 40.1697C57.4581 39.4644 56.4921 39.0416 54.8153 38.8162C53.1025 38.5859 50.8447 38.5833 47.6667 38.5833H44.3333C41.1553 38.5833 38.8975 38.5859 37.1847 38.8162M61 56.0833C61.6904 56.0833 62.25 56.6429 62.25 57.3333C62.25 60.1181 62.1063 62.4378 61.6888 64.3385C61.2681 66.2534 60.5526 67.8217 59.3539 69.0205C58.1551 70.2192 56.5868 70.9347 54.6719 71.3554C52.7713 71.7729 50.4515 71.9166 47.6667 71.9166H44.2393C41.1764 71.9166 38.7503 71.9166 36.8516 71.6614C34.8976 71.3986 33.316 70.8451 32.0687 69.5978C31.5806 69.1096 31.5806 68.3182 32.0687 67.83C32.5569 67.3419 33.3484 67.3419 33.8365 67.83C34.5419 68.5354 35.5079 68.9582 37.1848 69.1836C38.8975 69.4139 41.1553 69.4166 44.3333 69.4166H47.6667C50.3974 69.4166 52.502 69.2725 54.1355 68.9136C55.7549 68.5579 56.8304 68.0084 57.5861 67.2527C58.3418 66.497 58.8913 65.4214 59.247 63.8021C59.6059 62.1686 59.75 60.064 59.75 57.3333C59.75 56.6429 60.3096 56.0833 61 56.0833Z" fill="#313567"/>
<path d="M33.8365 40.1697C34.5419 39.4644 35.5079 39.0416 37.1847 38.8162M33.8365 40.1697C33.8365 40.1697 33.8365 40.1698 33.8365 40.1697ZM33.8365 40.1697L37.1847 38.8162M33.8365 40.1697C33.1312 40.8751 32.7084 41.8412 32.4829 43.518C32.2527 45.2308 32.25 47.4885 32.25 50.6666V57.3333C32.25 58.0236 31.6904 58.5833 31 58.5833C30.3096 58.5833 29.75 58.0236 29.75 57.3333L29.75 50.5726C29.75 47.5096 29.75 45.0836 30.0052 43.1849C30.2679 41.2308 30.8215 39.6493 32.0687 38.402C33.316 37.1547 34.8976 36.6012 36.8516 36.3385C38.7503 36.0832 41.1764 36.0832 44.2393 36.0833H47.7607C50.8236 36.0832 53.2497 36.0832 55.1484 36.3385C57.1024 36.6012 58.684 37.1547 59.9312 38.402C60.4194 38.8902 60.4194 39.6816 59.9312 40.1698C59.443 40.6579 58.6516 40.6579 58.1634 40.1697C57.4581 39.4644 56.4921 39.0416 54.8153 38.8162C53.1025 38.5859 50.8447 38.5833 47.6667 38.5833H44.3333C41.1553 38.5833 38.8975 38.5859 37.1847 38.8162M62.25 57.3333C62.25 56.6429 61.6904 56.0833 61 56.0833C60.3096 56.0833 59.75 56.6429 59.75 57.3333C59.75 60.064 59.6059 62.1686 59.247 63.8021C58.8913 65.4214 58.3418 66.497 57.5861 67.2527C56.8304 68.0084 55.7549 68.5579 54.1355 68.9136C52.502 69.2725 50.3974 69.4166 47.6667 69.4166H44.3333C41.1553 69.4166 38.8975 69.4139 37.1848 69.1836C35.5079 68.9582 34.5419 68.5354 33.8365 67.83C33.3484 67.3419 32.5569 67.3419 32.0687 67.83C31.5806 68.3182 31.5806 69.1096 32.0687 69.5978C33.316 70.8451 34.8976 71.3986 36.8516 71.6614C38.7503 71.9166 41.1764 71.9166 44.2393 71.9166H47.6667C50.4515 71.9166 52.7713 71.7729 54.6719 71.3554C56.5868 70.9347 58.1551 70.2192 59.3539 69.0205C60.5526 67.8217 61.2681 66.2534 61.6888 64.3385C62.1063 62.4378 62.25 60.1181 62.25 57.3333Z" stroke="#313567" stroke-width="0.5" stroke-linecap="round"/>
</svg>
