<svg width="92" height="98" viewBox="0 0 92 98" fill="none" xmlns="http://www.w3.org/2000/svg">
<path d="M92 53C92 77.8528 71.4051 98 46 98C20.5949 98 0 77.8528 0 53C0 28.1472 2.1949 0 27.6 0C53.0051 0 92 28.1472 92 53Z" fill="white"/>
<g clip-path="url(#clip0_132_5)">
<path fill-rule="evenodd" clip-rule="evenodd" d="M42.5524 40.1776C41.8498 40.7834 41.0207 41.1948 40.3233 41.454C39.6227 41.7143 38.7266 41.943 37.8055 41.943H34.3469C34.2406 41.943 34.1327 41.9839 34.0403 42.0763C33.9479 42.1687 33.907 42.2767 33.907 42.3829V45.822C33.907 46.7455 33.6772 47.6366 33.422 48.3261C33.1651 49.0204 32.7655 49.8256 32.195 50.5103L32.1849 50.5224L29.4866 53.7008C29.4865 53.7009 29.4864 53.7011 29.4863 53.7013C29.4808 53.7098 29.4187 53.8065 29.4187 54C29.4187 54.1935 29.4808 54.2903 29.4863 54.2988C29.4864 54.299 29.4865 54.2991 29.4866 54.2992L32.1849 57.4776L32.195 57.4897C32.7655 58.1744 33.1651 58.9796 33.422 59.6739C33.6772 60.3634 33.907 61.2545 33.907 62.178V65.5971C33.907 65.7033 33.9479 65.8113 34.0403 65.9037C34.1327 65.9961 34.2406 66.037 34.3469 66.037H37.8055C38.732 66.037 39.6279 66.2634 40.3366 66.5282C41.0432 66.7922 41.863 67.2064 42.5583 67.8074C42.56 67.809 42.5618 67.8105 42.5636 67.8121L45.6894 70.5029C45.7098 70.5177 45.8159 70.5809 46.01 70.5809C46.1942 70.5809 46.2865 70.5245 46.2988 70.517C46.2998 70.5164 46.3003 70.5161 46.3002 70.5162L49.4414 67.8121C49.4433 67.8105 49.4452 67.8088 49.4471 67.8072C50.1509 67.1988 50.9824 66.7859 51.6817 66.526C52.3823 66.2657 53.2784 66.037 54.1994 66.037H57.5982C57.7044 66.037 57.8124 65.9961 57.9047 65.9037C57.9971 65.8113 58.038 65.7033 58.038 65.5971V62.198C58.038 61.2714 58.2644 60.3754 58.5291 59.6666C58.7932 58.9599 59.2073 58.1399 59.8083 57.4445C59.8099 57.4428 59.8114 57.441 59.8129 57.4393L62.5033 54.3132C62.5182 54.2928 62.5813 54.1867 62.5813 53.9925C62.5813 53.8083 62.525 53.7161 62.5174 53.7037C62.5168 53.7027 62.5165 53.7022 62.5166 53.7023L59.8129 50.5607C59.8114 50.5589 59.8098 50.5572 59.8083 50.5554C59.1998 49.8515 58.7869 49.0196 58.527 48.3201C58.2666 47.6194 58.038 46.7232 58.038 45.802V42.4029C58.038 42.2967 57.9971 42.1887 57.9047 42.0963C57.8124 42.0039 57.7044 41.963 57.5982 41.963H54.1994C53.273 41.963 52.3771 41.7366 51.6684 41.4718C50.9618 41.2078 50.142 40.7936 49.4467 40.1925C49.445 40.191 49.4432 40.1894 49.4414 40.1879L46.3156 37.4971C46.2952 37.4822 46.1891 37.4191 45.995 37.4191C45.8109 37.4191 45.7186 37.4755 45.7063 37.483C45.7048 37.4839 45.7045 37.4841 45.7053 37.4834L42.5524 40.1776ZM48.5216 34.8848C47.1221 33.7051 44.863 33.7051 43.4835 34.8848L40.3246 37.5841C39.7248 38.104 38.5853 38.5239 37.8055 38.5239H34.3469C32.2277 38.5239 30.4883 40.2634 30.4883 42.3829V45.822C30.4883 46.6018 30.0685 47.7215 29.5687 48.3214L26.8697 51.5007C25.7101 52.8803 25.7101 55.1197 26.8697 56.4994L29.5687 59.6786C30.0685 60.2784 30.4883 61.3982 30.4883 62.178V65.5971C30.4883 67.7166 32.2277 69.4561 34.3469 69.4561H37.8055C38.6052 69.4561 39.7248 69.876 40.3246 70.3959L43.4835 73.1152C44.883 74.2949 47.1421 74.2949 48.5216 73.1152L51.6804 70.3959C52.2802 69.876 53.4197 69.4561 54.1994 69.4561H57.5982C59.7174 69.4561 61.4567 67.7166 61.4567 65.5971V62.198C61.4567 61.3982 61.8766 60.2784 62.3964 59.6786L65.1153 56.5194C66.2949 55.1197 66.2949 52.8603 65.1153 51.4807L62.3964 48.3214C61.8766 47.7215 61.4567 46.5818 61.4567 45.802V42.4029C61.4567 40.2834 59.7174 38.5439 57.5982 38.5439H54.1994C53.3997 38.5439 52.2802 38.124 51.6804 37.6041L48.5216 34.8848Z" fill="#313567"/>
<path d="M43.9842 59.2833C43.6508 59.2833 43.3342 59.15 43.1008 58.9167L39.0676 54.8833C38.5842 54.4 38.5842 53.6 39.0676 53.1167C39.5509 52.6333 40.3509 52.6333 40.8342 53.1167L43.9842 56.2667L51.1508 49.1C51.6342 48.6167 52.4342 48.6167 52.9175 49.1C53.4008 49.5834 53.4008 50.3834 52.9175 50.8667L44.8675 58.9167C44.6342 59.15 44.3175 59.2833 43.9842 59.2833Z" fill="#313567" stroke="#313567" stroke-width="0.5"/>
</g>
<defs>
<clipPath id="clip0_132_5">
<rect width="40" height="40" fill="white" transform="translate(26 34)"/>
</clipPath>
</defs>
</svg>
