<svg width="1800" height="895" viewBox="0 0 1800 895" fill="none" xmlns="http://www.w3.org/2000/svg">
<rect width="1800" height="895" rx="15" fill="#F5FBFF"/>
<mask id="mask0_168_3" style="mask-type:alpha" maskUnits="userSpaceOnUse" x="0" y="0" width="1800" height="895">
<rect width="1800" height="895" rx="15" fill="white"/>
</mask>
<g mask="url(#mask0_168_3)">
<path d="M71.9688 497.5C100.715 673.5 296.969 547 319.469 710L-90.0312 702L-70.0312 329C-30.8646 335.167 52.3687 377.5 71.9688 497.5Z" fill="#C4DED7"/>
<path d="M1732.71 497.5C1703.97 673.5 1507.71 547 1485.21 710L1894.71 702L1874.71 329C1835.55 335.167 1752.31 377.5 1732.71 497.5Z" fill="#C4DED7"/>
<path d="M280.499 708C293.694 743.555 235.333 719.333 212.499 718.5L124 708L106 659.5L103.999 597C151.999 597 146.806 634.205 182 659.5C217.195 684.795 262.499 659.5 280.499 708Z" fill="#ACCDC4"/>
<path d="M42 418C76.4 443.2 28.8333 486.334 19 510H-1.5C-13.5 465.334 7.60001 392.8 42 418Z" fill="#ACCDC4"/>
<path d="M1524.5 708C1511.31 743.555 1569.67 719.333 1592.5 718.5L1681 708L1699 659.5L1701 597C1653 597 1658.19 634.205 1623 659.5C1587.81 684.795 1542.5 659.5 1524.5 708Z" fill="#ACCDC4"/>
<path d="M1763 418C1728.6 443.2 1776.17 486.334 1786 510H1806.5C1818.5 465.334 1797.4 392.8 1763 418Z" fill="#ACCDC4"/>
<path d="M134.617 641.441C156.977 778.2 226.835 853.796 258.969 874.5H-65.0312L-95.0312 632.5L67.8772 417.5C90.6941 417.5 112.256 504.683 134.617 641.441Z" fill="#D0EBDD"/>
<path d="M63 582C29.1172 561.128 35.3335 516.5 44.5002 506.5L55.5002 500L112 516C124.667 583.167 139.5 662.5 145.5 695C105 687.5 125.5 620.5 63 582Z" fill="#DDF3E6"/>
<path d="M21.5004 569.5C1.90041 549.5 0.667084 508.833 2.50042 491C-7.49925 495 -14.6664 595 -17 644.5C-3.33319 660.833 29.0004 685.8 49.0004 655C74.0004 616.5 46.0004 594.5 21.5004 569.5Z" fill="#C4DED7"/>
<path d="M1670.07 641.441C1647.7 778.2 1577.85 853.796 1545.71 874.5H1869.71L1899.71 632.5L1736.8 417.5C1713.99 417.5 1692.43 504.683 1670.07 641.441Z" fill="#D0EBDD"/>
<path d="M1742 582C1775.88 561.128 1769.67 516.5 1760.5 506.5L1749.5 500L1693 516C1680.33 583.167 1665.5 662.5 1659.5 695C1700 687.5 1679.5 620.5 1742 582Z" fill="#DDF3E6"/>
<path d="M1783.5 569.5C1803.1 549.5 1804.33 508.833 1802.5 491C1812.5 495 1819.67 595 1822 644.5C1808.33 660.833 1776 685.8 1756 655C1731 616.5 1759 594.5 1783.5 569.5Z" fill="#C4DED7"/>
<path d="M1692.5 517C1693.3 507.4 1709 453.5 1728.5 421.5C1741.7 393.5 1777.5 472 1793.5 490H1789.5L1781.5 505.5L1766.5 509.5L1748 517H1728.5L1712.5 526C1706 523.833 1691.7 526.6 1692.5 517Z" fill="white"/>
<path d="M464.5 730C567.167 757.833 773.5 797.565 906 796C1070 794.063 1240.67 763.833 1341.5 737" stroke="#313567" stroke-opacity="0.91" stroke-width="2" stroke-linecap="round"/>
<path d="M136.969 692.5C201.769 698.9 337.302 707.833 396.969 711.5C431.469 713.673 463.469 711.5 469.469 729.5C475.469 747.5 369.469 763 330.969 856.5C292.469 950 -113.531 983 -130.531 969.5C-147.531 956 -98.0314 530.5 -69.0314 584.5C-40.0314 638.5 55.9686 684.5 136.969 692.5Z" fill="#E5F7EC"/>
<path d="M460.306 719.119C449.906 711.119 405.306 711.119 384.306 712.119C378.807 712.337 318.306 706.619 348.306 719.119C378.306 731.619 473.306 729.119 460.306 719.119Z" fill="#C4DED7" fill-opacity="0.65"/>
<path d="M1667.71 692.5C1602.91 698.9 1467.38 707.833 1407.71 711.5C1373.21 713.673 1341.21 711.5 1335.21 729.5C1329.21 747.5 1435.21 763 1473.71 856.5C1512.21 950 1918.21 983 1935.21 969.5C1952.21 956 1902.71 530.5 1873.71 584.5C1844.71 638.5 1748.71 684.5 1667.71 692.5Z" fill="#E5F7EC"/>
<path d="M421 689.5C428.804 690.057 426.897 714.617 430.968 712C434.154 709.952 437.864 688.02 439.83 666C440.545 658 462 656 465 647C465 642.5 441.057 652 441.057 647C441.724 628.637 441.893 616.739 435.5 620.5C427 625.5 425.5 640.5 422.5 643.5C419.5 646.5 402.5 649 392.969 666C391.575 669.09 416.028 658.275 414.616 661.5C406.019 681.137 397.428 702.222 392.968 712C401.127 713.255 415.386 689.099 421 689.5Z" fill="#DFD4FF"/>
<path d="M1383 689.5C1375.2 690.057 1377.1 714.617 1373.03 712C1369.85 709.952 1366.14 688.02 1364.17 666C1363.46 658 1342 656 1339 647C1339 642.5 1362.94 652 1362.94 647C1362.28 628.637 1362.11 616.739 1368.5 620.5C1377 625.5 1374 640.5 1381.5 643.5C1382.92 646.512 1401.5 649 1411.03 666C1412.43 669.09 1387.97 658.275 1389.38 661.5C1397.98 681.137 1406.57 702.222 1411.03 712C1402.87 713.255 1388.61 689.099 1383 689.5Z" fill="#FFB7B7"/>
<path d="M1543.54 168.682C1575.58 163.476 1603.28 153.063 1603.28 153.063C1636.18 139.613 1635.58 93.9689 1683.37 95.3573C1718.35 96.3734 1732.74 109.382 1737.43 120.878C1734.74 93.5365 1741.94 54.4034 1787.71 55.0069C1840.35 55.7011 1845.14 106.783 1840.95 132.237C1846.44 124.427 1864.25 109.415 1891.61 111.845C1918.97 114.274 1930.14 135.129 1926.67 153.063C1933.6 168.682 1953.08 176.926 2002 183C1976.02 180.448 1647.44 176.926 1447 176.926C1447 176.926 1511.5 173.889 1543.54 168.682Z" fill="white"/>
<path d="M-105.459 374.682C-73.4236 369.476 -45.7168 359.063 -45.7168 359.063C-12.8151 345.613 -13.4212 299.969 34.3729 301.357C69.3535 302.373 83.7409 315.382 88.4318 326.878C85.7414 299.537 92.9445 260.403 138.706 261.007C191.349 261.701 196.14 312.783 191.955 338.237C197.438 330.427 215.246 315.415 242.606 317.845C269.966 320.274 281.136 341.129 277.672 359.063C284.599 374.682 304.08 382.926 353 389C327.025 386.448 -1.55928 382.926 -202 382.926C-202 382.926 -137.495 379.889 -105.459 374.682Z" fill="white"/>
</g>
<circle cx="502" cy="598" r="27" fill="white"/>
<circle cx="535.5" cy="580.5" r="22.5" fill="white"/>
<circle cx="539.5" cy="611.5" r="22.5" fill="white"/>
<circle cx="568.5" cy="599.5" r="22.5" fill="white"/>
<circle cx="591" cy="584" r="16" fill="white"/>
<circle cx="598.5" cy="609.5" r="23.5" fill="white"/>
<circle cx="620" cy="589" r="17" fill="white"/>
<circle cx="629" cy="606" r="17" fill="white"/>
<path d="M471.001 629C474.501 619.5 474.833 603.667 475 598.5C484.667 605.167 504.1 625.6 496.5 624C484.5 621.474 468.3 636.329 471.001 629Z" fill="white"/>
<circle cx="27" cy="27" r="27" transform="matrix(-1 0 0 1 1347 571)" fill="white"/>
<circle cx="22.5" cy="22.5" r="22.5" transform="matrix(-1 0 0 1 1309 558)" fill="white"/>
<circle cx="22.5" cy="22.5" r="22.5" transform="matrix(-1 0 0 1 1305 589)" fill="white"/>
<circle cx="22.5" cy="22.5" r="22.5" transform="matrix(-1 0 0 1 1276 577)" fill="white"/>
<path d="M1351 629C1347.5 619.5 1347.17 603.667 1347 598.5C1337.33 605.167 1317.9 625.6 1325.5 624C1337.5 621.474 1353.7 636.329 1351 629Z" fill="white"/>
<path d="M1347.5 719C1357.9 711 1402.5 711 1423.5 712C1429 712.218 1489.5 706.5 1459.5 719C1429.5 731.5 1334.5 729 1347.5 719Z" fill="#C4DED7" fill-opacity="0.65"/>
<path d="M1363.5 631.5C1363.33 631.667 1363 632.2 1363 633C1363 633.8 1364 633.667 1364.5 633.5M1367.5 627C1367 627.5 1367 628.1 1367 628.5M1363.5 627C1363 627.5 1363 628.1 1363 628.5" stroke="#313567" stroke-width="1.5" stroke-linecap="round" stroke-linejoin="round"/>
<path d="M1478.17 374.168C1480.5 373.184 1482.9 372.471 1485.45 372.471" stroke="#AFAFAF" stroke-width="1.5" stroke-linecap="round" stroke-linejoin="round"/>
<path d="M1497.5 674.5C1503.83 654.333 1537.3 613.1 1620.5 609.5M1727.5 424C1716.17 436.833 1699.5 482.5 1694 525.5M1748.5 432L1797.5 497M1420.5 711C1426.67 710.722 1433.37 710.405 1440.5 710.05M1783 659.5C1781.24 660.334 1778.09 661.689 1773.5 663.514M1335.5 730C1335.17 732.5 1338.7 739.5 1355.5 747.5C1376.5 757.5 1455 796 1470.5 849M1358 715C1374.67 714 1408.9 712 1412.5 712M1379.41 716.913L1398.91 715.5M1414.5 714.638L1409.5 715M1365.5 721L1389 719.5M1392.5 719.5L1400 719M1561.5 633.5C1573 625.5 1594 622.5 1608 622.5M1689.5 546C1681.17 585.667 1664.4 666.9 1664 674.5M1767 666.041C1755.52 670.413 1738.32 676.538 1715 684C1705.06 687.18 1686.91 690.22 1664 693.05M1561.5 702.608C1549.83 703.475 1538.09 704.294 1526.5 705.062M1575 701.5C1578.68 701.216 1579.85 701.203 1583.5 700.91M1450.5 709.543C1467.99 708.637 1487.57 707.532 1508 706.253M1655.5 694.066C1643.89 695.409 1631.26 696.701 1618 697.934M1589 700.463C1596.28 699.866 1603.47 699.251 1610.5 698.619M1405.92 715L1402.92 715.217" stroke="#313567" stroke-width="1.5" stroke-linecap="round" stroke-linejoin="round"/>
<path d="M1719.5 523.5L1723.5 516.5L1730.5 521.5M1755.5 514L1746.5 511L1741.5 518.5L1733.5 514M1776 505.5L1767.5 502L1766.5 511L1756.5 506.5M1790 492.5L1783 488V497.5L1774 494M1697.5 523.5L1702 518.5L1708 523.5L1712 516.5" stroke="#313567" stroke-width="1.5" stroke-linecap="round" stroke-linejoin="round"/>
<path d="M1696.5 554L1687 603.5M1684.5 615.5L1681 632M1611 617.5C1616.17 616 1625.5 615 1637.5 615" stroke="#313567" stroke-width="1.5" stroke-linecap="round" stroke-linejoin="round"/>
<path d="M1540 727.5L1537.5 722.5M1542 727.5L1540.5 717M1544.5 727.5C1544.5 726 1544.5 721.5 1545.5 721" stroke="#313567" stroke-width="1.5" stroke-linecap="round" stroke-linejoin="round"/>
<path d="M1490.62 743.548L1487.5 737.357M1493.12 743.548L1491.25 730.548M1496.25 743.548C1496.25 741.69 1496.25 736.119 1497.5 735.5" stroke="#313567" stroke-width="1.5" stroke-linecap="round" stroke-linejoin="round"/>
<path d="M1608.81 734L1606 728.286M1611.06 734L1609.38 722M1613.88 734C1613.88 732.286 1613.88 727.143 1615 726.571" stroke="#313567" stroke-width="1.5" stroke-linecap="round" stroke-linejoin="round"/>
<path d="M1419.56 734L1418 730.667M1420.81 734L1419.88 727M1422.38 734C1422.38 733 1422.38 730 1423 729.667" stroke="#313567" stroke-width="1.5" stroke-linecap="round" stroke-linejoin="round"/>
<path d="M1342.56 722L1341 718.667M1343.81 722L1342.88 715M1345.38 722C1345.38 721 1345.38 718 1346 717.667" stroke="#313567" stroke-width="1.5" stroke-linecap="round" stroke-linejoin="round"/>
<path d="M1658.56 710L1657 706.667M1659.81 710L1658.88 703M1661.38 710C1661.38 709 1661.38 706 1662 705.667" stroke="#313567" stroke-width="1.5" stroke-linecap="round" stroke-linejoin="round"/>
<path d="M1612.56 699L1611 695.667M1613.81 699L1612.88 692M1615.38 699C1615.38 698 1615.38 695 1616 694.667" stroke="#313567" stroke-width="1.5" stroke-linecap="round" stroke-linejoin="round"/>
<path d="M1519.56 706L1518 702.667M1520.81 706L1519.88 699M1522.38 706C1522.38 705 1522.38 702 1523 701.667" stroke="#313567" stroke-width="1.5" stroke-linecap="round" stroke-linejoin="round"/>
<path d="M1462.56 722L1461 718.667M1463.81 722L1462.88 715M1465.38 722C1465.38 721 1465.38 718 1466 717.667" stroke="#313567" stroke-width="1.5" stroke-linecap="round" stroke-linejoin="round"/>
<path d="M1367 620C1369.5 620.333 1375.1 623.3 1377.5 632.5C1379.9 641.7 1384.17 643.667 1386 643.5M1398.5 654C1403.17 657 1412.2 663.7 1411 666.5C1409.8 669.3 1401.5 664.667 1400 663.5M1377.5 677C1381.83 684.333 1393.4 700.9 1405 708.5" stroke="#313567" stroke-width="1.5" stroke-linecap="round" stroke-linejoin="round"/>
<path d="M1349.35 647.041C1345.5 645.5 1344.19 645.329 1343 645.5C1341.5 645.716 1342.16 647.401 1343.48 648.389C1341.86 647.613 1338.55 646.372 1338.32 647.616C1338.04 649.172 1343.28 653.976 1351.13 655.878" stroke="#313567" stroke-width="1.5" stroke-linecap="round" stroke-linejoin="round"/>
<path d="M114 515.475C113.2 505.875 97.4995 451.975 78.0001 419.975C64.8001 391.975 29.0003 470.475 13.0003 488.475H17.0003L25.0003 503.975L40 507.975L58.4997 515.475H78.0001L94.0001 524.475C100.5 522.309 114.8 525.075 114 515.475Z" fill="white"/>
<path d="M496.781 592.938C496.969 592.75 497.188 592.656 497.438 592.656C497.979 592.719 498.479 592.885 498.938 593.156C499.417 593.406 499.833 593.719 500.188 594.094C500.542 594.448 500.823 594.854 501.031 595.312C501.24 595.75 501.344 596.188 501.344 596.625C501.344 597.292 501.219 597.885 500.969 598.406C500.719 598.927 500.396 599.365 500 599.719C499.604 600.073 499.156 600.344 498.656 600.531C498.156 600.698 497.667 600.781 497.188 600.781C496.667 600.781 496.156 600.688 495.656 600.5C495.156 600.312 494.708 600.052 494.312 599.719C493.938 599.365 493.625 598.948 493.375 598.469C493.146 597.99 493.031 597.458 493.031 596.875C493.031 596.521 493.073 596.146 493.156 595.75C493.26 595.354 493.417 594.969 493.625 594.594C493.833 594.219 494.094 593.885 494.406 593.594C494.74 593.281 495.125 593.031 495.562 592.844C495.667 592.802 495.812 592.781 496 592.781C496.25 592.781 496.51 592.833 496.781 592.938ZM496.844 594.656C496.385 594.969 496.042 595.292 495.812 595.625C495.604 595.958 495.5 596.406 495.5 596.969C495.5 597.385 495.667 597.76 496 598.094C496.333 598.427 496.812 598.594 497.438 598.594C497.583 598.594 497.74 598.552 497.906 598.469C498.073 598.365 498.229 598.24 498.375 598.094C498.521 597.927 498.646 597.75 498.75 597.562C498.854 597.354 498.906 597.135 498.906 596.906C498.906 596.24 498.729 595.74 498.375 595.406C498.021 595.073 497.51 594.823 496.844 594.656ZM507.5 587.719C507.354 587.552 507.281 587.354 507.281 587.125C507.281 586.812 507.427 586.552 507.719 586.344C508.031 586.135 508.333 586.031 508.625 586.031C508.896 586.031 509.177 586.167 509.469 586.438C509.781 586.708 510.073 587.042 510.344 587.438C510.615 587.812 510.865 588.208 511.094 588.625C511.323 589.042 511.5 589.385 511.625 589.656C511.646 590.031 511.667 590.406 511.688 590.781C511.729 591.156 511.76 591.521 511.781 591.875C512.385 591.896 513 591.906 513.625 591.906C514.25 591.906 514.875 591.906 515.5 591.906C515.75 591.948 515.927 592.052 516.031 592.219C516.135 592.365 516.188 592.531 516.188 592.719C516.188 593.115 516.083 593.417 515.875 593.625C515.688 593.812 515.438 593.948 515.125 594.031C514.833 594.094 514.521 594.125 514.188 594.125C513.875 594.125 513.594 594.125 513.344 594.125C513.094 594.125 512.844 594.135 512.594 594.156C512.365 594.156 512.125 594.156 511.875 594.156V595.688C511.875 596.688 511.854 597.635 511.812 598.531C511.792 599.427 511.729 600.281 511.625 601.094C511.562 601.49 511.396 601.771 511.125 601.938C510.854 602.083 510.562 602.156 510.25 602.156C509.958 602.156 509.698 602.083 509.469 601.938C509.24 601.792 509.125 601.573 509.125 601.281C509.125 600.198 509.177 599.073 509.281 597.906C509.385 596.74 509.438 595.521 509.438 594.25C509.438 593.521 509.417 592.823 509.375 592.156C509.333 591.469 509.271 590.802 509.188 590.156C508.958 589.76 508.688 589.375 508.375 589C508.062 588.604 507.771 588.177 507.5 587.719ZM501.438 604.719C501.438 604.365 501.562 604.104 501.812 603.938C502.062 603.771 502.333 603.688 502.625 603.688C503 603.688 503.271 603.812 503.438 604.062C503.604 604.312 503.719 604.604 503.781 604.938C503.844 605.271 503.865 605.604 503.844 605.938C503.844 606.271 503.844 606.521 503.844 606.688C503.865 607.167 503.938 607.76 504.062 608.469C504.542 608.573 505.177 608.656 505.969 608.719C506.76 608.76 507.542 608.781 508.312 608.781C508.729 608.781 509.115 608.76 509.469 608.719C509.844 608.677 510.198 608.656 510.531 608.656C510.823 608.656 511.042 608.771 511.188 609C511.333 609.229 511.406 609.49 511.406 609.781C511.406 610.156 511.281 610.427 511.031 610.594C510.781 610.76 510.469 610.875 510.094 610.938C509.74 611 509.344 611.021 508.906 611C508.49 611 508.104 611 507.75 611C506.938 611 506.177 610.99 505.469 610.969C504.76 610.969 504.135 610.906 503.594 610.781C503.073 610.677 502.646 610.479 502.312 610.188C501.979 609.896 501.792 609.469 501.75 608.906C501.708 608.49 501.667 608.125 501.625 607.812C501.583 607.479 501.542 607.167 501.5 606.875C501.479 606.562 501.458 606.24 501.438 605.906C501.438 605.573 501.438 605.177 501.438 604.719ZM520.5 592.719C520.5 592.365 520.625 592.104 520.875 591.938C521.125 591.771 521.396 591.688 521.688 591.688C522.062 591.688 522.333 591.812 522.5 592.062C522.688 592.312 522.802 592.625 522.844 593C522.906 593.375 522.927 593.792 522.906 594.25C522.885 594.688 522.885 595.094 522.906 595.469C522.927 595.927 522.948 596.375 522.969 596.812C523.01 597.25 523.062 597.656 523.125 598.031C523.542 598.115 524.031 598.177 524.594 598.219C525.156 598.26 525.74 598.281 526.344 598.281C526.74 598.281 527.135 598.26 527.531 598.219C527.927 598.177 528.312 598.156 528.688 598.156C528.979 598.156 529.188 598.271 529.312 598.5C529.458 598.708 529.531 598.958 529.531 599.25C529.531 599.479 529.479 599.698 529.375 599.906C529.271 600.094 529.104 600.219 528.875 600.281C528.25 600.365 527.635 600.427 527.031 600.469C526.448 600.49 525.875 600.5 525.312 600.5C524.75 600.5 524.198 600.49 523.656 600.469C523.135 600.448 522.667 600.375 522.25 600.25C521.854 600.125 521.521 599.927 521.25 599.656C521 599.365 520.854 598.969 520.812 598.469C520.729 597.594 520.646 596.646 520.562 595.625C520.5 594.583 520.479 593.615 520.5 592.719ZM536.625 589.531V589.375C536.625 589.062 536.75 588.812 537 588.625C537.25 588.417 537.531 588.312 537.844 588.312C538.24 588.312 538.531 588.438 538.719 588.688C538.906 588.917 539.021 589.208 539.062 589.562C539.125 589.917 539.146 590.312 539.125 590.75C539.104 591.167 539.094 591.562 539.094 591.938C539.094 593.792 539.062 595.594 539 597.344C538.938 599.073 538.854 600.573 538.75 601.844C538.708 602.24 538.552 602.521 538.281 602.688C538.031 602.833 537.76 602.906 537.469 602.906C537.156 602.906 536.896 602.823 536.688 602.656C536.479 602.469 536.375 602.219 536.375 601.906C536.375 601.51 536.396 601.052 536.438 600.531C536.5 600.01 536.531 599.458 536.531 598.875C536.177 598.917 535.781 598.969 535.344 599.031C534.927 599.073 534.51 599.115 534.094 599.156C533.698 599.177 533.323 599.198 532.969 599.219C532.615 599.24 532.312 599.25 532.062 599.25C531.75 599.25 531.51 599.115 531.344 598.844C531.177 598.573 531.094 598.292 531.094 598C531.094 597.646 531.292 597.385 531.688 597.219C532.104 597.031 532.594 596.906 533.156 596.844C533.74 596.76 534.344 596.719 534.969 596.719C535.615 596.698 536.167 596.656 536.625 596.594C536.625 596.177 536.625 595.729 536.625 595.25C536.646 594.771 536.677 594.292 536.719 593.812C536.344 593.854 535.906 593.906 535.406 593.969C534.927 594.01 534.438 594.052 533.938 594.094C533.438 594.135 532.958 594.177 532.5 594.219C532.062 594.24 531.708 594.25 531.438 594.25C531.125 594.25 530.885 594.115 530.719 593.844C530.552 593.573 530.469 593.292 530.469 593C530.469 592.771 530.531 592.562 530.656 592.375C530.802 592.188 531.021 592.073 531.312 592.031C532.062 591.927 532.917 591.833 533.875 591.75C534.833 591.646 535.781 591.562 536.719 591.5C536.698 591.125 536.677 590.781 536.656 590.469C536.635 590.135 536.625 589.823 536.625 589.531ZM530.844 604.594C531.01 604.427 531.229 604.344 531.5 604.344C531.958 604.406 532.406 604.573 532.844 604.844C533.302 605.094 533.708 605.406 534.062 605.781C534.417 606.135 534.708 606.531 534.938 606.969C535.167 607.385 535.281 607.812 535.281 608.25C535.281 608.917 535.156 609.5 534.906 610C534.677 610.479 534.365 610.875 533.969 611.188C533.573 611.521 533.135 611.76 532.656 611.906C532.177 612.073 531.708 612.156 531.25 612.156C530.792 612.156 530.312 612.073 529.812 611.906C529.333 611.76 528.896 611.542 528.5 611.25C528.104 610.958 527.781 610.583 527.531 610.125C527.281 609.688 527.156 609.177 527.156 608.594C527.156 608.219 527.24 607.792 527.406 607.312C527.594 606.812 527.823 606.354 528.094 605.938C528.385 605.5 528.708 605.135 529.062 604.844C529.417 604.552 529.781 604.406 530.156 604.406C530.385 604.406 530.615 604.469 530.844 604.594ZM530.844 606.375C530.406 606.688 530.094 606.99 529.906 607.281C529.719 607.552 529.625 607.969 529.625 608.531C529.625 608.948 529.781 609.292 530.094 609.562C530.406 609.833 530.875 609.969 531.5 609.969C531.792 609.969 532.083 609.833 532.375 609.562C532.667 609.292 532.812 608.917 532.812 608.438C532.812 608.104 532.76 607.844 532.656 607.656C532.573 607.448 532.438 607.281 532.25 607.156C532.083 607.01 531.875 606.885 531.625 606.781C531.396 606.677 531.135 606.542 530.844 606.375ZM548.062 593.844C548.062 593.615 548.188 593.427 548.438 593.281C548.708 593.115 548.99 593.031 549.281 593.031C549.531 593.031 549.76 593.083 549.969 593.188C550.177 593.271 550.312 593.427 550.375 593.656C550.438 594.281 550.469 594.979 550.469 595.75C550.49 596.5 550.5 597.25 550.5 598C551.146 598 551.781 597.979 552.406 597.938C553.031 597.875 553.625 597.802 554.188 597.719C554.417 597.719 554.594 597.854 554.719 598.125C554.865 598.396 554.938 598.677 554.938 598.969C554.938 599.198 554.875 599.417 554.75 599.625C554.625 599.812 554.417 599.927 554.125 599.969C553.729 600.031 553.24 600.094 552.656 600.156C552.073 600.198 551.438 600.24 550.75 600.281C550.083 600.323 549.396 600.354 548.688 600.375C547.979 600.396 547.312 600.406 546.688 600.406C546.021 600.406 545.469 600.396 545.031 600.375C544.615 600.333 544.271 600.271 544 600.188C543.75 600.083 543.573 599.958 543.469 599.812C543.365 599.646 543.312 599.427 543.312 599.156C543.312 598.844 543.396 598.583 543.562 598.375C543.75 598.146 543.979 598.031 544.25 598.031C544.583 598.031 544.938 598.042 545.312 598.062C545.688 598.083 546.083 598.094 546.5 598.094H548.188C548.188 597.344 548.167 596.573 548.125 595.781C548.083 594.99 548.062 594.344 548.062 593.844ZM548.719 602.625C548.948 602.354 549.229 602.219 549.562 602.219C550 602.219 550.427 602.323 550.844 602.531C551.26 602.719 551.625 602.969 551.938 603.281C552.271 603.594 552.531 603.958 552.719 604.375C552.906 604.792 553 605.219 553 605.656C553 606.385 552.854 606.99 552.562 607.469C552.292 607.948 551.948 608.333 551.531 608.625C551.115 608.896 550.677 609.083 550.219 609.188C549.76 609.292 549.354 609.344 549 609.344C548.542 609.344 548.094 609.271 547.656 609.125C547.219 608.979 546.833 608.76 546.5 608.469C546.167 608.177 545.896 607.823 545.688 607.406C545.5 606.969 545.406 606.458 545.406 605.875C545.406 605.188 545.604 604.521 546 603.875C546.396 603.229 546.958 602.74 547.688 602.406C547.729 602.385 547.771 602.375 547.812 602.375C547.854 602.354 547.906 602.344 547.969 602.344C548.073 602.344 548.188 602.375 548.312 602.438C548.438 602.479 548.573 602.542 548.719 602.625ZM548.969 604.188C548.76 604.312 548.583 604.427 548.438 604.531C548.312 604.635 548.208 604.75 548.125 604.875C548.042 604.979 547.979 605.115 547.938 605.281C547.896 605.427 547.875 605.635 547.875 605.906C547.875 606.281 547.969 606.594 548.156 606.844C548.365 607.073 548.677 607.188 549.094 607.188C549.198 607.188 549.333 607.177 549.5 607.156C549.667 607.115 549.833 607.052 550 606.969C550.167 606.865 550.302 606.719 550.406 606.531C550.531 606.344 550.594 606.104 550.594 605.812C550.594 605.479 550.542 605.219 550.438 605.031C550.333 604.823 550.198 604.667 550.031 604.562C549.885 604.458 549.708 604.385 549.5 604.344C549.312 604.281 549.135 604.229 548.969 604.188ZM557.688 594.781C557.521 594.573 557.438 594.385 557.438 594.219C557.438 593.948 557.562 593.708 557.812 593.5C558.083 593.271 558.385 593.156 558.719 593.156C559.094 593.156 559.417 593.302 559.688 593.594L560.812 595.156C561.125 595.594 561.365 596.052 561.531 596.531C561.698 596.99 561.812 597.469 561.875 597.969C561.938 598.448 561.979 598.938 562 599.438C562.021 599.917 562.052 600.396 562.094 600.875C562.865 600.896 563.667 600.906 564.5 600.906C565.333 600.906 566.062 600.906 566.688 600.906C566.938 600.948 567.115 601.052 567.219 601.219C567.344 601.385 567.406 601.573 567.406 601.781C567.406 602.135 567.292 602.469 567.062 602.781C566.833 603.073 566.542 603.219 566.188 603.219C565.521 603.219 564.833 603.229 564.125 603.25C563.438 603.271 562.76 603.281 562.094 603.281C562.073 604.219 562.01 605.125 561.906 606C561.823 606.875 561.708 607.719 561.562 608.531C561.5 608.927 561.323 609.208 561.031 609.375C560.76 609.521 560.479 609.594 560.188 609.594C559.896 609.594 559.646 609.531 559.438 609.406C559.25 609.26 559.156 609.052 559.156 608.781C559.156 608.698 559.167 608.635 559.188 608.594C559.375 607.656 559.51 606.656 559.594 605.594C559.677 604.51 559.719 603.458 559.719 602.438C559.719 601.375 559.677 600.396 559.594 599.5C559.531 598.604 559.438 597.844 559.312 597.219C559.125 596.844 558.885 596.458 558.594 596.062C558.323 595.646 558.021 595.219 557.688 594.781ZM574.656 602.156C575.219 602.802 575.875 603.344 576.625 603.781C577.396 604.219 578.292 604.594 579.312 604.906C579.562 604.99 579.74 605.125 579.844 605.312C579.948 605.479 580 605.646 580 605.812C580 606.062 579.896 606.302 579.688 606.531C579.479 606.76 579.229 606.875 578.938 606.875C578.479 606.875 578.01 606.802 577.531 606.656C577.052 606.49 576.583 606.292 576.125 606.062C575.667 605.812 575.229 605.542 574.812 605.25C574.417 604.938 574.062 604.635 573.75 604.344C573.604 604.594 573.396 604.906 573.125 605.281C572.854 605.635 572.552 605.99 572.219 606.344C571.885 606.677 571.531 606.969 571.156 607.219C570.802 607.469 570.458 607.594 570.125 607.594C569.812 607.594 569.552 607.49 569.344 607.281C569.135 607.073 569.031 606.823 569.031 606.531C569.031 606.198 569.167 605.927 569.438 605.719C570.125 605.156 570.677 604.615 571.094 604.094C571.531 603.573 571.865 603.042 572.094 602.5C572.344 601.938 572.51 601.333 572.594 600.688C572.698 600.042 572.75 599.302 572.75 598.469C572.75 598.094 572.865 597.823 573.094 597.656C573.323 597.49 573.583 597.406 573.875 597.406C574.167 597.406 574.438 597.521 574.688 597.75C574.938 597.958 575.062 598.24 575.062 598.594C575.062 599.135 575.031 599.708 574.969 600.312C574.927 600.917 574.823 601.531 574.656 602.156ZM581 593.406C580.854 593.24 580.781 593.042 580.781 592.812C580.781 592.521 580.906 592.25 581.156 592C581.406 591.75 581.708 591.625 582.062 591.625C582.375 591.625 582.677 591.76 582.969 592.031C583.26 592.281 583.531 592.615 583.781 593.031C584.031 593.427 584.25 593.865 584.438 594.344C584.646 594.802 584.812 595.24 584.938 595.656C585.083 596.135 585.198 596.719 585.281 597.406C585.385 598.073 585.458 598.792 585.5 599.562C585.562 600.312 585.604 601.094 585.625 601.906C585.646 602.719 585.656 603.5 585.656 604.25C585.656 604.792 585.656 605.323 585.656 605.844C585.677 606.344 585.656 606.802 585.594 607.219C585.531 607.635 585.396 607.969 585.188 608.219C585 608.469 584.708 608.594 584.312 608.594C584 608.594 583.729 608.521 583.5 608.375C583.292 608.208 583.188 607.969 583.188 607.656C583.188 607.052 583.188 606.427 583.188 605.781C583.208 605.135 583.219 604.479 583.219 603.812C583.219 603.396 583.219 602.979 583.219 602.562C583.219 602.125 583.208 601.698 583.188 601.281C582.792 601.344 582.365 601.417 581.906 601.5C581.469 601.562 581.031 601.625 580.594 601.688C580.156 601.75 579.75 601.802 579.375 601.844C579.021 601.865 578.729 601.875 578.5 601.875C578.188 601.875 577.948 601.75 577.781 601.5C577.615 601.229 577.531 600.948 577.531 600.656C577.531 600.448 577.594 600.25 577.719 600.062C577.865 599.875 578.083 599.76 578.375 599.719L580.594 599.438C580.99 599.396 581.385 599.354 581.781 599.312C582.198 599.25 582.615 599.188 583.031 599.125C582.969 598.604 582.906 598.135 582.844 597.719C582.781 597.281 582.677 596.854 582.531 596.438C582.406 596 582.219 595.542 581.969 595.062C581.74 594.583 581.417 594.031 581 593.406ZM588.062 593.719C588 593.573 587.969 593.427 587.969 593.281C587.969 592.948 588.083 592.677 588.312 592.469C588.562 592.24 588.844 592.125 589.156 592.125C589.594 592.125 589.948 592.333 590.219 592.75C590.51 593.167 590.74 593.646 590.906 594.188C591.073 594.708 591.188 595.208 591.25 595.688C591.312 596.146 591.354 596.427 591.375 596.531C591.479 597.198 591.542 597.969 591.562 598.844C591.604 599.698 591.625 600.594 591.625 601.531C591.625 602.469 591.573 603.406 591.469 604.344C591.365 605.26 591.25 606.115 591.125 606.906C591.021 607.302 590.823 607.562 590.531 607.688C590.26 607.812 589.979 607.875 589.688 607.875C589.417 607.833 589.188 607.74 589 607.594C588.812 607.448 588.719 607.24 588.719 606.969C588.719 606.885 588.729 606.823 588.75 606.781C589 605.26 589.125 603.688 589.125 602.062C589.125 601.188 589.125 600.406 589.125 599.719C589.146 599.031 589.125 598.375 589.062 597.75C589.021 597.125 588.917 596.5 588.75 595.875C588.604 595.229 588.375 594.51 588.062 593.719ZM605.844 593.125C606.031 592.938 606.25 592.844 606.5 592.844C607.042 592.906 607.542 593.073 608 593.344C608.479 593.594 608.896 593.906 609.25 594.281C609.604 594.635 609.885 595.042 610.094 595.5C610.302 595.938 610.406 596.375 610.406 596.812C610.406 597.479 610.281 598.073 610.031 598.594C609.781 599.115 609.458 599.552 609.062 599.906C608.667 600.26 608.219 600.531 607.719 600.719C607.219 600.885 606.729 600.969 606.25 600.969C605.729 600.969 605.219 600.875 604.719 600.688C604.219 600.5 603.771 600.24 603.375 599.906C603 599.552 602.688 599.135 602.438 598.656C602.208 598.177 602.094 597.646 602.094 597.062C602.094 596.708 602.135 596.333 602.219 595.938C602.323 595.542 602.479 595.156 602.688 594.781C602.896 594.406 603.156 594.073 603.469 593.781C603.802 593.469 604.188 593.219 604.625 593.031C604.729 592.99 604.875 592.969 605.062 592.969C605.312 592.969 605.573 593.021 605.844 593.125ZM605.906 594.844C605.448 595.156 605.104 595.479 604.875 595.812C604.667 596.146 604.562 596.594 604.562 597.156C604.562 597.573 604.729 597.948 605.062 598.281C605.396 598.615 605.875 598.781 606.5 598.781C606.646 598.781 606.802 598.74 606.969 598.656C607.135 598.552 607.292 598.427 607.438 598.281C607.583 598.115 607.708 597.938 607.812 597.75C607.917 597.542 607.969 597.323 607.969 597.094C607.969 596.427 607.792 595.927 607.438 595.594C607.083 595.26 606.573 595.01 605.906 594.844ZM597.938 607.281C598.438 607.344 599.01 607.406 599.656 607.469C600.302 607.531 600.979 607.573 601.688 607.594C601.688 607.219 601.677 606.823 601.656 606.406C601.656 605.99 601.646 605.573 601.625 605.156C601.604 604.719 601.583 604.312 601.562 603.938C601.562 603.562 601.562 603.229 601.562 602.938C601.562 602.729 601.688 602.573 601.938 602.469C602.188 602.344 602.458 602.281 602.75 602.281C603.146 602.281 603.438 602.375 603.625 602.562C603.812 602.75 603.938 602.99 604 603.281C604.062 603.552 604.083 603.865 604.062 604.219C604.042 604.573 604.031 604.906 604.031 605.219C604.031 605.615 604.042 606.031 604.062 606.469C604.083 606.885 604.083 607.292 604.062 607.688C604.417 607.729 604.781 607.75 605.156 607.75C605.531 607.75 605.917 607.75 606.312 607.75C606.688 607.75 607.062 607.75 607.438 607.75C607.812 607.75 608.198 607.729 608.594 607.688C608.594 607.312 608.583 606.917 608.562 606.5C608.562 606.083 608.552 605.667 608.531 605.25C608.531 604.833 608.521 604.438 608.5 604.062C608.5 603.688 608.5 603.365 608.5 603.094C608.5 602.865 608.625 602.677 608.875 602.531C609.146 602.365 609.427 602.281 609.719 602.281C610.094 602.281 610.365 602.375 610.531 602.562C610.698 602.75 610.802 602.99 610.844 603.281C610.906 603.573 610.927 603.885 610.906 604.219C610.906 604.552 610.906 604.865 610.906 605.156C610.906 605.552 610.917 605.958 610.938 606.375C610.958 606.792 610.958 607.198 610.938 607.594C611.812 607.594 612.688 607.531 613.562 607.406C613.833 607.177 614.104 607.01 614.375 606.906C614.667 606.802 615 606.677 615.375 606.531C615.646 606.594 615.865 606.792 616.031 607.125C616.198 607.438 616.281 607.75 616.281 608.062C616.281 608.375 616.208 608.656 616.062 608.906C615.917 609.156 615.688 609.302 615.375 609.344C613.938 609.573 612.438 609.75 610.875 609.875C609.333 609.979 607.781 610.031 606.219 610.031C604.656 610.031 603.156 610 601.719 609.938C600.281 609.875 599 609.76 597.875 609.594C597.479 609.552 597.208 609.396 597.062 609.125C596.938 608.854 596.875 608.583 596.875 608.312C596.875 608.042 596.969 607.802 597.156 607.594C597.344 607.385 597.604 607.281 597.938 607.281ZM624.312 606.594C624.583 606.594 624.958 606.615 625.438 606.656C625.917 606.698 626.385 606.833 626.844 607.062C627.302 607.271 627.698 607.604 628.031 608.062C628.365 608.521 628.531 609.156 628.531 609.969C628.531 610.719 628.271 611.385 627.75 611.969C627.229 612.573 626.5 612.875 625.562 612.875C625.125 612.875 624.719 612.781 624.344 612.594C623.969 612.406 623.646 612.167 623.375 611.875C623.104 611.604 622.885 611.292 622.719 610.938C622.573 610.604 622.5 610.281 622.5 609.969C622.521 609.677 622.573 609.396 622.656 609.125C622.74 608.854 622.896 608.635 623.125 608.469L623.5 608.219C623.396 608.073 623.344 607.917 623.344 607.75C623.344 607.438 623.427 607.177 623.594 606.969C623.781 606.74 624.021 606.615 624.312 606.594ZM624.938 608.594C624.979 608.656 625 608.75 625 608.875C625 609.042 624.927 609.24 624.781 609.469C624.635 609.698 624.562 609.875 624.562 610C624.562 610.229 624.656 610.417 624.844 610.562C625.052 610.729 625.26 610.812 625.469 610.812C625.885 610.812 626.167 610.708 626.312 610.5C626.479 610.292 626.562 610.115 626.562 609.969C626.562 609.656 626.51 609.406 626.406 609.219C626.323 609.031 626.198 608.896 626.031 608.812C625.885 608.708 625.708 608.646 625.5 608.625C625.312 608.604 625.125 608.594 624.938 608.594ZM624.25 591.594V591.5C624.25 591.271 624.375 591.094 624.625 590.969C624.875 590.823 625.167 590.75 625.5 590.75C625.792 590.75 626.083 590.802 626.375 590.906C626.667 591.01 626.896 591.177 627.062 591.406C627.062 591.698 627.042 591.948 627 592.156C626.979 592.365 626.958 592.542 626.938 592.688L626.688 593.594C626.75 594.24 626.802 594.771 626.844 595.188C626.906 595.604 626.958 596 627 596.375C627.042 596.729 627.073 597.104 627.094 597.5C627.115 597.896 627.125 598.396 627.125 599C627.125 599.688 627.104 600.375 627.062 601.062C627.021 601.75 626.938 602.375 626.812 602.938C626.708 603.479 626.542 603.927 626.312 604.281C626.104 604.615 625.823 604.781 625.469 604.781C625.177 604.781 624.917 604.698 624.688 604.531C624.458 604.344 624.344 604.135 624.344 603.906C624.344 603.823 624.354 603.76 624.375 603.719C624.542 603.156 624.646 602.635 624.688 602.156C624.729 601.677 624.75 601.229 624.75 600.812C624.75 599.667 624.729 598.75 624.688 598.062C624.667 597.354 624.635 596.708 624.594 596.125C624.552 595.521 624.5 594.896 624.438 594.25C624.375 593.583 624.312 592.698 624.25 591.594Z" fill="#313567"/>
<path d="M1262.34 593.969C1262.51 593.802 1262.73 593.719 1263 593.719C1263.46 593.781 1263.91 593.948 1264.34 594.219C1264.8 594.469 1265.21 594.781 1265.56 595.156C1265.92 595.51 1266.21 595.906 1266.44 596.344C1266.67 596.76 1266.78 597.188 1266.78 597.625C1266.78 598.292 1266.66 598.875 1266.41 599.375C1266.18 599.854 1265.86 600.26 1265.47 600.594C1265.07 600.906 1264.64 601.146 1264.16 601.312C1263.68 601.458 1263.21 601.531 1262.75 601.531C1262.29 601.531 1261.81 601.458 1261.31 601.312C1260.83 601.146 1260.4 600.917 1260 600.625C1259.6 600.333 1259.28 599.969 1259.03 599.531C1258.78 599.073 1258.66 598.552 1258.66 597.969C1258.66 597.594 1258.74 597.167 1258.91 596.688C1259.09 596.188 1259.32 595.729 1259.59 595.312C1259.89 594.875 1260.21 594.51 1260.56 594.219C1260.92 593.927 1261.28 593.781 1261.66 593.781C1261.89 593.781 1262.11 593.844 1262.34 593.969ZM1262.34 595.75C1261.91 596.062 1261.59 596.365 1261.41 596.656C1261.22 596.927 1261.12 597.344 1261.12 597.906C1261.12 598.323 1261.28 598.667 1261.59 598.938C1261.91 599.208 1262.38 599.344 1263 599.344C1263.29 599.344 1263.58 599.208 1263.88 598.938C1264.17 598.667 1264.31 598.292 1264.31 597.812C1264.31 597.479 1264.26 597.219 1264.16 597.031C1264.07 596.823 1263.94 596.656 1263.75 596.531C1263.58 596.385 1263.38 596.26 1263.12 596.156C1262.9 596.052 1262.64 595.917 1262.34 595.75ZM1274.06 590.469C1273.94 590.281 1273.88 590.094 1273.88 589.906C1273.88 589.594 1274 589.312 1274.25 589.062C1274.52 588.792 1274.84 588.656 1275.22 588.656C1275.51 588.656 1275.8 588.792 1276.09 589.062C1276.39 589.312 1276.66 589.646 1276.91 590.062C1277.16 590.458 1277.38 590.896 1277.56 591.375C1277.77 591.833 1277.94 592.26 1278.06 592.656C1278.21 593.198 1278.33 593.844 1278.44 594.594C1278.56 595.344 1278.66 596.135 1278.72 596.969C1278.8 597.781 1278.85 598.615 1278.88 599.469C1278.92 600.302 1278.94 601.094 1278.94 601.844C1278.94 602.26 1278.94 602.656 1278.94 603.031C1278.94 603.406 1278.9 603.74 1278.81 604.031C1278.73 604.323 1278.59 604.552 1278.41 604.719C1278.24 604.885 1277.98 604.969 1277.62 604.969C1277.31 604.969 1277.04 604.896 1276.81 604.75C1276.6 604.583 1276.5 604.344 1276.5 604.031V602.125C1276.5 601.271 1276.49 600.417 1276.47 599.562C1276.45 598.708 1276.4 597.875 1276.31 597.062C1275.92 597.083 1275.47 597.125 1274.97 597.188C1274.47 597.229 1273.96 597.292 1273.44 597.375C1272.94 597.458 1272.45 597.552 1271.97 597.656C1271.51 597.74 1271.1 597.823 1270.75 597.906C1270.69 597.927 1270.6 597.938 1270.5 597.938C1270.19 597.938 1269.94 597.802 1269.75 597.531C1269.58 597.26 1269.5 596.979 1269.5 596.688C1269.5 596.312 1269.72 596.01 1270.16 595.781C1270.59 595.552 1271.14 595.375 1271.78 595.25C1272.45 595.125 1273.16 595.042 1273.91 595C1274.68 594.938 1275.38 594.885 1276 594.844C1275.94 594.594 1275.89 594.344 1275.84 594.094C1275.8 593.844 1275.75 593.594 1275.69 593.344C1275.58 592.969 1275.38 592.531 1275.06 592.031C1274.77 591.531 1274.44 591.01 1274.06 590.469ZM1289.34 597.219C1289.51 597.052 1289.73 596.969 1290 596.969C1290.46 597.031 1290.91 597.198 1291.34 597.469C1291.8 597.719 1292.21 598.031 1292.56 598.406C1292.92 598.76 1293.21 599.156 1293.44 599.594C1293.67 600.01 1293.78 600.438 1293.78 600.875C1293.78 601.542 1293.66 602.125 1293.41 602.625C1293.18 603.104 1292.86 603.51 1292.47 603.844C1292.07 604.156 1291.64 604.396 1291.16 604.562C1290.68 604.708 1290.21 604.781 1289.75 604.781C1289.29 604.781 1288.81 604.708 1288.31 604.562C1287.83 604.396 1287.4 604.167 1287 603.875C1286.6 603.583 1286.28 603.219 1286.03 602.781C1285.78 602.323 1285.66 601.802 1285.66 601.219C1285.66 600.844 1285.74 600.417 1285.91 599.938C1286.09 599.438 1286.32 598.979 1286.59 598.562C1286.89 598.125 1287.21 597.76 1287.56 597.469C1287.92 597.177 1288.28 597.031 1288.66 597.031C1288.89 597.031 1289.11 597.094 1289.34 597.219ZM1289.34 599C1288.91 599.312 1288.59 599.615 1288.41 599.906C1288.22 600.177 1288.12 600.594 1288.12 601.156C1288.12 601.573 1288.28 601.917 1288.59 602.188C1288.91 602.458 1289.38 602.594 1290 602.594C1290.29 602.594 1290.58 602.458 1290.88 602.188C1291.17 601.917 1291.31 601.542 1291.31 601.062C1291.31 600.729 1291.26 600.469 1291.16 600.281C1291.07 600.073 1290.94 599.906 1290.75 599.781C1290.58 599.635 1290.38 599.51 1290.12 599.406C1289.9 599.302 1289.64 599.167 1289.34 599ZM1301.38 593.719C1301.31 593.573 1301.28 593.427 1301.28 593.281C1301.28 592.948 1301.4 592.677 1301.62 592.469C1301.88 592.24 1302.16 592.125 1302.47 592.125C1302.91 592.125 1303.26 592.333 1303.53 592.75C1303.82 593.167 1304.05 593.646 1304.22 594.188C1304.39 594.708 1304.5 595.208 1304.56 595.688C1304.62 596.146 1304.67 596.427 1304.69 596.531C1304.73 596.927 1304.76 597.344 1304.78 597.781C1304.8 598.198 1304.81 598.646 1304.81 599.125C1304.81 600.312 1304.74 601.521 1304.59 602.75C1304.45 603.979 1304.27 605.156 1304.06 606.281C1303.96 606.677 1303.76 606.938 1303.47 607.062C1303.2 607.188 1302.92 607.25 1302.62 607.25C1302.35 607.208 1302.12 607.115 1301.94 606.969C1301.75 606.823 1301.66 606.615 1301.66 606.344C1301.66 606.26 1301.67 606.198 1301.69 606.156C1301.92 604.781 1302.08 603.458 1302.19 602.188C1302.29 600.896 1302.34 599.677 1302.34 598.531C1302.34 598.094 1302.33 597.698 1302.31 597.344C1302.29 596.969 1302.24 596.604 1302.16 596.25C1302.09 595.875 1302 595.49 1301.88 595.094C1301.75 594.677 1301.58 594.219 1301.38 593.719ZM1313.06 603.594C1313.33 603.594 1313.71 603.615 1314.19 603.656C1314.67 603.698 1315.14 603.833 1315.59 604.062C1316.05 604.271 1316.45 604.604 1316.78 605.062C1317.11 605.521 1317.28 606.156 1317.28 606.969C1317.28 607.719 1317.02 608.385 1316.5 608.969C1315.98 609.573 1315.25 609.875 1314.31 609.875C1313.88 609.875 1313.47 609.781 1313.09 609.594C1312.72 609.406 1312.4 609.167 1312.12 608.875C1311.85 608.604 1311.64 608.292 1311.47 607.938C1311.32 607.604 1311.25 607.281 1311.25 606.969C1311.27 606.677 1311.32 606.396 1311.41 606.125C1311.49 605.854 1311.65 605.635 1311.88 605.469L1312.25 605.219C1312.15 605.073 1312.09 604.917 1312.09 604.75C1312.09 604.438 1312.18 604.177 1312.34 603.969C1312.53 603.74 1312.77 603.615 1313.06 603.594ZM1313.69 605.594C1313.73 605.656 1313.75 605.75 1313.75 605.875C1313.75 606.042 1313.68 606.24 1313.53 606.469C1313.39 606.698 1313.31 606.875 1313.31 607C1313.31 607.229 1313.41 607.417 1313.59 607.562C1313.8 607.729 1314.01 607.812 1314.22 607.812C1314.64 607.812 1314.92 607.708 1315.06 607.5C1315.23 607.292 1315.31 607.115 1315.31 606.969C1315.31 606.656 1315.26 606.406 1315.16 606.219C1315.07 606.031 1314.95 605.896 1314.78 605.812C1314.64 605.708 1314.46 605.646 1314.25 605.625C1314.06 605.604 1313.88 605.594 1313.69 605.594ZM1313 588.594V588.5C1313 588.271 1313.12 588.094 1313.38 587.969C1313.62 587.823 1313.92 587.75 1314.25 587.75C1314.54 587.75 1314.83 587.802 1315.12 587.906C1315.42 588.01 1315.65 588.177 1315.81 588.406C1315.81 588.698 1315.79 588.948 1315.75 589.156C1315.73 589.365 1315.71 589.542 1315.69 589.688L1315.44 590.594C1315.5 591.24 1315.55 591.771 1315.59 592.188C1315.66 592.604 1315.71 593 1315.75 593.375C1315.79 593.729 1315.82 594.104 1315.84 594.5C1315.86 594.896 1315.88 595.396 1315.88 596C1315.88 596.688 1315.85 597.375 1315.81 598.062C1315.77 598.75 1315.69 599.375 1315.56 599.938C1315.46 600.479 1315.29 600.927 1315.06 601.281C1314.85 601.615 1314.57 601.781 1314.22 601.781C1313.93 601.781 1313.67 601.698 1313.44 601.531C1313.21 601.344 1313.09 601.135 1313.09 600.906C1313.09 600.823 1313.1 600.76 1313.12 600.719C1313.29 600.156 1313.4 599.635 1313.44 599.156C1313.48 598.677 1313.5 598.229 1313.5 597.812C1313.5 596.667 1313.48 595.75 1313.44 595.062C1313.42 594.354 1313.39 593.708 1313.34 593.125C1313.3 592.521 1313.25 591.896 1313.19 591.25C1313.12 590.583 1313.06 589.698 1313 588.594Z" fill="#313567"/>
<path d="M458.037 113.855C446.434 111.983 436.4 108.241 436.4 108.241C424.484 103.408 424.704 87.0044 407.395 87.5034C394.726 87.8686 389.515 92.5437 387.817 96.6748C388.791 86.8491 386.182 72.7856 369.609 73.0025C350.544 73.252 348.809 91.6094 350.324 100.757C348.339 97.9503 341.889 92.5553 331.98 93.4285C322.072 94.3017 318.027 101.796 319.281 108.241C316.772 113.855 309.717 116.817 292 119C301.407 118.083 420.408 116.817 493 116.817C493 116.817 469.639 115.726 458.037 113.855Z" fill="white"/>
<path d="M1396.96 407.855C1408.57 405.983 1418.6 402.241 1418.6 402.241C1430.52 397.408 1430.3 381.004 1447.61 381.503C1460.27 381.869 1465.48 386.544 1467.18 390.675C1466.21 380.849 1468.82 366.786 1485.39 367.002C1504.46 367.252 1506.19 385.609 1504.68 394.757C1506.66 391.95 1513.11 386.555 1523.02 387.428C1532.93 388.302 1536.97 395.796 1535.72 402.241C1538.23 407.855 1545.28 410.817 1563 413C1553.59 412.083 1434.59 410.817 1362 410.817C1362 410.817 1385.36 409.726 1396.96 407.855Z" fill="white"/>
<path opacity="0.19" d="M1424 399C1424.71 395.697 1426.86 391.058 1431.04 387.5M1453.5 383C1445.84 381.469 1439.95 382.429 1435.5 384.589M1467.5 392.5C1465.98 385.861 1468.36 372.681 1479.5 368.387M1487.5 367C1485.69 367 1484.03 367.176 1482.5 367.502M1501.5 400C1502.17 394.667 1508 384.7 1526 387.5" stroke="#313567" stroke-width="1.5" stroke-linecap="round" stroke-linejoin="round"/>
<path opacity="0.19" d="M431 105C430.292 101.697 428.137 97.0584 423.958 93.5M401.5 89C409.155 87.4689 415.052 88.4285 419.5 90.589M387.5 98.5C389.021 91.8613 386.64 78.6806 375.5 74.3871M367.5 73C369.306 73 370.97 73.1763 372.5 73.5015M353.5 106C352.833 100.667 347 90.7 329 93.5" stroke="#313567" stroke-width="1.5" stroke-linecap="round" stroke-linejoin="round"/>
<path d="M440.5 631.5C440.667 631.667 441 632.2 441 633C441 633.8 440 633.667 439.5 633.5M436.5 627C437 627.5 437 628.1 437 628.5M440.5 627C441 627.5 441 628.1 441 628.5" stroke="#313567" stroke-width="1.5" stroke-linecap="round" stroke-linejoin="round"/>
<path d="M306.5 674.5C300.166 654.333 266.7 613.1 183.5 609.5M76.5 424C87.8333 436.833 104.5 482.5 110 525.5M55.4997 432L0.999664 505M383.5 711C377.326 710.722 370.627 710.405 363.5 710.05M20.9997 659.5C22.7648 660.334 25.9146 661.689 30.5 663.514M468.5 730C468.833 732.5 465.3 739.5 448.5 747.5C427.5 757.5 349 796 333.5 849M446 715C429.333 714 395.1 712 391.5 712M424.587 716.913L405.087 715.5M389.5 714.638L394.5 715M438.5 721L415 719.5M411.5 719.5L404 719M242.5 633.5C231 625.5 210 622.5 196 622.5M114.5 546C122.833 585.667 139.6 666.9 140 674.5M37 666.041C48.4803 670.413 65.6815 676.538 88.9997 684C98.9377 687.18 117.085 690.22 140 693.05M242.5 702.608C254.171 703.475 265.909 704.294 277.5 705.062M229 701.5C225.318 701.216 224.149 701.203 220.5 700.91M353.5 709.543C336.006 708.637 316.426 707.532 296 706.253M148.5 694.066C160.112 695.409 172.742 696.701 186 697.934M215 700.463C207.719 699.866 200.534 699.251 193.5 698.619M398.08 715L401.08 715.217" stroke="#313567" stroke-width="1.5" stroke-linecap="round" stroke-linejoin="round"/>
<path d="M84.5 523.5L80.5 516.5L73.5 521.5M48.5 514L57.5 511L62.5 518.5L70.5 514M28 505.5L36.5 502L37.5 511L47.5 506.5M14 492.5L21 488V497.5L30 494M106.5 523.5L102 518.5L96 523.5L92 516.5" stroke="#313567" stroke-width="1.5" stroke-linecap="round" stroke-linejoin="round"/>
<path d="M107.5 554L117 603.5M119.5 615.5L123 632M193 617.5C187.833 616 178.5 615 166.5 615" stroke="#313567" stroke-width="1.5" stroke-linecap="round" stroke-linejoin="round"/>
<path d="M264 727.5L266.5 722.5M262 727.5L263.5 717M259.5 727.5C259.5 726 259.5 721.5 258.5 721" stroke="#313567" stroke-width="1.5" stroke-linecap="round" stroke-linejoin="round"/>
<path d="M313.375 743.548L316.5 737.357M310.875 743.548L312.75 730.548M307.75 743.548C307.75 741.69 307.75 736.119 306.5 735.5" stroke="#313567" stroke-width="1.5" stroke-linecap="round" stroke-linejoin="round"/>
<path d="M195.188 734L198 728.286M192.938 734L194.625 722M190.125 734C190.125 732.286 190.125 727.143 189 726.571" stroke="#313567" stroke-width="1.5" stroke-linecap="round" stroke-linejoin="round"/>
<path d="M384.438 734L386 730.667M383.188 734L384.125 727M381.625 734C381.625 733 381.625 730 381 729.667" stroke="#313567" stroke-width="1.5" stroke-linecap="round" stroke-linejoin="round"/>
<path d="M461.438 722L463 718.667M460.188 722L461.125 715M458.625 722C458.625 721 458.625 718 458 717.667" stroke="#313567" stroke-width="1.5" stroke-linecap="round" stroke-linejoin="round"/>
<path d="M145.438 710L147 706.667M144.188 710L145.125 703M142.625 710C142.625 709 142.625 706 142 705.667" stroke="#313567" stroke-width="1.5" stroke-linecap="round" stroke-linejoin="round"/>
<path d="M191.438 699L193 695.667M190.188 699L191.125 692M188.625 699C188.625 698 188.625 695 188 694.667" stroke="#313567" stroke-width="1.5" stroke-linecap="round" stroke-linejoin="round"/>
<path d="M284.438 706L286 702.667M283.188 706L284.125 699M281.625 706C281.625 705 281.625 702 281 701.667" stroke="#313567" stroke-width="1.5" stroke-linecap="round" stroke-linejoin="round"/>
<path d="M341.438 722L343 718.667M340.188 722L341.125 715M338.625 722C338.625 721 338.625 718 338 717.667" stroke="#313567" stroke-width="1.5" stroke-linecap="round" stroke-linejoin="round"/>
<path d="M437 620C434.5 620.333 428.9 623.3 426.5 632.5C424.1 641.7 419.833 643.667 418 643.5M405.5 654C400.833 657 391.8 663.7 393 666.5C394.2 669.3 402.5 664.667 404 663.5M426.5 677C422.167 684.333 410.6 700.9 399 708.5" stroke="#313567" stroke-width="1.5" stroke-linecap="round" stroke-linejoin="round"/>
<path d="M454.648 647.041C458.5 645.5 459.812 645.329 461 645.5C462.5 645.716 461.836 647.401 460.515 648.389C462.143 647.613 465.453 646.372 465.678 647.616C465.96 649.172 460.723 653.976 452.872 655.878" stroke="#313567" stroke-width="1.5" stroke-linecap="round" stroke-linejoin="round"/>
<path opacity="0.65" d="M1630.5 126.5C1636.02 114.257 1653.22 94.3464 1683 94.279M1706.5 98C1700.47 96.1539 1694.81 95.0547 1689.5 94.5715M1738.5 126.5C1734.88 113.279 1733.75 86.3694 1751.87 69M1765 60C1761.91 61.4855 1759.13 63.1646 1756.64 65M1683 102C1690.33 101.5 1707.6 102.9 1718 112.5" stroke="#313567" stroke-width="2" stroke-linecap="round" stroke-linejoin="round"/>
<path opacity="0.73" d="M235 318.5C238.417 318.272 242.597 318.485 247 319.4M278.5 363C279.233 339.786 268.434 327.954 256.5 322.489M215 329C221 325 233.5 323.5 243.5 329M136 260.5C140.847 260.187 146.788 260.632 153 262.275M194 332C196.011 294.04 180.749 275.026 164 266.469" stroke="#313567" stroke-width="2" stroke-linecap="round" stroke-linejoin="round"/>
</svg>
