<svg width="768" height="780" viewBox="0 0 768 780" fill="none" xmlns="http://www.w3.org/2000/svg">
<mask id="mask0_138_13" style="mask-type:alpha" maskUnits="userSpaceOnUse" x="0" y="0" width="768" height="780">
<path d="M0 15C0 6.71574 6.71573 0 15 0H753C761.284 0 768 6.71573 768 15V765C768 773.284 761.284 780 753 780H15C6.71573 780 0 773.284 0 765V15Z" fill="#D9D9D9"/>
</mask>
<g mask="url(#mask0_138_13)">
<path d="M-517 5.99998C-517 -2.28429 -510.284 -9 -502 -9H1268C1276.28 -9 1283 -2.28427 1283 6V765C1283 773.284 1276.28 780 1268 780H-502C-510.284 780 -517 773.284 -517 765V5.99998Z" fill="#F0F8FF"/>
<mask id="mask1_138_13" style="mask-type:alpha" maskUnits="userSpaceOnUse" x="-517" y="-9" width="1800" height="789">
<rect x="-517" y="-9" width="1800" height="789" rx="15" fill="white"/>
</mask>
<g mask="url(#mask1_138_13)">
<path d="M-90.0312 382.5C-61.2846 558.5 134.969 432 157.469 595L-252.031 587L-232.031 214C-192.865 220.167 -109.631 262.5 -90.0312 382.5Z" fill="#C4DED7"/>
<path d="M848.744 382.5C819.997 558.5 623.744 432 601.244 595L1010.74 587L990.744 214C951.577 220.167 868.344 262.5 848.744 382.5Z" fill="#C4DED7"/>
<path d="M118.499 593C131.694 628.555 73.3327 604.334 50.4994 603.5L-37.9997 593L-55.9997 544.5L-58.0008 482C-10.0008 482 -15.1942 519.205 20.0003 544.5C55.1949 569.795 100.499 544.5 118.499 593Z" fill="#ACCDC4"/>
<path d="M-120 303C-85.6 328.2 -133.167 371.334 -143 395H-163.5C-175.5 350.334 -154.4 277.8 -120 303Z" fill="#ACCDC4"/>
<path d="M640.532 593C627.337 628.555 685.699 604.334 708.532 603.5L797.031 593L815.031 544.5L817.032 482C769.032 482 774.225 519.205 739.031 544.5C703.836 569.795 658.532 544.5 640.532 593Z" fill="#ACCDC4"/>
<path d="M879.031 303C844.631 328.2 892.198 371.334 902.031 395H922.531C934.531 350.334 913.431 277.8 879.031 303Z" fill="#ACCDC4"/>
<path d="M-27.3834 526.441C-5.0228 663.2 64.835 738.796 96.9688 759.5H-227.031L-257.031 517.5L-94.1228 302.5C-71.3059 302.5 -49.7439 389.683 -27.3834 526.441Z" fill="#D0EBDD"/>
<path d="M786.096 526.441C763.736 663.2 693.878 738.796 661.744 759.5H985.744L1015.74 517.5L852.836 302.5C830.019 302.5 808.457 389.683 786.096 526.441Z" fill="#D0EBDD"/>
<path d="M-52.5 615C50.1667 642.833 256.5 682.565 389 681C553 679.063 723.667 648.833 824.5 622" stroke="#313567" stroke-opacity="0.91" stroke-width="2" stroke-linecap="round"/>
<path d="M-25.0314 577.5C39.7686 583.9 175.302 592.833 234.969 596.5C269.469 598.673 301.469 596.5 307.469 614.5C313.469 632.5 207.469 648 168.969 741.5C130.469 835 -275.531 868 -292.531 854.5C-309.531 841 -260.031 415.5 -231.031 469.5C-202.031 523.5 -106.031 569.5 -25.0314 577.5Z" fill="#E5F7EC"/>
<path d="M298.306 604.119C287.906 596.119 243.306 596.119 222.306 597.119C216.807 597.337 156.306 591.619 186.306 604.119C216.306 616.619 311.306 614.119 298.306 604.119Z" fill="#C4DED7" fill-opacity="0.65"/>
<path d="M783.744 577.5C718.944 583.9 583.411 592.833 523.744 596.5C489.244 598.673 457.244 596.5 451.244 614.5C445.244 632.5 551.244 648 589.744 741.5C628.244 835 1034.24 868 1051.24 854.5C1068.24 841 1018.74 415.5 989.744 469.5C960.744 523.5 864.744 569.5 783.744 577.5Z" fill="#E5F7EC"/>
<path d="M259 574.5C266.804 575.057 264.897 599.617 268.968 597C272.154 594.952 275.864 573.02 277.83 551C278.545 543 300 541 303 532C303 527.5 279.057 537 279.057 532C279.724 513.637 279.893 501.739 273.5 505.5C265 510.5 263.5 525.5 260.5 528.5C257.5 531.5 240.5 534 230.969 551C229.575 554.09 254.028 543.275 252.616 546.5C244.019 566.137 235.428 587.222 230.968 597C239.127 598.255 253.386 574.099 259 574.5Z" fill="#DFD4FF"/>
<path d="M499.032 574.5C491.228 575.057 493.135 599.617 489.064 597C485.878 594.952 482.168 573.02 480.202 551C479.488 543 458.032 541 455.032 532C455.032 527.5 478.975 537 478.975 532C478.308 513.637 478.139 501.739 484.532 505.5C493.032 510.5 490.032 525.5 497.532 528.5C498.957 531.512 517.532 534 527.064 551C528.457 554.09 504.005 543.275 505.416 546.5C514.013 566.137 522.604 587.222 527.064 597C518.905 598.255 504.647 574.099 499.032 574.5Z" fill="#FFB7B7"/>
</g>
<path d="M463.02 604C473.42 596 518.02 596 539.02 597C544.52 597.218 605.021 591.5 575.021 604C545.021 616.5 450.02 614 463.02 604Z" fill="#C4DED7" fill-opacity="0.65"/>
<path d="M479.021 516.5C478.854 516.667 478.521 517.2 478.521 518C478.521 518.8 479.521 518.667 480.021 518.5M483.021 512C482.521 512.5 482.521 513.1 482.521 513.5M479.021 512C478.521 512.5 478.521 513.1 478.521 513.5" stroke="#313567" stroke-width="1.5" stroke-linecap="round" stroke-linejoin="round"/>
<path d="M593.695 259.168C596.018 258.184 598.425 257.471 600.969 257.471" stroke="#AFAFAF" stroke-width="1.5" stroke-linecap="round" stroke-linejoin="round"/>
<path d="M613.021 559.5C619.354 539.333 652.821 498.1 736.021 494.5M843.021 309C831.687 321.833 815.02 367.5 809.521 410.5M864.021 317L918.521 390M536.021 596C542.195 595.722 548.894 595.405 556.021 595.05M898.521 544.5C896.756 545.334 893.606 546.689 889.021 548.514M451.021 615C450.688 617.5 454.221 624.5 471.021 632.5C492.021 642.5 570.521 681 586.021 734M473.521 600C490.187 599 524.421 597 528.021 597M494.934 601.913L514.434 600.5M530.021 599.638L525.021 600M481.021 606L504.521 604.5M508.021 604.5L515.521 604M677.021 518.5C688.521 510.5 709.521 507.5 723.521 507.5M805.021 431C796.687 470.667 779.921 551.9 779.521 559.5M882.521 551.041C871.04 555.413 853.839 561.538 830.521 569C820.583 572.18 802.435 575.22 779.521 578.05M677.021 587.608C665.349 588.475 653.611 589.294 642.021 590.062M690.521 586.5C694.203 586.216 695.372 586.203 699.021 585.91M566.021 594.543C583.515 593.637 603.095 592.532 623.521 591.253M771.021 579.066C759.408 580.409 746.778 581.701 733.521 582.934M704.521 585.463C711.802 584.866 718.987 584.251 726.021 583.619M521.441 600L518.441 600.217" stroke="#313567" stroke-width="1.5" stroke-linecap="round" stroke-linejoin="round"/>
<path d="M812.021 439L802.521 488.5M800.021 500.5L796.521 517M726.521 502.5C731.687 501 741.021 500 753.021 500" stroke="#313567" stroke-width="1.5" stroke-linecap="round" stroke-linejoin="round"/>
<path d="M655.521 612.5L653.021 607.5M657.521 612.5L656.021 602M660.021 612.5C660.021 611 660.021 606.5 661.021 606" stroke="#313567" stroke-width="1.5" stroke-linecap="round" stroke-linejoin="round"/>
<path d="M606.146 628.548L603.021 622.357M608.646 628.548L606.771 615.548M611.771 628.548C611.771 626.691 611.771 621.119 613.021 620.5" stroke="#313567" stroke-width="1.5" stroke-linecap="round" stroke-linejoin="round"/>
<path d="M724.333 619L721.521 613.286M726.583 619L724.896 607M729.396 619C729.396 617.286 729.396 612.143 730.521 611.571" stroke="#313567" stroke-width="1.5" stroke-linecap="round" stroke-linejoin="round"/>
<path d="M535.083 619L533.521 615.667M536.333 619L535.396 612M537.896 619C537.896 618 537.896 615 538.521 614.667" stroke="#313567" stroke-width="1.5" stroke-linecap="round" stroke-linejoin="round"/>
<path d="M458.083 607L456.521 603.667M459.333 607L458.396 600M460.896 607C460.896 606 460.896 603 461.521 602.667" stroke="#313567" stroke-width="1.5" stroke-linecap="round" stroke-linejoin="round"/>
<path d="M728.083 584L726.521 580.667M729.333 584L728.396 577M730.896 584C730.896 583 730.896 580 731.521 579.667" stroke="#313567" stroke-width="1.5" stroke-linecap="round" stroke-linejoin="round"/>
<path d="M635.083 591L633.521 587.667M636.333 591L635.396 584M637.896 591C637.896 590 637.896 587 638.521 586.667" stroke="#313567" stroke-width="1.5" stroke-linecap="round" stroke-linejoin="round"/>
<path d="M578.083 607L576.521 603.667M579.333 607L578.396 600M580.896 607C580.896 606 580.896 603 581.521 602.667" stroke="#313567" stroke-width="1.5" stroke-linecap="round" stroke-linejoin="round"/>
<path d="M482.521 505C485.021 505.333 490.621 508.3 493.021 517.5C495.421 526.7 499.687 528.667 501.521 528.5M514.021 539C518.687 542 527.721 548.7 526.521 551.5C525.321 554.3 517.021 549.667 515.521 548.5M493.021 562C497.354 569.333 508.921 585.9 520.521 593.5" stroke="#313567" stroke-width="1.5" stroke-linecap="round" stroke-linejoin="round"/>
<path d="M464.873 532.041C461.02 530.5 459.708 530.329 458.521 530.5C457.021 530.716 457.684 532.401 459.005 533.39C457.378 532.613 454.067 531.372 453.842 532.617C453.561 534.172 458.798 538.976 466.648 540.878" stroke="#313567" stroke-width="1.5" stroke-linecap="round" stroke-linejoin="round"/>
<path d="M279.501 516.5C279.668 516.667 280.001 517.2 280.001 518C280.001 518.8 279.001 518.667 278.501 518.5M275.501 512C276.001 512.5 276.001 513.1 276.001 513.5M279.501 512C280.001 512.5 280.001 513.1 280.001 513.5" stroke="#313567" stroke-width="1.5" stroke-linecap="round" stroke-linejoin="round"/>
<path d="M145.501 559.5C139.167 539.333 105.701 498.1 22.5006 494.5M-84.499 309C-73.1657 321.833 -56.4987 367.5 -50.999 410.5M-105.499 317L-159.999 390M222.501 596C216.327 595.722 209.628 595.405 202.501 595.05M-139.999 544.5C-138.234 545.334 -135.084 546.689 -130.499 548.514M307.501 615C307.834 617.5 304.301 624.5 287.501 632.5C266.501 642.5 188.001 681 172.501 734M285.001 600C268.334 599 234.101 597 230.501 597M263.588 601.913L244.088 600.5M228.501 599.638L233.501 600M277.501 606L254.001 604.5M250.501 604.5L243.001 604M81.501 518.5C70.001 510.5 49.001 507.5 35.001 507.5M-46.499 431C-38.1657 470.667 -21.399 551.9 -20.999 559.5M-123.999 551.041C-112.519 555.413 -95.3176 561.538 -71.9994 569C-62.0613 572.18 -43.9136 575.22 -20.999 578.05M81.501 587.608C93.1721 588.475 104.91 589.294 116.501 590.062M68.001 586.5C64.3185 586.216 63.1496 586.203 59.501 585.91M192.501 594.543C175.007 593.637 155.427 592.532 135.001 591.253M-12.499 579.066C-0.886643 580.409 11.7431 581.701 25.001 582.934M54.001 585.463C46.72 584.866 39.5349 584.251 32.501 583.619M237.081 600L240.081 600.217" stroke="#313567" stroke-width="1.5" stroke-linecap="round" stroke-linejoin="round"/>
<path d="M-53.499 439L-43.999 488.5M-41.499 500.5L-37.999 517M32.001 502.5C26.8343 501 17.501 500 5.50098 500" stroke="#313567" stroke-width="1.5" stroke-linecap="round" stroke-linejoin="round"/>
<path d="M103.001 612.5L105.501 607.5M101.001 612.5L102.501 602M98.501 612.5C98.501 611 98.501 606.5 97.501 606" stroke="#313567" stroke-width="1.5" stroke-linecap="round" stroke-linejoin="round"/>
<path d="M152.376 628.548L155.501 622.357M149.876 628.548L151.751 615.548M146.751 628.548C146.751 626.691 146.751 621.119 145.501 620.5" stroke="#313567" stroke-width="1.5" stroke-linecap="round" stroke-linejoin="round"/>
<path d="M34.1885 619L37.001 613.286M31.9385 619L33.626 607M29.126 619C29.126 617.286 29.126 612.143 28.001 611.571" stroke="#313567" stroke-width="1.5" stroke-linecap="round" stroke-linejoin="round"/>
<path d="M223.438 619L225.001 615.667M222.188 619L223.126 612M220.626 619C220.626 618 220.626 615 220.001 614.667" stroke="#313567" stroke-width="1.5" stroke-linecap="round" stroke-linejoin="round"/>
<path d="M300.438 607L302.001 603.667M299.188 607L300.126 600M297.626 607C297.626 606 297.626 603 297.001 602.667" stroke="#313567" stroke-width="1.5" stroke-linecap="round" stroke-linejoin="round"/>
<path d="M30.4385 584L32.001 580.667M29.1885 584L30.126 577M27.626 584C27.626 583 27.626 580 27.001 579.667" stroke="#313567" stroke-width="1.5" stroke-linecap="round" stroke-linejoin="round"/>
<path d="M123.438 591L125.001 587.667M122.188 591L123.126 584M120.626 591C120.626 590 120.626 587 120.001 586.667" stroke="#313567" stroke-width="1.5" stroke-linecap="round" stroke-linejoin="round"/>
<path d="M180.438 607L182.001 603.667M179.188 607L180.126 600M177.626 607C177.626 606 177.626 603 177.001 602.667" stroke="#313567" stroke-width="1.5" stroke-linecap="round" stroke-linejoin="round"/>
<path d="M276.001 505C273.501 505.333 267.901 508.3 265.501 517.5C263.101 526.7 258.834 528.667 257.001 528.5M244.501 539C239.834 542 230.801 548.7 232.001 551.5C233.201 554.3 241.501 549.667 243.001 548.5M265.501 562C261.168 569.333 249.601 585.9 238.001 593.5" stroke="#313567" stroke-width="1.5" stroke-linecap="round" stroke-linejoin="round"/>
<path d="M293.649 532.04C297.501 530.5 298.813 530.329 300.001 530.5C301.501 530.716 300.837 532.4 299.516 533.389C301.144 532.613 304.454 531.371 304.679 532.616C304.961 534.172 299.724 538.976 291.873 540.878" stroke="#313567" stroke-width="1.5" stroke-linecap="round" stroke-linejoin="round"/>
</g>
</svg>
