<?xml version="1.0" encoding="UTF-8"?>
<svg id="Layer_2" data-name="Layer 2" xmlns="http://www.w3.org/2000/svg" viewBox="0 0 27.69 5.54">
  <defs>
    <style>
      .cls-1 {
        stroke-width: 0px;
      }

      .cls-1, .cls-2 {
        fill: #313567;
      }

      .cls-2 {
        font-family: Quicksand-SemiBold, Quicksand;
        font-size: 4px;
        font-variation-settings: 'wght' 600;
        font-weight: 600;
        letter-spacing: .07em;
        stroke: #313567;
        stroke-linecap: round;
        stroke-linejoin: round;
        stroke-width: .1px;
      }
    </style>
  </defs>
  <g id="Layer_1-2" data-name="Layer 1">
    <g>
      <path class="cls-1" d="m.04,2.85c.05.1.14.16.26.16.05,0,.09-.01.14-.03L5.01.56c.07-.04.12-.09.14-.17.02-.08.02-.15-.02-.22-.04-.07-.09-.12-.17-.14-.07-.02-.15-.02-.22.02L1.77,1.61V.29c0-.08-.03-.15-.09-.21-.06-.06-.13-.09-.21-.09s-.15.03-.21.09c-.05.06-.08.13-.08.21v1.62l-.61.32V.35c0-.08-.03-.15-.09-.21-.06-.06-.13-.09-.21-.09s-.15.03-.21.09C.03.2,0,.27,0,.35v2.35c0,.05,0,.1.03.15H.04Zm2.81.17l2.16-1.14c.07-.04.12-.1.14-.17.02-.08.02-.15-.02-.22-.04-.07-.09-.12-.17-.14-.07-.02-.15-.02-.22.02L.16,3.78c-.12.06-.14.16-.15.3v1.17c0,.08.02.15.08.21.06.06.13.09.21.09s.15-.03.21-.09c.06-.06.09-.13.09-.21v-1.04l1.7-.9v.02s.03.01.03.01l2.4,2.14c.05.04.11.06.17.06.1,0,.18-.04.23-.12.05-.06.07-.14.05-.22-.01-.08-.05-.14-.11-.19l-2.21-2Z"/>
      <text class="cls-2" transform="translate(6.63 4.03)"><tspan x="0" y="0">K-LINGUA</tspan></text>
    </g>
  </g>
</svg>