<?xml version="1.0" encoding="UTF-8"?>
<svg id="Layer_2" data-name="Layer 2" xmlns="http://www.w3.org/2000/svg" viewBox="0 0 27.71 6.9">
  <defs>
    <style>
      .cls-1 {
        letter-spacing: .2em;
      }

      .cls-2 {
        stroke-width: 0px;
      }

      .cls-2, .cls-3, .cls-4 {
        fill: #313567;
      }

      .cls-3 {
        font-family: Alexandria-Regular, Alexandria;
        font-size: 1.3px;
        font-variation-settings: 'wght' 400;
      }

      .cls-5 {
        letter-spacing: .15em;
      }

      .cls-4 {
        font-family: Quicksand-SemiBold, Quicksand;
        font-size: 4px;
        font-variation-settings: 'wght' 600;
        font-weight: 600;
        letter-spacing: .07em;
        stroke: #313567;
        stroke-linecap: round;
        stroke-linejoin: round;
        stroke-width: .1px;
      }

      .cls-6 {
        letter-spacing: .2em;
      }
    </style>
  </defs>
  <g id="Layer_1-2" data-name="Layer 1">
    <g>
      <path class="cls-2" d="m.04,3.48c.05.1.14.16.26.16.05,0,.09-.01.14-.03L5.01,1.18c.07-.04.12-.09.14-.17.02-.08.02-.15-.02-.22-.04-.07-.09-.12-.17-.14-.07-.02-.15-.02-.22.02l-2.96,1.56V.92c0-.08-.03-.15-.09-.21-.06-.06-.13-.09-.21-.09s-.15.03-.21.09c-.05.06-.08.13-.08.21v1.62l-.61.32V.98c0-.08-.03-.15-.09-.21-.06-.06-.13-.09-.21-.09s-.15.03-.21.09C.03.83,0,.9,0,.98v2.35c0,.05,0,.1.03.15H.04Zm2.81.17l2.16-1.14c.07-.04.12-.1.14-.17.02-.08.02-.15-.02-.22-.04-.07-.09-.12-.17-.14-.07-.02-.15-.02-.22.02L.16,4.4c-.12.06-.14.16-.15.3v1.17c0,.08.02.15.08.21.06.06.13.09.21.09s.15-.03.21-.09c.06-.06.09-.13.09-.21v-1.04l1.7-.9v.02s.03.01.03.01l2.4,2.14c.05.04.11.06.17.06.1,0,.18-.04.23-.12.05-.06.07-.14.05-.22-.01-.08-.05-.14-.11-.19l-2.21-2Z"/>
      <text class="cls-4" transform="translate(6.63 3.45)"><tspan x="0" y="0">K-LINGUA</tspan></text>
      <text class="cls-3" transform="translate(7.11 6.17)"><tspan class="cls-6" x="0" y="0">AL</tspan><tspan class="cls-5" x="2.18" y="0">WA</tspan><tspan class="cls-1" x="4.92" y="0">YS A STEP AHEAD</tspan></text>
    </g>
  </g>
</svg>