<svg width="375" height="80" viewBox="0 0 375 80" fill="none" xmlns="http://www.w3.org/2000/svg">
<g clip-path="url(#clip0_97_617)">
<path d="M0.541455 39.5261C1.21827 40.8797 2.43655 41.6919 4.06091 41.6919C4.73773 41.6919 5.27919 41.5565 5.95601 41.2858L67.8173 8.39238C68.7648 7.85093 69.4416 7.17411 69.7124 6.0912C69.9831 5.00829 69.9831 4.06074 69.4416 3.1132C68.9002 2.16565 68.2234 1.48883 67.1404 1.2181C66.1929 0.947376 65.11 0.947376 64.1624 1.48883L23.9594 22.6056V4.87293C23.9594 3.79002 23.5533 2.84247 22.7411 2.03029C21.9289 1.2181 20.9814 0.812012 19.8985 0.812012C18.8156 0.812012 17.868 1.2181 17.0558 2.03029C16.379 2.84247 15.9729 3.79002 15.9729 4.87293V26.8019L7.71574 31.1335V5.54974C7.71574 4.46683 7.30964 3.51929 6.49746 2.7071C5.68528 1.89492 4.73773 1.48883 3.65482 1.48883C2.57191 1.48883 1.62437 1.89492 0.812183 2.7071C0.406091 3.65465 0 4.46683 0 5.54974V37.3602C0 38.0371 0 38.7139 0.406091 39.3907H0.541455V39.5261ZM38.5787 41.8272L67.8173 26.3958C68.7648 25.8543 69.4416 25.0421 69.7124 24.0946C69.9831 23.0117 69.9831 22.0641 69.4416 21.1166C68.9002 20.169 68.2234 19.4922 67.1404 19.2215C66.1929 18.9508 65.11 18.9508 64.1624 19.4922L2.16582 51.9795C0.541455 52.7917 0.270728 54.1453 0.135364 56.0404V71.878C0.135364 72.9609 0.406091 73.9085 1.21827 74.7206C2.03046 75.5328 2.978 75.9389 4.06091 75.9389C5.14382 75.9389 6.09137 75.5328 6.90355 74.7206C7.71574 73.9085 8.12183 72.9609 8.12183 71.878V57.8002L31.1337 45.6174V45.8882L31.5398 46.0235L64.0271 74.9914C64.7039 75.5328 65.5161 75.8036 66.3283 75.8036C67.6819 75.8036 68.7648 75.2621 69.4416 74.1792C70.1184 73.367 70.3892 72.2841 70.1184 71.2012C69.9831 70.1183 69.4416 69.3061 68.6294 68.6293L38.714 41.5565L38.5787 41.8272Z" fill="#313567"/>
<path d="M96.9208 39.1201C96.1086 39.1201 95.2964 38.8494 94.8903 38.3079C94.3489 37.7665 94.0781 37.0896 94.0781 36.2775V3.92551C94.0781 3.11333 94.3489 2.43651 94.8903 1.89506C95.4318 1.3536 96.1086 1.08287 97.0561 1.08287C97.8683 1.08287 98.5451 1.3536 99.0866 1.89506C99.628 2.43651 99.8988 3.11333 99.8988 3.92551V36.2775C99.8988 37.0896 99.628 37.7665 99.0866 38.3079C98.5451 38.8494 97.8683 39.1201 97.0561 39.1201H96.9208ZM120.88 1.08287C121.557 1.08287 122.234 1.3536 122.64 2.03042C123.046 2.70724 123.317 3.24869 123.317 3.79015C123.317 4.3316 123.046 5.00842 122.505 5.54988L99.222 27.7495L98.9512 21.2521L118.714 2.03042C119.391 1.3536 120.203 0.94751 120.88 0.94751V1.08287ZM120.609 39.2555C119.797 39.2555 119.12 38.8494 118.579 38.1726L105.043 20.846L109.239 16.6497L123.046 34.5177C123.046 34.5177 123.723 35.736 123.723 36.4128C123.723 37.225 123.452 38.0372 122.775 38.4433C122.098 38.8494 121.422 39.2555 120.609 39.2555Z" fill="#313567"/>
<path d="M120.609 39.7969C119.527 39.7969 118.714 39.3908 118.038 38.4432L105.584 22.4703L100.44 27.3434V36.4128C100.44 37.3603 100.034 38.1725 99.4927 38.8493C98.8159 39.5261 98.0037 39.7969 96.9208 39.7969C95.8379 39.7969 95.0257 39.5261 94.3489 38.8493C93.6721 38.1725 93.4014 37.3603 93.4014 36.4128V3.92546C93.4014 2.97792 93.8075 2.16574 94.3489 1.48892C95.0257 0.812097 95.8379 0.54137 96.9208 0.54137C98.0037 0.54137 98.8159 0.947461 99.3574 1.48892C100.034 2.16574 100.305 2.97792 100.305 3.92546V18.6801L118.173 1.62428C119.797 -8.55625e-05 121.963 -8.55625e-05 123.181 1.62428C123.723 2.3011 123.994 3.11328 123.994 3.7901C123.994 4.60228 123.723 5.2791 123.046 5.95592L110.863 17.4618L123.587 33.9762C124.129 34.653 124.4 35.4652 124.4 36.2774C124.4 37.3603 123.994 38.3079 123.181 38.8493C122.369 39.3908 121.557 39.7969 120.609 39.7969ZM106.667 21.5228L119.12 37.6311C119.933 38.714 121.151 38.5786 122.234 37.7664C122.775 37.3603 122.911 36.9542 122.911 36.2774C122.911 35.736 122.775 35.1945 122.369 34.7884L109.78 18.4094L106.532 21.5228H106.667ZM97.1916 1.75964C96.5147 1.75964 95.9733 1.89501 95.5672 2.3011C95.1611 2.70719 95.0257 3.24865 95.0257 3.7901V36.1421C95.0257 36.1421 95.1611 37.225 95.5672 37.6311C96.244 38.4432 98.0037 38.4432 98.6806 37.6311C99.0866 37.225 99.222 36.6835 99.3574 36.1421V28.1556C99.3574 28.1556 99.222 28.1556 99.0866 28.1556C98.8159 28.1556 98.6806 27.8849 98.6806 27.6141L98.4098 21.1167C98.4098 21.1167 98.4098 20.7106 98.5452 20.5752L99.3574 19.8984V3.92546C99.3574 3.92546 99.222 2.84255 98.8159 2.43646C98.4098 2.03037 98.0037 1.89501 97.3269 1.89501L97.1916 1.75964ZM100.576 20.4398V25.3129L104.772 21.252L104.501 20.9813C104.501 20.9813 104.366 20.3045 104.501 20.0338L108.697 15.8375C108.697 15.8375 108.968 15.5668 109.239 15.7021C109.374 15.7021 109.645 15.7021 109.78 15.9728L110.051 16.2436L122.098 4.73765C122.098 4.73765 122.64 3.92546 122.64 3.51937C122.64 3.11328 122.505 2.57183 122.098 2.16574C121.422 1.21819 120.068 1.35355 119.12 2.3011L100.576 20.3045V20.4398Z" fill="#313567"/>
<path d="M135.229 25.0424C134.417 25.0424 133.875 24.7716 133.334 24.2302C132.792 23.6887 132.521 23.0119 132.521 22.3351C132.521 21.6583 132.792 20.8461 133.334 20.44C133.875 20.0339 134.552 19.7632 135.229 19.7632H145.381C146.193 19.7632 146.735 20.0339 147.276 20.5754C147.818 21.1168 148.088 21.7936 148.088 22.6058C148.088 23.418 147.818 23.9595 147.276 24.5009C146.735 25.0424 146.058 25.1777 145.381 25.1777H135.229V25.0424Z" fill="#313567"/>
<path d="M145.381 25.7191H135.228C134.281 25.7191 133.469 25.4484 132.792 24.7716C132.115 24.0948 131.709 23.2826 131.709 22.335C131.709 21.3875 132.115 20.5753 132.792 19.8985C133.469 19.357 134.281 18.9509 135.228 18.9509H145.381C146.328 18.9509 147.14 19.2217 147.817 19.8985C148.494 20.5753 148.765 21.3875 148.765 22.335C148.765 23.2826 148.359 24.0948 147.682 24.6362C147.005 25.1777 146.193 25.5838 145.245 25.5838L145.381 25.7191ZM135.228 20.3046C135.228 20.3046 134.146 20.4399 133.739 20.846C133.333 21.2521 133.198 21.6582 133.198 22.1997C133.198 22.7411 133.333 23.2826 133.875 23.6887C134.281 24.0948 134.822 24.2301 135.364 24.2301H145.516C145.516 24.2301 146.599 24.0948 147.005 23.6887C147.411 23.2826 147.547 22.8765 147.547 22.335C147.547 21.6582 147.411 21.2521 147.005 20.846C146.599 20.4399 146.058 20.3046 145.516 20.3046H135.364H135.228Z" fill="#313567"/>
<path d="M180.305 33.8408C181.117 33.8408 181.794 34.1115 182.335 34.653C182.877 35.1944 183.147 35.7359 183.147 36.5481C183.147 37.3603 182.877 37.9017 182.335 38.4432C181.794 38.9846 181.117 39.2554 180.305 39.2554H162.166C161.354 39.2554 160.677 38.9846 160.135 38.4432C159.594 37.9017 159.323 37.2249 159.323 36.4127V3.9254C159.323 3.11322 159.594 2.4364 160.135 1.89495C160.677 1.35349 161.354 1.08276 162.301 1.08276C162.978 1.08276 163.655 1.35349 164.196 1.89495C164.738 2.4364 165.009 3.11322 165.009 3.9254V34.653L163.926 33.7054H180.305V33.8408Z" fill="#313567"/>
<path d="M180.305 39.7968H162.166C161.219 39.7968 160.407 39.526 159.73 38.8492C159.053 38.1724 158.782 37.3602 158.782 36.4127V3.92535C158.782 2.97781 159.053 2.16563 159.73 1.48881C160.407 0.811987 161.219 0.54126 162.302 0.54126C163.249 0.54126 163.926 0.811987 164.738 1.48881C165.415 2.16563 165.821 2.97781 165.821 3.92535V33.0286H180.305C181.253 33.0286 182.065 33.2993 182.742 33.9761C183.418 34.6529 183.689 35.4651 183.689 36.4127C183.689 37.3602 183.418 38.1724 182.742 38.8492C182.065 39.526 181.253 39.7968 180.305 39.7968ZM162.302 1.8949C162.302 1.8949 161.083 2.03026 160.677 2.43635C160.271 2.84244 160.136 3.3839 160.136 3.92535V36.2773C160.136 36.2773 160.271 37.3602 160.677 37.7663C161.083 38.1724 161.625 38.3078 162.166 38.3078H180.305C180.305 38.3078 181.388 38.1724 181.794 37.7663C182.2 37.3602 182.336 36.9541 182.336 36.4127C182.336 35.8712 182.2 35.3298 181.794 35.059C181.388 34.6529 180.847 34.5176 180.305 34.5176H165.821V34.7883C165.821 34.7883 165.686 35.3298 165.415 35.3298C165.144 35.3298 164.874 35.3298 164.738 35.3298L163.655 34.3822C163.655 34.3822 163.385 33.8408 163.385 33.57C163.385 33.2993 163.791 33.1639 164.061 33.1639H164.468V3.92535C164.468 3.92535 164.197 2.84244 163.791 2.43635C163.385 2.03026 162.843 1.8949 162.302 1.8949Z" fill="#313567"/>
<path d="M199.12 36.4127C199.12 37.2249 198.714 37.9017 198.173 38.4432C197.631 38.9846 196.955 39.2554 196.142 39.2554C195.33 39.2554 194.518 38.9846 194.112 38.4432C193.571 37.9017 193.3 37.2249 193.3 36.4127V3.9254C193.3 3.11322 193.571 2.4364 194.112 1.89495C194.653 1.35349 195.33 1.08276 196.278 1.08276C196.955 1.08276 197.631 1.35349 198.173 1.89495C198.714 2.4364 198.985 3.11322 198.985 3.9254V36.2774L199.12 36.4127Z" fill="#313567"/>
<path d="M196.143 39.7968C195.06 39.7968 194.247 39.526 193.571 38.8492C192.894 38.1724 192.623 37.3602 192.623 36.4127V3.92535C192.623 2.97781 193.029 2.16563 193.571 1.48881C194.247 0.811987 195.06 0.54126 196.143 0.54126C196.955 0.54126 197.902 0.811987 198.579 1.48881C199.256 2.16563 199.662 2.97781 199.662 3.92535V36.2773C199.662 37.2248 199.256 38.037 198.579 38.7138C197.902 39.3907 197.09 39.6614 196.143 39.6614V39.7968ZM196.143 1.8949C195.466 1.8949 194.924 2.03026 194.518 2.43635C194.112 2.84244 193.977 3.3839 193.977 3.92535V36.2773C193.977 36.2773 194.112 37.3602 194.518 37.7663C195.195 38.4431 196.684 38.5785 197.632 37.7663C198.038 37.3602 198.308 36.8188 198.308 36.2773V3.92535C198.308 3.92535 198.038 2.84244 197.632 2.43635C197.225 2.03026 196.684 1.8949 196.143 1.8949Z" fill="#313567"/>
<path d="M240.271 1.21813C240.948 1.21813 241.625 1.48886 242.031 1.89495C242.437 2.4364 242.708 2.97786 242.708 3.65468V36.2774C242.708 37.0895 242.437 37.7663 241.896 38.3078C241.354 38.8493 240.677 39.12 239.865 39.12C239.459 39.12 239.053 39.12 238.647 38.8493C238.241 38.5785 237.97 38.4432 237.699 38.3078L215.5 9.47532L216.718 8.66314V36.5481C216.718 36.5481 216.447 37.7663 216.041 38.3078C215.5 38.8493 214.958 38.9846 214.281 38.9846C213.604 38.9846 212.928 38.7139 212.522 38.3078C212.115 37.9017 211.845 37.2249 211.845 36.5481V3.9254C211.845 3.11322 212.115 2.4364 212.657 1.89495C213.198 1.35349 213.875 1.08276 214.687 1.08276C215.093 1.08276 215.5 1.08276 215.906 1.35349C216.312 1.48886 216.718 1.75958 216.853 2.03031L238.511 30.3213L237.699 31.1335V3.79004C237.699 3.11322 237.97 2.4364 238.376 2.03031C238.782 1.62422 239.459 1.35349 240.136 1.35349L240.271 1.21813Z" fill="#313567"/>
<path d="M240 39.7969C240 39.7969 239.053 39.7969 238.511 39.5261C237.97 39.3908 237.564 39.12 237.293 38.714L217.53 12.9948V36.5481C217.53 37.3603 217.259 38.1725 216.583 38.714C215.364 39.9322 213.063 39.9322 211.98 38.714C211.439 38.1725 211.168 37.3603 211.168 36.5481V3.92546C211.168 2.97792 211.439 2.16573 212.116 1.48891C213.063 0.541368 214.552 0.27064 216.041 0.812095C216.718 1.08282 217.124 1.35355 217.395 1.75964L237.022 27.3434V3.7901C237.022 2.84255 237.293 2.16573 237.835 1.48891C238.376 0.812095 239.188 0.541368 240.136 0.541368C241.083 0.541368 241.76 0.812095 242.437 1.48891C242.978 2.16573 243.249 2.84255 243.249 3.7901V36.4128C243.249 37.3603 242.978 38.1725 242.302 38.8493C241.625 39.5261 240.813 39.7969 239.865 39.7969H240ZM217.53 10.829L238.376 37.9018C238.376 37.9018 238.647 38.1725 239.053 38.3079C239.865 38.5786 240.813 38.4432 241.489 37.9018C241.896 37.4957 242.031 36.9542 242.031 36.4128V3.7901C242.031 3.7901 241.896 2.84255 241.489 2.43646C240.813 1.75964 239.459 1.75964 238.918 2.43646C238.511 2.84255 238.376 3.24864 238.376 3.7901V29.2385L239.053 30.0507C239.053 30.0507 239.188 30.7275 239.053 30.9982L238.241 31.8104C238.241 31.8104 237.699 32.0811 237.564 31.8104C237.293 31.8104 237.158 31.4043 237.158 31.1336V29.5092L216.447 2.43646C216.447 2.43646 216.041 2.03037 215.77 1.89501C214.687 1.48891 213.875 1.62428 213.198 2.3011C212.792 2.70719 212.657 3.24864 212.657 3.7901V36.4128C212.657 36.4128 212.792 37.3603 213.198 37.7664C213.875 38.4432 215.094 38.4432 215.77 37.7664C216.176 37.3603 216.312 36.9542 216.312 36.5481V11.3705L215.229 9.88147C215.229 9.88147 215.094 9.47538 215.229 9.34001C215.229 9.20465 215.364 8.93392 215.5 8.93392L216.718 8.12174C216.718 8.12174 217.259 8.12174 217.395 8.12174C217.665 8.12174 217.801 8.52783 217.801 8.66319V10.829H217.53Z" fill="#313567"/>
<path d="M273.301 39.6613C270.458 39.6613 267.886 39.1198 265.585 38.1723C263.284 37.2247 261.118 35.7357 259.358 33.976C257.598 32.2163 256.109 30.0505 255.162 27.7493C254.214 25.4481 253.673 22.8762 253.673 20.1689C253.673 17.4616 254.214 14.8897 255.162 12.5885C256.245 10.2873 257.598 8.12152 259.358 6.36179C261.118 4.60206 263.284 3.24843 265.585 2.16552C267.886 1.21797 270.458 0.676514 273.301 0.676514C275.06 0.676514 276.82 0.811878 278.444 1.21797C280.069 1.62406 281.558 2.16552 282.911 2.9777C283.318 3.24843 283.724 3.51915 283.994 3.92524C284.265 4.33134 284.265 4.73743 284.265 5.14352C284.265 5.82034 283.994 6.49716 283.453 7.03861C282.911 7.58007 282.37 7.85079 281.558 7.85079C281.287 7.85079 281.016 7.85079 280.746 7.85079C280.475 7.85079 280.204 7.71543 279.933 7.58007C278.851 7.17398 277.903 6.76788 276.685 6.49716C275.602 6.22643 274.384 6.09107 273.03 6.09107C270.458 6.09107 268.021 6.76788 265.991 7.98616C263.96 9.20443 262.201 10.9642 260.983 12.9946C259.764 15.1604 259.223 17.4616 259.223 20.1689C259.223 22.8762 259.764 25.1774 260.983 27.3432C262.201 29.509 263.825 31.1334 265.991 32.487C268.157 33.7053 270.458 34.3821 273.03 34.3821C274.248 34.3821 275.602 34.2467 277.091 33.976C278.444 33.7053 279.663 33.2992 280.61 32.7577L280.204 34.2467V23.9591L281.016 24.7713H273.977C273.165 24.7713 272.488 24.5005 271.947 23.9591C271.406 23.4176 271.135 22.7408 271.135 22.064C271.135 21.3872 271.406 20.575 271.947 20.1689C272.488 19.6274 273.165 19.3567 273.977 19.3567H283.318C284.13 19.3567 284.807 19.6274 285.348 20.1689C285.889 20.7104 286.16 21.3872 286.16 22.1994V34.2467C286.16 34.2467 286.025 35.3296 285.754 35.7357C285.483 36.1418 285.213 36.4126 284.807 36.6833C283.182 37.6308 281.287 38.443 279.392 39.1198C277.362 39.7967 275.331 40.0674 273.301 40.0674V39.6613Z" fill="#313567"/>
<path d="M273.3 40.3382C270.458 40.3382 267.75 39.7967 265.314 38.8492C262.877 37.7663 260.711 36.4126 258.816 34.5175C256.921 32.7578 255.432 30.592 254.485 28.1554C253.402 25.7189 252.86 23.0116 252.86 20.3043C252.86 17.5971 253.402 14.7544 254.485 12.4532C255.568 10.0167 257.057 7.85088 258.816 6.09115C260.711 4.33142 262.877 2.84242 265.314 1.75951C267.75 0.676599 270.458 0.270508 273.3 0.270508C275.06 0.270508 276.955 0.405872 278.579 0.811963C280.204 1.21805 281.828 1.89487 283.317 2.57169C283.859 2.84242 284.4 3.38388 284.671 3.78997C284.942 4.33142 285.077 4.87288 285.077 5.41433C285.077 6.36188 284.806 7.0387 284.129 7.71552C283.317 8.66306 282.234 8.93379 280.881 8.66306C280.61 8.66306 280.339 8.5277 280.068 8.39234C278.986 7.85088 278.038 7.58015 276.955 7.30943C275.872 7.0387 274.654 6.90333 273.436 6.90333C270.999 6.90333 268.698 7.44479 266.667 8.66306C264.637 9.88134 263.148 11.5057 261.93 13.5362C260.847 15.5666 260.17 17.8678 260.17 20.3043C260.17 22.7409 260.711 25.0421 261.93 27.0725C263.013 29.103 264.637 30.7274 266.667 31.9456C269.645 33.7054 273.165 34.1115 277.226 33.2993C278.173 33.0285 279.121 32.7578 279.798 32.4871V25.3128H274.248C273.3 25.3128 272.488 25.0421 271.811 24.3653C271.134 23.6884 270.864 22.8763 270.864 21.9287C270.864 20.9812 271.134 20.169 271.811 19.4922C272.488 18.8153 273.3 18.5446 274.248 18.5446H283.588C284.535 18.5446 285.348 18.8153 286.024 19.4922C286.701 20.169 286.972 20.9812 286.972 21.9287V33.9761C286.972 34.6529 286.837 35.3297 286.431 35.8712C286.024 36.4126 285.754 36.6834 285.348 36.9541C283.588 38.037 281.693 38.8492 279.662 39.526C277.632 40.2028 275.466 40.4736 273.3 40.4736V40.3382ZM273.3 1.35342C270.593 1.35342 268.156 1.89487 265.855 2.84242C263.554 3.78997 261.524 5.1436 259.764 6.90333C258.004 8.66306 256.651 10.6935 255.703 12.8593C254.755 15.1605 254.214 17.5971 254.214 20.169C254.214 22.7409 254.755 25.3128 255.703 27.4786C256.651 29.7798 258.004 31.8103 259.764 33.4346C261.524 35.059 263.554 36.548 265.855 37.4956C269.916 39.1199 274.925 39.3906 279.256 38.037C281.151 37.4956 282.911 36.6834 284.535 35.7358C284.806 35.6005 285.077 35.3297 285.348 34.9236C285.483 34.6529 285.618 34.2468 285.618 33.8407V21.7934C285.618 21.7934 285.483 20.7104 285.077 20.3043C284.671 19.8983 284.129 19.7629 283.588 19.7629H274.248C274.248 19.7629 273.165 19.8983 272.759 20.3043C272.353 20.7104 272.217 21.1165 272.217 21.7934C272.217 22.4702 272.353 22.8763 272.759 23.2824C273.165 23.6884 273.706 23.8238 274.248 23.8238H279.798C279.798 23.8238 279.933 23.2824 280.204 23.147C280.475 23.147 280.745 23.147 280.881 23.147L281.693 23.9592C281.693 23.9592 281.964 24.5006 281.828 24.7714C281.693 25.0421 281.422 25.1774 281.151 25.1774H281.016V31.9456C281.016 31.9456 281.016 31.9456 281.151 31.9456C281.422 32.081 281.422 32.3517 281.422 32.6225L281.016 34.1115C281.016 34.1115 280.61 34.5175 280.339 34.6529C279.933 34.6529 279.798 34.2468 279.798 33.9761V33.7054C279.121 33.9761 278.309 34.1115 277.497 34.3822C273.165 35.3297 269.239 34.7883 265.991 32.8932C263.825 31.5395 262.065 29.7798 260.847 27.614C259.629 25.3128 258.952 22.8763 258.952 20.169C258.952 17.4617 259.629 14.8898 260.847 12.724C262.065 10.5582 263.825 8.66306 265.991 7.44479C268.156 6.09115 270.728 5.41433 273.436 5.41433C274.789 5.41433 276.008 5.5497 277.226 5.82042C278.309 6.09115 279.527 6.49724 280.61 7.0387C280.881 7.0387 281.016 7.17406 281.287 7.30943C281.964 7.58015 282.64 7.30943 283.182 6.76797C283.588 6.36188 283.723 5.82042 283.723 5.27897C283.723 5.00824 283.723 4.60215 283.453 4.33142C283.317 4.06069 283.046 3.78997 282.64 3.6546C281.287 2.97778 279.798 2.30096 278.309 2.03024C276.684 1.62415 275.06 1.48878 273.3 1.48878V1.35342Z" fill="#313567"/>
<path d="M324.331 1.21826C325.144 1.21826 325.685 1.48899 326.226 2.03044C326.768 2.5719 326.903 3.24872 326.903 3.92554V24.5008C326.903 27.3435 326.226 29.9154 325.008 32.2166C323.79 34.5178 322.03 36.2775 319.864 37.4958C317.698 38.714 315.127 39.3909 312.284 39.3909C309.441 39.3909 306.869 38.714 304.704 37.4958C302.538 36.2775 300.778 34.3824 299.424 32.2166C298.071 30.0508 297.529 27.3435 297.529 24.5008V3.92554C297.529 3.11335 297.8 2.5719 298.341 2.03044C298.883 1.48899 299.56 1.21826 300.507 1.21826C301.184 1.21826 301.861 1.48899 302.402 2.03044C302.944 2.5719 303.215 3.24872 303.215 3.92554V24.5008C303.215 26.3959 303.621 28.0203 304.433 29.5093C305.245 30.9983 306.463 32.0812 307.817 32.8934C309.171 33.7056 310.66 34.1117 312.284 34.1117C313.908 34.1117 315.533 33.7056 317.022 32.8934C318.511 32.0812 319.594 30.9983 320.541 29.5093C321.489 28.0203 321.895 26.3959 321.895 24.5008V3.92554C321.895 3.11335 322.166 2.5719 322.572 2.03044C322.978 1.48899 323.655 1.21826 324.467 1.21826H324.331Z" fill="#313567"/>
<path d="M312.149 40.0676C309.171 40.0676 306.464 39.3908 304.162 38.0371C301.861 36.6835 299.966 34.7884 298.612 32.4872C297.259 30.186 296.582 27.3434 296.582 24.3654V3.92546C296.582 2.97792 296.853 2.16574 297.53 1.48892C298.206 0.812097 299.019 0.54137 300.101 0.54137C300.914 0.54137 301.726 0.812097 302.403 1.48892C303.079 2.16574 303.486 2.97792 303.486 3.92546V24.5008C303.486 26.2605 303.892 27.8849 304.704 29.1031C305.516 30.4568 306.464 31.4043 307.817 32.2165C310.525 33.7055 313.773 33.7055 316.345 32.2165C317.699 31.4043 318.782 30.4568 319.594 29.1031C320.406 27.7495 320.812 26.2605 320.812 24.5008V3.92546C320.812 2.97792 321.083 2.16574 321.624 1.48892C322.166 0.812097 322.978 0.406006 324.061 0.406006C325.144 0.406006 325.821 0.812097 326.497 1.48892C327.039 2.16574 327.445 2.97792 327.445 3.92546V24.5008C327.445 27.4788 326.768 30.186 325.415 32.6226C324.061 34.9238 322.301 36.8189 320 38.1725C317.699 39.5261 314.991 40.203 312.013 40.203L312.149 40.0676ZM300.237 1.75964C299.56 1.75964 299.019 1.89501 298.612 2.3011C298.206 2.70719 298.071 3.24865 298.071 3.7901V24.3654C298.071 27.0727 298.748 29.6446 299.966 31.8104C301.184 33.9762 302.809 35.736 304.975 36.9542C307.14 38.1725 309.577 38.8493 312.284 38.8493C314.992 38.8493 317.428 38.1725 319.594 36.9542C321.76 35.736 323.384 33.9762 324.602 31.8104C325.821 29.6446 326.362 27.208 326.362 24.3654V3.92546C326.362 3.92546 326.227 2.84255 325.821 2.43646C325.144 1.62428 323.655 1.62428 323.113 2.43646C322.707 2.84255 322.572 3.38401 322.572 3.92546V24.5008C322.572 26.5312 322.03 28.2909 321.083 29.9153C320.135 31.4043 318.917 32.6226 317.293 33.4348C314.315 35.0591 310.524 35.1945 307.411 33.4348C305.922 32.6226 304.704 31.4043 303.756 29.7799C302.809 28.1556 302.403 26.3959 302.403 24.3654V3.92546C302.403 3.92546 302.132 2.84255 301.726 2.43646C301.32 2.03037 300.914 1.75964 300.372 1.75964H300.237Z" fill="#313567"/>
<path d="M353.3 8.25705L341.117 37.4956C341.117 37.4956 340.576 38.5785 340.17 38.8493C339.764 39.12 339.222 39.3907 338.681 39.3907C337.869 39.3907 337.192 39.12 336.786 38.7139C336.379 38.3078 336.244 37.631 336.244 36.9542C336.244 36.6834 336.244 36.4127 336.38 36.142L350.187 2.84249C350.187 2.84249 350.728 1.75958 351.27 1.48886C351.811 1.21813 352.352 1.08276 352.894 1.08276C353.435 1.08276 353.977 1.21813 354.518 1.62422C355.06 1.89495 355.33 2.4364 355.601 2.97786L369.138 35.7359C369.138 35.7359 369.408 36.4127 369.408 36.8188C369.408 37.631 369.138 38.3078 368.596 38.7139C368.055 39.2554 367.513 39.3907 366.836 39.3907C366.295 39.3907 365.753 39.2554 365.347 38.8493C364.941 38.5785 364.535 38.0371 364.4 37.4956L352.082 8.39241H353.435L353.3 8.25705ZM343.283 29.7799L345.72 24.6361H361.016L361.963 29.7799H343.283Z" fill="#313567"/>
<path d="M366.701 40.0676C366.024 40.0676 365.347 39.7968 364.806 39.3908C364.265 38.9847 363.858 38.4432 363.588 37.7664L360.474 30.4567H344.772L341.794 37.7664C341.794 37.7664 341.117 38.9847 340.576 39.3908C340.034 39.7968 339.358 39.9322 338.681 39.9322C337.598 39.9322 336.921 39.6615 336.38 38.9847C335.838 38.4432 335.567 37.631 335.567 36.8188C335.567 36.4128 335.567 36.142 335.838 35.7359L349.645 2.43644C349.916 1.75962 350.322 1.0828 350.999 0.676709C351.54 0.270618 352.217 0.135254 352.894 0.135254H353.029C353.029 0.135254 354.383 0.405981 354.924 0.676709C355.466 1.0828 356.007 1.62426 356.143 2.30107L369.679 35.0591C369.679 35.0591 369.95 36.0067 369.95 36.4128C369.95 37.3603 369.544 38.1725 369.002 38.8493C368.325 39.3908 367.649 39.7968 366.836 39.7968L366.701 40.0676ZM361.963 30.5921L364.806 37.3603C364.806 37.3603 365.212 38.1725 365.618 38.4432C366.43 38.9847 367.243 38.9847 368.055 38.3078C368.461 37.9017 368.596 37.4957 368.596 36.8188C368.596 36.5481 368.596 36.2774 368.461 36.0067L354.924 3.24862C354.924 3.24862 354.518 2.43644 354.112 2.16571C353.706 1.89498 353.3 1.75962 352.894 1.75962C352.894 1.75962 352.082 1.75962 351.811 2.03035C351.405 2.30107 351.134 2.5718 350.999 3.11326L337.192 36.4128C337.192 36.4128 337.192 36.8188 337.192 36.9542C337.192 37.4957 337.327 37.9017 337.598 38.1725C338.004 38.5786 339.087 38.8493 340.034 38.1725C340.305 37.9017 340.576 37.631 340.711 37.0896L343.554 30.3214C343.554 30.3214 343.148 30.3214 343.012 30.0507C343.012 29.9153 342.877 29.6446 343.012 29.3738L345.449 24.23C345.449 24.23 345.855 23.8239 345.99 23.8239H346.261L352.082 9.88145L351.54 8.52781C351.54 8.52781 351.54 8.12172 351.54 7.98635C351.54 7.85099 351.811 7.71563 352.082 7.71563H353.435C353.435 7.71563 353.841 7.71563 353.977 7.85099C354.112 7.98635 354.112 8.25708 353.977 8.52781L353.3 10.0168L359.121 23.9593H361.016C361.016 23.9593 361.557 24.23 361.693 24.5007L362.64 29.6446C362.64 29.6446 362.64 30.0507 362.505 30.186C362.505 30.3214 362.234 30.4567 361.963 30.4567V30.5921ZM345.314 29.2385H359.933L358.308 25.4483H346.938L345.314 29.2385ZM359.662 25.4483L360.88 28.4263L360.339 25.4483H359.662ZM347.479 24.0946H357.632L352.488 11.9119L347.479 24.0946Z" fill="#313567"/>
<path d="M98.4099 61.4551H100.846L107.209 75.939H104.637L99.6282 63.8916L94.6198 75.939H92.0479L98.4099 61.4551ZM95.1612 70.5245H103.825V72.5549H95.1612V70.5245Z" fill="#313567"/>
<path d="M113.3 60.5076H115.736V75.8037H113.3V60.5076Z" fill="#313567"/>
<path d="M121.693 64.8391H124.13L126.972 73.6378L129.679 64.8391H132.116L134.959 73.6378L137.801 64.8391H140.238L136.177 75.8036H133.74L130.898 67.5464L128.055 75.8036H125.619L121.558 64.8391H121.693Z" fill="#313567"/>
<path d="M149.307 70.9305C148.495 70.9305 147.953 70.9305 147.547 71.3366C147.141 71.6073 147.006 72.0134 147.006 72.4195C147.006 72.8256 147.141 73.367 147.547 73.6378C147.953 73.9085 148.495 74.0438 149.172 74.0438C149.713 74.0438 150.255 74.0438 150.796 73.7731C151.202 73.5024 151.608 73.2317 151.879 72.9609C152.15 72.5548 152.285 72.2841 152.285 71.7427L152.691 73.7731C152.285 74.4499 151.879 74.9914 151.067 75.3975C150.255 75.8036 149.578 75.9389 148.495 75.9389C147.683 75.9389 147.006 75.8036 146.464 75.5329C145.923 75.2621 145.382 74.856 145.111 74.3146C144.84 73.7731 144.569 73.2317 144.569 72.5549C144.569 71.6073 144.975 70.7951 145.652 70.1183C146.329 69.5768 147.412 69.1708 148.766 69.1708H152.42V70.7951H149.172L149.307 70.9305ZM152.285 68.9C152.285 68.2232 152.014 67.6817 151.608 67.2757C151.202 66.8696 150.525 66.7342 149.578 66.7342C149.036 66.7342 148.495 66.7342 147.953 67.0049C147.412 67.1403 146.871 67.5464 146.329 67.8171L145.382 66.3281C145.382 66.3281 146.329 65.7867 146.871 65.5159C147.277 65.2452 147.818 65.1098 148.36 64.9745C148.901 64.9745 149.442 64.8391 150.119 64.8391C151.608 64.8391 152.691 65.2452 153.368 65.922C154.18 66.5988 154.451 67.5464 154.586 68.7647V75.9389H152.285V69.0354V68.9Z" fill="#313567"/>
<path d="M165.957 77.4281C165.551 78.2403 165.145 78.9171 164.468 79.3232C163.791 79.7293 163.114 80 162.302 80C161.761 80 161.354 80 160.948 79.7293C160.542 79.5939 160.136 79.3232 159.73 79.0524L160.678 77.2927C160.678 77.2927 161.625 77.8342 162.167 77.8342C162.573 77.8342 162.843 77.8342 163.114 77.5634C163.385 77.2927 163.656 77.022 163.791 76.6159L164.197 75.8037L159.595 64.9746H162.031L165.28 73.5025L168.393 64.9746H170.83L165.821 77.5634L165.957 77.4281Z" fill="#313567"/>
<path d="M182.877 67.5465C182.877 67.5465 181.794 67.0051 181.253 66.8697C180.711 66.7344 180.17 66.599 179.629 66.599C179.222 66.599 178.816 66.599 178.546 66.8697C178.275 67.0051 178.14 67.4112 178.14 67.8173C178.14 68.2234 178.275 68.3587 178.546 68.6295C178.816 68.7648 179.222 69.0355 179.629 69.1709C180.035 69.1709 180.576 69.4416 180.982 69.577C181.524 69.7124 181.93 69.9831 182.336 70.1185C182.742 70.3892 183.148 70.6599 183.419 71.066C183.689 71.4721 183.825 72.0135 183.825 72.6904C183.825 73.5025 183.689 74.044 183.283 74.5855C182.877 75.1269 182.336 75.3976 181.794 75.6684C181.118 75.9391 180.441 76.0745 179.764 76.0745C178.952 76.0745 178.14 76.0745 177.327 75.6684C176.515 75.3976 175.838 74.9916 175.297 74.5855L176.109 72.9611C176.109 72.9611 177.192 73.7733 177.869 73.9086C178.546 74.1794 179.222 74.3147 179.764 74.3147C180.17 74.3147 180.441 74.3147 180.711 74.3147C180.982 74.3147 181.253 74.044 181.388 73.9086C181.524 73.7733 181.659 73.5025 181.659 73.2318C181.659 72.8257 181.659 72.555 181.253 72.2843C180.847 72.0136 180.576 71.8782 180.17 71.7428C179.764 71.6075 179.222 71.4721 178.816 71.3367C178.275 71.2014 177.869 70.9306 177.463 70.7953C177.057 70.5245 176.651 70.2538 176.38 69.8477C176.109 69.4416 175.974 68.9002 175.974 68.2234C175.974 67.5465 176.109 66.8697 176.515 66.4636C176.921 66.0575 177.463 65.6515 178.004 65.5161C178.546 65.3807 179.222 65.2454 180.035 65.2454C180.847 65.2454 181.388 65.2454 182.065 65.5161C182.742 65.6515 183.283 65.9222 183.825 66.3283L183.013 67.9526L182.877 67.5465Z" fill="#313567"/>
<path d="M203.859 70.9305C203.047 70.9305 202.505 70.9305 202.099 71.3366C201.693 71.6073 201.558 72.0134 201.558 72.4195C201.558 72.8256 201.693 73.367 202.099 73.6378C202.505 73.9085 203.047 74.0438 203.723 74.0438C204.265 74.0438 204.806 74.0438 205.348 73.7731C205.754 73.5024 206.16 73.2317 206.431 72.9609C206.701 72.5548 206.837 72.2841 206.837 71.7427L207.243 73.7731C206.837 74.4499 206.431 74.9914 205.619 75.3975C204.806 75.8036 204.13 75.9389 203.047 75.9389C202.234 75.9389 201.558 75.8036 201.016 75.5329C200.475 75.2621 199.933 74.856 199.663 74.3146C199.392 73.7731 199.121 73.2317 199.121 72.5549C199.121 71.6073 199.527 70.7951 200.204 70.1183C200.881 69.5768 201.964 69.1708 203.317 69.1708H206.972V70.7951H203.723L203.859 70.9305ZM206.837 68.9C206.837 68.2232 206.566 67.6817 206.16 67.2757C205.754 66.8696 205.077 66.7342 204.13 66.7342C203.588 66.7342 203.047 66.7342 202.505 67.0049C201.964 67.1403 201.422 67.5464 200.881 67.8171L199.933 66.3281C199.933 66.3281 200.881 65.7867 201.422 65.5159C201.828 65.2452 202.37 65.1098 202.911 64.9745C203.453 64.9745 203.994 64.8391 204.671 64.8391C206.16 64.8391 207.243 65.2452 207.92 65.922C208.732 66.5988 209.003 67.5464 209.138 68.7647V75.9389H206.837V69.0354V68.9Z" fill="#313567"/>
<path d="M232.42 67.5465C232.42 67.5465 231.473 67.0051 230.796 66.8697C230.254 66.7344 229.713 66.599 229.171 66.599C228.63 66.599 228.359 66.599 227.953 66.8697C227.682 67.0051 227.547 67.4112 227.547 67.8173C227.547 68.2234 227.682 68.3587 227.953 68.6295C228.224 68.7648 228.63 69.0355 229.036 69.1709C229.442 69.1709 229.984 69.4416 230.39 69.577C230.931 69.7124 231.337 69.9831 231.879 70.1185C232.285 70.3892 232.691 70.6599 232.962 71.066C233.232 71.4721 233.368 72.0135 233.368 72.6904C233.368 73.5025 233.232 74.044 232.826 74.5855C232.42 75.1269 231.879 75.3976 231.337 75.6684C230.66 75.9391 229.984 76.0745 229.307 76.0745C228.495 76.0745 227.682 76.0745 226.87 75.6684C226.058 75.3976 225.381 74.9916 224.84 74.5855L225.652 72.9611C225.652 72.9611 226.735 73.7733 227.412 73.9086C228.089 74.1794 228.765 74.3147 229.307 74.3147C229.713 74.3147 229.984 74.3147 230.254 74.3147C230.525 74.3147 230.796 74.044 230.931 73.9086C231.067 73.7733 231.202 73.5025 231.202 73.2318C231.202 72.8257 231.067 72.555 230.796 72.2843C230.525 72.0136 230.119 71.8782 229.713 71.7428C229.307 71.6075 228.765 71.4721 228.359 71.3367C227.818 71.2014 227.412 70.9306 227.006 70.7953C226.6 70.5245 226.193 70.2538 225.923 69.8477C225.652 69.4416 225.517 68.9002 225.517 68.2234C225.517 67.5465 225.652 66.8697 226.058 66.4636C226.464 66.0575 227.006 65.6515 227.547 65.5161C228.089 65.2454 228.765 65.2454 229.578 65.2454C230.39 65.2454 230.931 65.2454 231.608 65.5161C232.285 65.6515 232.826 65.9222 233.368 66.3283L232.556 67.9526L232.42 67.5465Z" fill="#313567"/>
<path d="M238.918 65.2452H246.092V66.8696H238.918V65.2452ZM242.844 72.4195C242.844 72.4195 242.844 73.3671 243.114 73.6378C243.385 73.9085 243.656 73.9085 243.926 73.9085C244.197 73.9085 244.468 73.9085 244.739 73.9085C245.009 73.9085 245.28 73.6378 245.686 73.5024L246.228 75.2621C246.228 75.2621 245.415 75.6682 244.874 75.8036C244.333 75.939 243.926 76.0743 243.52 76.0743C242.979 76.0743 242.437 76.0743 242.031 75.8036C241.625 75.5329 241.219 75.2621 240.948 74.7207C240.678 74.3146 240.542 73.6378 240.542 72.961V62.4026H242.844V72.5549V72.4195Z" fill="#313567"/>
<path d="M260.17 69.5768C260.17 69.5768 260.034 68.4939 259.764 67.9525C259.493 67.411 259.222 67.1403 258.681 66.8696C258.275 66.5988 257.733 66.4635 257.056 66.4635C256.38 66.4635 255.838 66.5988 255.297 66.8696C254.755 67.1403 254.484 67.5464 254.214 68.0878C253.943 68.6293 253.808 69.3061 253.808 69.9829C253.808 70.7951 253.943 71.4719 254.214 72.0134C254.484 72.5549 254.891 73.0963 255.432 73.367C255.973 73.6378 256.515 73.9085 257.327 73.9085C258.545 73.9085 259.628 73.5024 260.44 72.5549L261.659 73.7731C261.659 73.7731 260.44 74.856 259.628 75.1268C258.816 75.3975 258.004 75.6682 257.056 75.6682C255.973 75.6682 254.891 75.3975 254.078 74.9914C253.266 74.5853 252.589 73.9085 252.048 73.0963C251.642 72.2841 251.371 71.3366 251.371 70.2537C251.371 69.1708 251.642 68.2232 252.048 67.411C252.589 66.5988 253.131 65.922 254.078 65.5159C254.891 64.9745 255.838 64.8391 256.921 64.8391C258.275 64.8391 259.222 65.1098 260.034 65.6513C260.847 66.1927 261.388 66.8696 261.659 67.9525C261.929 69.0354 262.065 70.1183 262.065 71.3366H253.266V69.5768H260.034H260.17Z" fill="#313567"/>
<path d="M268.833 64.8391H271.27V79.8645H268.833V64.8391ZM275.06 64.8391C276.143 64.8391 277.09 65.1098 277.767 65.5159C278.579 66.0574 279.121 66.5988 279.662 67.5464C280.068 68.3586 280.339 69.3061 280.339 70.5244C280.339 71.7427 280.068 72.5548 279.662 73.367C279.256 74.1792 278.579 74.856 277.902 75.2621C277.09 75.8036 276.278 75.9389 275.195 75.9389C274.112 75.9389 273.3 75.6682 272.623 75.2621C271.946 74.856 271.405 74.1792 270.999 73.367C270.593 72.5548 270.457 71.6073 270.457 70.389C270.457 69.1708 270.593 68.2232 270.999 67.411C271.405 66.5988 271.946 65.922 272.623 65.5159C273.3 65.1098 274.248 64.8391 275.195 64.8391H275.06ZM274.518 66.7342C274.518 66.7342 273.3 66.8696 272.759 67.2757C272.217 67.6817 271.811 68.0878 271.54 68.6293C271.27 69.1708 271.134 69.8476 271.134 70.5244C271.134 71.2012 271.27 71.878 271.54 72.4195C271.811 72.9609 272.217 73.367 272.759 73.7731C273.3 74.0438 273.841 74.1792 274.518 74.1792C275.195 74.1792 275.737 74.0439 276.278 73.6378C276.819 73.2317 277.226 72.8256 277.496 72.2841C277.767 71.7427 277.902 71.0658 277.902 70.389C277.902 69.7122 277.767 69.0354 277.496 68.4939C277.226 67.9525 276.819 67.5464 276.278 67.1403C275.737 66.7342 275.195 66.5988 274.518 66.5988V66.7342Z" fill="#313567"/>
<path d="M300.238 70.9305C299.426 70.9305 298.884 70.9305 298.478 71.3366C298.072 71.6073 297.937 72.0134 297.937 72.4195C297.937 72.8256 298.072 73.367 298.478 73.6378C298.884 73.9085 299.426 74.0438 300.102 74.0438C300.644 74.0438 301.185 74.0438 301.727 73.7731C302.133 73.5024 302.539 73.2317 302.81 72.9609C303.08 72.5548 303.216 72.2841 303.216 71.7427L303.622 73.7731C303.216 74.4499 302.81 74.9914 301.997 75.3975C301.185 75.8036 300.508 75.9389 299.426 75.9389C298.613 75.9389 297.937 75.8036 297.395 75.5329C296.854 75.2621 296.312 74.856 296.041 74.3146C295.771 73.7731 295.5 73.2317 295.5 72.5549C295.5 71.6073 295.906 70.7951 296.583 70.1183C297.26 69.5768 298.343 69.1708 299.696 69.1708H303.351V70.7951H300.102L300.238 70.9305ZM303.216 68.9C303.216 68.2232 302.945 67.6817 302.539 67.2757C302.133 66.8696 301.456 66.7342 300.508 66.7342C299.967 66.7342 299.426 66.7342 298.884 67.0049C298.343 67.1403 297.801 67.5464 297.26 67.8171L296.312 66.3281C296.312 66.3281 297.26 65.7867 297.801 65.5159C298.207 65.2452 298.749 65.1098 299.29 64.9745C299.832 64.9745 300.373 64.8391 301.05 64.8391C302.539 64.8391 303.622 65.2452 304.299 65.922C305.111 66.5988 305.382 67.5464 305.517 68.7647V75.9389H303.216V69.0354V68.9Z" fill="#313567"/>
<path d="M313.097 60.5076H315.398V75.8037H313.097V60.5076ZM321.219 69.7123C321.219 68.9001 320.948 68.2233 320.542 67.6819C320.136 67.1404 319.459 67.005 318.647 67.005C317.699 67.005 316.887 67.4111 316.345 68.0879C315.804 68.7648 315.533 69.5769 315.533 70.6599H314.856C314.856 69.3062 314.992 68.2233 315.398 67.4111C315.804 66.5989 316.345 65.9221 317.022 65.6514C317.699 65.2453 318.511 65.1099 319.594 65.1099C320.406 65.1099 321.219 65.2453 321.76 65.6514C322.437 66.0575 322.843 66.4636 323.114 67.1404C323.384 67.8172 323.655 68.494 323.655 69.4416V76.2098H321.354V69.983L321.219 69.7123Z" fill="#313567"/>
<path d="M338.546 69.5768C338.546 69.5768 338.41 68.4939 338.14 67.9525C337.869 67.411 337.598 67.1403 337.057 66.8696C336.651 66.5988 336.109 66.4635 335.432 66.4635C334.756 66.4635 334.214 66.5988 333.673 66.8696C333.131 67.1403 332.86 67.5464 332.59 68.0878C332.319 68.6293 332.184 69.3061 332.184 69.9829C332.184 70.7951 332.319 71.4719 332.59 72.0134C332.86 72.5549 333.267 73.0963 333.808 73.367C334.349 73.6378 334.891 73.9085 335.703 73.9085C336.921 73.9085 338.004 73.5024 338.816 72.5549L340.035 73.7731C340.035 73.7731 338.816 74.856 338.004 75.1268C337.192 75.3975 336.38 75.6682 335.432 75.6682C334.349 75.6682 333.267 75.3975 332.454 74.9914C331.642 74.5853 330.965 73.9085 330.424 73.0963C330.018 72.2841 329.747 71.3366 329.747 70.2537C329.747 69.1708 330.018 68.2232 330.424 67.411C330.965 66.5988 331.507 65.922 332.454 65.5159C333.267 64.9745 334.214 64.8391 335.297 64.8391C336.651 64.8391 337.598 65.1098 338.41 65.6513C339.223 66.1927 339.764 66.8696 340.035 67.9525C340.305 69.0354 340.441 70.1183 340.441 71.3366H331.642V69.5768H338.41H338.546Z" fill="#313567"/>
<path d="M350.864 70.9305C350.052 70.9305 349.51 70.9305 349.104 71.3366C348.698 71.6073 348.563 72.0134 348.563 72.4195C348.563 72.8256 348.698 73.367 349.104 73.6378C349.51 73.9085 350.052 74.0438 350.728 74.0438C351.27 74.0438 351.811 74.0438 352.353 73.7731C352.759 73.5024 353.165 73.2317 353.436 72.9609C353.706 72.5548 353.842 72.2841 353.842 71.7427L354.248 73.7731C353.842 74.4499 353.436 74.9914 352.623 75.3975C351.811 75.8036 351.134 75.9389 350.052 75.9389C349.239 75.9389 348.563 75.8036 348.021 75.5329C347.48 75.2621 346.938 74.856 346.667 74.3146C346.397 73.7731 346.126 73.2317 346.126 72.5549C346.126 71.6073 346.532 70.7951 347.209 70.1183C347.886 69.5768 348.969 69.1708 350.322 69.1708H353.977V70.7951H350.728L350.864 70.9305ZM353.842 68.9C353.842 68.2232 353.571 67.6817 353.165 67.2757C352.759 66.8696 352.082 66.7342 351.134 66.7342C350.593 66.7342 350.052 66.7342 349.51 67.0049C348.969 67.1403 348.427 67.5464 347.886 67.8171L346.938 66.3281C346.938 66.3281 347.886 65.7867 348.427 65.5159C348.833 65.2452 349.375 65.1098 349.916 64.9745C350.458 64.9745 350.999 64.8391 351.676 64.8391C353.165 64.8391 354.248 65.2452 354.925 65.922C355.737 66.5988 356.008 67.5464 356.143 68.7647V75.9389H353.842V69.0354V68.9Z" fill="#313567"/>
<path d="M367.648 64.8392C368.731 64.8392 369.543 65.1099 370.22 65.516C370.897 65.9221 371.438 66.5989 371.845 67.4111C372.251 68.2233 372.386 69.1709 372.386 70.3891C372.386 71.472 372.251 72.555 371.845 73.3671C371.438 74.1793 370.897 74.8561 370.22 75.2622C369.543 75.6683 368.596 75.939 367.648 75.939C366.701 75.939 365.753 75.6683 364.941 75.2622C364.129 74.8561 363.587 74.1793 363.046 73.2318C362.64 72.4196 362.369 71.472 362.369 70.2538C362.369 69.0355 362.64 68.2233 363.046 67.4111C363.452 66.5989 364.129 65.9221 364.941 65.516C365.753 64.9746 366.565 64.8392 367.648 64.8392ZM368.19 66.7343C368.19 66.7343 366.971 66.8697 366.43 67.2758C365.889 67.6818 365.482 68.0879 365.212 68.6294C364.941 69.1709 364.806 69.8477 364.806 70.5245C364.806 71.2013 364.941 71.8781 365.212 72.4196C365.482 72.961 365.889 73.3671 366.43 73.7732C366.971 74.1793 367.513 74.3147 368.19 74.3147C368.867 74.3147 369.408 74.1793 369.95 73.7732C370.491 73.3671 370.897 73.0964 371.168 72.4196C371.439 71.7428 371.574 71.2013 371.574 70.5245C371.574 69.8477 371.439 69.1709 371.168 68.6294C370.897 68.0879 370.491 67.6818 369.95 67.2758C369.408 66.8697 368.867 66.7343 368.19 66.7343ZM371.574 60.5076H374.01V75.8037H371.574V60.5076Z" fill="#313567"/>
</g>
<defs>
<clipPath id="clip0_97_617">
<rect width="374.01" height="80" fill="white"/>
</clipPath>
</defs>
</svg>
