<svg width="148" height="30" viewBox="0 0 148 30" fill="none" xmlns="http://www.w3.org/2000/svg">
<g clip-path="url(#clip0_97_954)">
<path d="M0.216606 15.4332C0.487365 15.9747 0.974729 16.2996 1.62455 16.2996C1.89531 16.2996 2.11191 16.2455 2.38267 16.1372L27.13 3.03249C27.509 2.81588 27.7798 2.54512 27.8881 2.11191C27.9964 1.6787 27.9964 1.29964 27.7798 0.920576C27.5632 0.541514 27.2924 0.270756 26.8592 0.162453C26.4801 0.0541498 26.0469 0.0541498 25.6679 0.270756L9.58484 8.71841V1.5704C9.58484 1.13718 9.42238 0.758121 9.09747 0.433211C8.77256 0.108301 8.3935 -0.0541534 7.96029 -0.0541534C7.52708 -0.0541534 7.14801 0.108301 6.8231 0.433211C6.55235 0.758121 6.38989 1.13718 6.38989 1.5704V10.343L3.08664 12.0758V1.89531C3.08664 1.46209 2.92419 1.08303 2.59928 0.758121C2.27437 0.433211 1.89531 0.270756 1.46209 0.270756C1.02888 0.270756 0.649819 0.433211 0.32491 0.758121C0.162455 1.08303 0 1.46209 0 1.89531V14.6209C0 14.8917 0 15.1625 0.162455 15.4332H0.216606ZM15.4332 16.3538L27.13 10.1805C27.509 9.9639 27.7798 9.63899 27.8881 9.25993C27.9964 8.82671 27.9964 8.44765 27.7798 8.06859C27.5632 7.68953 27.2924 7.41877 26.8592 7.31047C26.4801 7.20216 26.0469 7.20216 25.6679 7.41877L0.866426 20.4693C0.216606 20.7942 0.108303 21.3357 0.0541516 22.0939V28.4296C0.0541516 28.8628 0.162455 29.2419 0.487365 29.5668C0.812274 29.8917 1.19134 30.0542 1.62455 30.0542C2.05776 30.0542 2.43682 29.8917 2.76173 29.5668C3.08664 29.2419 3.2491 28.8628 3.2491 28.4296V22.7978L12.4549 17.9242V18.0325L12.6173 18.0866L25.6137 29.6751C25.8845 29.8917 26.2094 30 26.5343 30C27.0758 30 27.509 29.7834 27.7798 29.3502C28.0505 29.0253 28.1588 28.5921 28.0505 28.1588C27.9964 27.7256 27.7798 27.4007 27.4549 27.13L15.4874 16.2996L15.4332 16.3538Z" fill="#313567"/>
<path d="M38.772 21.8231C38.447 21.8231 38.1221 21.7148 37.9597 21.4982C37.7431 21.2816 37.6348 21.0108 37.6348 20.6859V7.74368C37.6348 7.41877 37.7431 7.14801 37.9597 6.93141C38.1763 6.7148 38.447 6.6065 38.8261 6.6065C39.151 6.6065 39.4218 6.7148 39.6384 6.93141C39.855 7.14801 39.9633 7.41877 39.9633 7.74368V20.6859C39.9633 21.0108 39.855 21.2816 39.6384 21.4982C39.4218 21.7148 39.151 21.8231 38.8261 21.8231H38.772ZM48.3026 6.6065C48.5734 6.6065 48.8442 6.7148 49.0066 6.98556C49.1691 7.25632 49.2774 7.47292 49.2774 7.68953C49.2774 7.90614 49.1691 8.17689 48.9525 8.3935L39.6384 17.2744L39.5301 14.6751L47.4362 6.98556C47.707 6.7148 48.0319 6.55235 48.3026 6.55235V6.6065ZM48.1943 21.8773C47.8694 21.8773 47.5987 21.7148 47.3821 21.444L41.9669 14.5126L43.6456 12.8339L49.1691 19.9819C49.1691 19.9819 49.4398 20.4693 49.4398 20.7401C49.4398 21.065 49.3315 21.3899 49.0608 21.5523C48.79 21.7148 48.5192 21.8773 48.1943 21.8773Z" fill="#313567"/>
<path d="M48.2487 22.0939C47.8155 22.0939 47.4906 21.9314 47.2199 21.5523L42.2379 15.1625L40.1801 17.1119V20.7401C40.1801 21.1191 40.0177 21.444 39.8011 21.7148C39.5303 21.9856 39.2054 22.0939 38.7722 22.0939C38.339 22.0939 38.0141 21.9856 37.7433 21.7148C37.4726 21.444 37.3643 21.1191 37.3643 20.7401V7.74368C37.3643 7.36462 37.5267 7.03971 37.7433 6.76895C38.0141 6.49819 38.339 6.38989 38.7722 6.38989C39.2054 6.38989 39.5303 6.55235 39.7469 6.76895C40.0177 7.03971 40.126 7.36462 40.126 7.74368V13.6462L47.1657 6.8231C47.8155 6.17328 48.6819 6.17328 49.1693 6.8231C49.3859 7.09386 49.4942 7.41877 49.4942 7.68953C49.4942 8.01444 49.3859 8.2852 49.1152 8.55596L44.2415 13.1588L49.3318 19.7653C49.5484 20.0361 49.6567 20.361 49.6567 20.6859C49.6567 21.1191 49.4942 21.4982 49.1693 21.7148C48.8444 21.9314 48.5195 22.0939 48.1404 22.0939H48.2487ZM42.6711 14.7834L47.6531 21.2274C47.978 21.6606 48.4653 21.6065 48.8986 21.2816C49.1152 21.1191 49.1693 20.9567 49.1693 20.6859C49.1693 20.4693 49.1152 20.2527 48.9527 20.0903L43.9166 13.5379L42.617 14.7834H42.6711ZM38.8805 6.87726C38.6097 6.87726 38.3931 6.93141 38.2307 7.09386C38.0682 7.25632 38.0141 7.47292 38.0141 7.68953V20.6318C38.0141 20.6318 38.0682 21.065 38.2307 21.2274C38.5014 21.5523 39.2054 21.5523 39.4762 21.2274C39.6386 21.065 39.6928 20.8484 39.7469 20.6318V17.4368C39.7469 17.4368 39.6928 17.4368 39.6386 17.4368C39.5303 17.4368 39.4762 17.3285 39.4762 17.2202L39.3679 14.6209C39.3679 14.6209 39.3679 14.4585 39.422 14.4043L39.7469 14.1336V7.74368C39.7469 7.74368 39.6928 7.31047 39.5303 7.14801C39.3679 6.98556 39.2054 6.93141 38.9347 6.93141L38.8805 6.87726ZM40.2343 14.3502V16.2996L41.913 14.6751L41.8047 14.5668C41.8047 14.5668 41.7505 14.296 41.8047 14.1877L43.4834 12.509C43.4834 12.509 43.5917 12.4007 43.7 12.4549C43.7541 12.4549 43.8625 12.4549 43.9166 12.5632L44.0249 12.6715L48.8444 8.06859C48.8444 8.06859 49.061 7.74368 49.061 7.58123C49.061 7.41877 49.0069 7.20216 48.8444 7.03971C48.5736 6.66065 48.0321 6.7148 47.6531 7.09386L40.2343 14.296V14.3502Z" fill="#313567"/>
<path d="M54.0977 16.1913C53.7728 16.1913 53.5562 16.083 53.3396 15.8664C53.123 15.6498 53.0146 15.3791 53.0146 15.1083C53.0146 14.8375 53.123 14.5126 53.3396 14.3502C53.5562 14.1877 53.8269 14.0794 54.0977 14.0794H58.1591C58.484 14.0794 58.7006 14.1877 58.9172 14.4043C59.1338 14.6209 59.2421 14.8917 59.2421 15.2166C59.2421 15.5415 59.1338 15.7581 58.9172 15.9747C58.7006 16.1913 58.4298 16.2455 58.1591 16.2455H54.0977V16.1913Z" fill="#313567"/>
<path d="M58.1588 16.4621H54.0974C53.7183 16.4621 53.3934 16.3538 53.1227 16.083C52.8519 15.8123 52.6895 15.4874 52.6895 15.1083C52.6895 14.7292 52.8519 14.4043 53.1227 14.1336C53.3934 13.917 53.7183 13.7545 54.0974 13.7545H58.1588C58.5378 13.7545 58.8627 13.8628 59.1335 14.1336C59.4043 14.4043 59.5126 14.7292 59.5126 15.1083C59.5126 15.4874 59.3501 15.8123 59.0793 16.0289C58.8086 16.2455 58.4837 16.4079 58.1046 16.4079L58.1588 16.4621ZM54.0974 14.296C54.0974 14.296 53.6642 14.3502 53.5017 14.5126C53.3393 14.6751 53.2851 14.8375 53.2851 15.0541C53.2851 15.2708 53.3393 15.4874 53.5559 15.6498C53.7183 15.8123 53.9349 15.8664 54.1515 15.8664H58.2129C58.2129 15.8664 58.6461 15.8123 58.8086 15.6498C58.971 15.4874 59.0252 15.3249 59.0252 15.1083C59.0252 14.8375 58.971 14.6751 58.8086 14.5126C58.6461 14.3502 58.4295 14.296 58.2129 14.296H54.1515H54.0974Z" fill="#313567"/>
<path d="M72.1298 19.7112C72.4547 19.7112 72.7255 19.8195 72.9421 20.0361C73.1587 20.2527 73.267 20.4693 73.267 20.7942C73.267 21.1191 73.1587 21.3357 72.9421 21.5523C72.7255 21.769 72.4547 21.8773 72.1298 21.8773H64.8735C64.5486 21.8773 64.2778 21.769 64.0612 21.5523C63.8446 21.3357 63.7363 21.065 63.7363 20.7401V7.74368C63.7363 7.41877 63.8446 7.14801 64.0612 6.9314C64.2778 6.7148 64.5486 6.60649 64.9277 6.60649C65.1984 6.60649 65.4692 6.7148 65.6858 6.9314C65.9024 7.14801 66.0107 7.41877 66.0107 7.74368V20.0361L65.5775 19.657H72.1298V19.7112Z" fill="#313567"/>
<path d="M72.1296 22.0939H64.8733C64.4943 22.0939 64.1694 21.9856 63.8986 21.7148C63.6278 21.444 63.5195 21.1191 63.5195 20.7401V7.74368C63.5195 7.36462 63.6278 7.03971 63.8986 6.76895C64.1694 6.49819 64.4943 6.38989 64.9275 6.38989C65.3065 6.38989 65.5773 6.49819 65.9022 6.76895C66.173 7.03971 66.3354 7.36462 66.3354 7.74368V19.3863H72.1296C72.5087 19.3863 72.8336 19.4946 73.1044 19.7653C73.3751 20.0361 73.4834 20.361 73.4834 20.7401C73.4834 21.1191 73.3751 21.444 73.1044 21.7148C72.8336 21.9856 72.5087 22.0939 72.1296 22.0939ZM64.9275 6.93141C64.9275 6.93141 64.4401 6.98556 64.2777 7.14801C64.1152 7.31047 64.061 7.52707 64.061 7.74368V20.6859C64.061 20.6859 64.1152 21.1191 64.2777 21.2816C64.4401 21.444 64.6567 21.4982 64.8733 21.4982H72.1296C72.1296 21.4982 72.5629 21.444 72.7253 21.2816C72.8878 21.1191 72.9419 20.9567 72.9419 20.7401C72.9419 20.5235 72.8878 20.3069 72.7253 20.1986C72.5629 20.0361 72.3462 19.9819 72.1296 19.9819H66.3354V20.0903C66.3354 20.0903 66.2813 20.3069 66.173 20.3069C66.0647 20.3069 65.9564 20.3069 65.9022 20.3069L65.469 19.9278C65.469 19.9278 65.3607 19.7112 65.3607 19.6029C65.3607 19.4946 65.5231 19.4404 65.6314 19.4404H65.7939V7.74368C65.7939 7.74368 65.6856 7.31047 65.5231 7.14801C65.3607 6.98556 65.1441 6.93141 64.9275 6.93141Z" fill="#313567"/>
<path d="M79.6566 20.6859C79.6566 21.0108 79.4942 21.2816 79.2776 21.4982C79.061 21.7148 78.7902 21.8231 78.4653 21.8231C78.1404 21.8231 77.8155 21.7148 77.653 21.4982C77.4364 21.2816 77.3281 21.0108 77.3281 20.6859V7.74368C77.3281 7.41877 77.4364 7.14801 77.653 6.9314C77.8696 6.7148 78.1404 6.60649 78.5195 6.60649C78.7902 6.60649 79.061 6.7148 79.2776 6.9314C79.4942 7.14801 79.6025 7.41877 79.6025 7.74368V20.6859H79.6566Z" fill="#313567"/>
<path d="M78.4656 22.0939C78.0323 22.0939 77.7074 21.9856 77.4367 21.7148C77.1659 21.444 77.0576 21.1191 77.0576 20.7401V7.74368C77.0576 7.36462 77.2201 7.03971 77.4367 6.76895C77.7074 6.49819 78.0323 6.38989 78.4656 6.38989C78.7905 6.38989 79.1695 6.49819 79.4403 6.76895C79.711 7.03971 79.8735 7.36462 79.8735 7.74368V20.6859C79.8735 21.065 79.711 21.3899 79.4403 21.6606C79.1695 21.9314 78.8446 22.0397 78.4656 22.0397V22.0939ZM78.4656 6.93141C78.1948 6.93141 77.9782 6.98556 77.8157 7.14801C77.6533 7.31047 77.5991 7.52707 77.5991 7.74368V20.6859C77.5991 20.6859 77.6533 21.1191 77.8157 21.2816C77.9782 21.444 78.1948 21.4982 78.4656 21.4982C78.6822 21.4982 78.8988 21.444 79.0612 21.2816C79.2237 21.1191 79.332 20.9025 79.332 20.6859V7.74368C79.332 7.74368 79.2237 7.31047 79.0612 7.14801C78.8988 6.98556 78.6822 6.93141 78.4656 6.93141Z" fill="#313567"/>
<path d="M96.1189 6.66065C96.3897 6.66065 96.6604 6.76895 96.8229 6.93141C96.9853 7.14801 97.0936 7.36462 97.0936 7.63538V20.6859C97.0936 21.0108 96.9853 21.2816 96.7687 21.4982C96.5521 21.7148 96.2814 21.8231 95.9565 21.8231C95.794 21.8231 95.6315 21.8231 95.4691 21.7148C95.3066 21.6065 95.1983 21.5523 95.09 21.4982L86.2092 9.9639L86.6965 9.63899V20.7942C86.6965 20.7942 86.5882 21.2816 86.4258 21.4982C86.2092 21.7148 85.9926 21.769 85.7218 21.769C85.451 21.769 85.1803 21.6607 85.0178 21.4982C84.8554 21.3357 84.7471 21.065 84.7471 20.7942V7.74368C84.7471 7.41877 84.8554 7.14801 85.072 6.93141C85.2886 6.7148 85.5593 6.6065 85.8843 6.6065C86.0467 6.6065 86.2092 6.6065 86.3716 6.7148C86.5341 6.76895 86.6965 6.87726 86.7507 6.98556L95.4149 18.3033L95.09 18.6282V7.63538C95.09 7.36462 95.1983 7.09386 95.3608 6.93141C95.5232 6.76895 95.794 6.66065 96.0648 6.66065H96.1189Z" fill="#313567"/>
<path d="M96.0109 22.0939C96.0109 22.0939 95.6318 22.0939 95.4152 21.9856C95.1986 21.9314 95.0361 21.8231 94.9278 21.6606L87.0217 11.3718V20.7942C87.0217 21.1191 86.9134 21.444 86.6426 21.6606C86.1553 22.148 85.2347 22.148 84.8015 21.6606C84.5849 21.444 84.4766 21.1191 84.4766 20.7942V7.74368C84.4766 7.36462 84.5849 7.03971 84.8556 6.76895C85.2347 6.38989 85.8304 6.28159 86.426 6.49819C86.6968 6.6065 86.8592 6.7148 86.9675 6.87726L94.8195 17.1119V7.63538C94.8195 7.25632 94.9278 6.98556 95.1444 6.7148C95.361 6.44404 95.6859 6.33574 96.065 6.33574C96.4441 6.33574 96.7148 6.44404 96.9856 6.7148C97.2022 6.98556 97.3105 7.25632 97.3105 7.63538V20.6859C97.3105 21.065 97.2022 21.3899 96.9314 21.6606C96.6607 21.9314 96.3358 22.0397 95.9567 22.0397L96.0109 22.0939ZM87.0217 10.5054L95.361 21.3357C95.361 21.3357 95.4693 21.444 95.6318 21.4982C95.9567 21.6065 96.3358 21.5523 96.6065 21.3357C96.769 21.1733 96.8231 20.9567 96.8231 20.7401V7.63538C96.8231 7.63538 96.769 7.25632 96.6065 7.09386C96.3358 6.8231 95.7942 6.8231 95.5776 7.09386C95.4152 7.25632 95.361 7.41877 95.361 7.63538V17.8159L95.6318 18.1408C95.6318 18.1408 95.6859 18.4116 95.6318 18.5199L95.3069 18.8448C95.3069 18.8448 95.0903 18.9531 95.0361 18.8448C94.9278 18.8448 94.8737 18.6823 94.8737 18.574V17.9242L86.5885 7.09386C86.5885 7.09386 86.426 6.93141 86.3177 6.87726C85.8845 6.7148 85.5596 6.76895 85.2888 7.03971C85.1264 7.20217 85.0722 7.41877 85.0722 7.63538V20.6859C85.0722 20.6859 85.1264 21.065 85.2888 21.2274C85.5596 21.4982 86.047 21.4982 86.3177 21.2274C86.4802 21.065 86.5343 20.9025 86.5343 20.7401V10.6137L86.1011 10.018C86.1011 10.018 86.047 9.85559 86.1011 9.80144C86.1011 9.74729 86.1553 9.63899 86.2094 9.63899L86.6968 9.31408C86.6968 9.31408 86.9134 9.31408 86.9675 9.31408C87.0758 9.31408 87.13 9.47653 87.13 9.53069V10.3971L87.0217 10.5054Z" fill="#313567"/>
<path d="M109.332 22.0397C108.195 22.0397 107.166 21.8231 106.246 21.444C105.325 21.065 104.459 20.4693 103.755 19.7653C103.051 19.0614 102.455 18.1949 102.076 17.2744C101.697 16.3538 101.48 15.3249 101.48 14.2419C101.48 13.1588 101.697 12.13 102.076 11.2094C102.509 10.2888 103.051 9.42238 103.755 8.71841C104.459 8.01444 105.325 7.47292 106.246 7.03971C107.166 6.66065 108.195 6.44404 109.332 6.44404C110.036 6.44404 110.74 6.49819 111.39 6.66065C112.04 6.8231 112.636 7.03971 113.177 7.36462C113.34 7.47292 113.502 7.58123 113.61 7.74368C113.719 7.90614 113.719 8.06859 113.719 8.23105C113.719 8.5018 113.61 8.77256 113.394 8.98917C113.177 9.20577 112.961 9.31408 112.636 9.31408C112.527 9.31408 112.419 9.31408 112.311 9.31408C112.202 9.31408 112.094 9.25993 111.986 9.20578C111.553 9.04332 111.174 8.88087 110.686 8.77256C110.253 8.66426 109.766 8.61011 109.224 8.61011C108.195 8.61011 107.221 8.88087 106.408 9.36823C105.596 9.85559 104.892 10.5596 104.405 11.3718C103.917 12.2383 103.701 13.1588 103.701 14.2419C103.701 15.3249 103.917 16.2455 104.405 17.1119C104.892 17.9783 105.542 18.6282 106.408 19.1697C107.275 19.657 108.195 19.9278 109.224 19.9278C109.712 19.9278 110.253 19.8736 110.849 19.7653C111.39 19.657 111.878 19.4946 112.257 19.278L112.094 19.8736V15.7581L112.419 16.083H109.603C109.278 16.083 109.008 15.9747 108.791 15.7581C108.574 15.5415 108.466 15.2708 108.466 15C108.466 14.7292 108.574 14.4043 108.791 14.2419C109.008 14.0253 109.278 13.917 109.603 13.917H113.34C113.665 13.917 113.935 14.0253 114.152 14.2419C114.369 14.4585 114.477 14.7292 114.477 15.0542V19.8736C114.477 19.8736 114.423 20.3069 114.314 20.4693C114.206 20.6318 114.098 20.7401 113.935 20.8484C113.286 21.2274 112.527 21.5523 111.769 21.8231C110.957 22.0939 110.145 22.2022 109.332 22.2022V22.0397Z" fill="#313567"/>
<path d="M109.332 22.3105C108.195 22.3105 107.112 22.0939 106.137 21.7148C105.162 21.2816 104.296 20.7401 103.538 19.9819C102.78 19.278 102.184 18.4115 101.805 17.4368C101.372 16.4621 101.155 15.3791 101.155 14.296C101.155 13.213 101.372 12.0758 101.805 11.1552C102.238 10.1805 102.834 9.31408 103.538 8.61011C104.296 7.90613 105.162 7.31047 106.137 6.87725C107.112 6.44404 108.195 6.28159 109.332 6.28159C110.036 6.28159 110.794 6.33574 111.444 6.49819C112.094 6.66065 112.744 6.93141 113.339 7.20216C113.556 7.31047 113.773 7.52707 113.881 7.68953C113.989 7.90613 114.043 8.12274 114.043 8.33935C114.043 8.71841 113.935 8.98917 113.664 9.25993C113.339 9.63899 112.906 9.74729 112.365 9.63899C112.256 9.63899 112.148 9.58484 112.04 9.53068C111.607 9.31408 111.227 9.20577 110.794 9.09747C110.361 8.98917 109.874 8.93502 109.386 8.93502C108.412 8.93502 107.491 9.15162 106.679 9.63899C105.866 10.1264 105.271 10.7762 104.783 11.5884C104.35 12.4007 104.079 13.3213 104.079 14.296C104.079 15.2708 104.296 16.1913 104.783 17.0036C105.217 17.8159 105.866 18.4657 106.679 18.9531C107.87 19.657 109.278 19.8195 110.903 19.4946C111.282 19.3863 111.661 19.278 111.931 19.1697V16.2996H109.711C109.332 16.2996 109.007 16.1913 108.736 15.9206C108.466 15.6498 108.357 15.3249 108.357 14.9458C108.357 14.5668 108.466 14.2419 108.736 13.9711C109.007 13.7004 109.332 13.5921 109.711 13.5921H113.448C113.827 13.5921 114.152 13.7004 114.422 13.9711C114.693 14.2419 114.801 14.5668 114.801 14.9458V19.7653C114.801 20.0361 114.747 20.3069 114.585 20.5235C114.422 20.7401 114.314 20.8484 114.152 20.9567C113.448 21.3899 112.69 21.7148 111.877 21.9856C111.065 22.2563 110.199 22.3646 109.332 22.3646V22.3105ZM109.332 6.7148C108.249 6.7148 107.274 6.93141 106.354 7.31047C105.433 7.68953 104.621 8.23104 103.917 8.93502C103.213 9.63899 102.672 10.4513 102.292 11.3177C101.913 12.2383 101.697 13.213 101.697 14.2419C101.697 15.2708 101.913 16.2996 102.292 17.1661C102.672 18.0866 103.213 18.8989 103.917 19.5487C104.621 20.1986 105.433 20.7942 106.354 21.1733C107.978 21.8231 109.982 21.9314 111.715 21.3899C112.473 21.1733 113.177 20.8484 113.827 20.4693C113.935 20.4152 114.043 20.3069 114.152 20.1444C114.206 20.0361 114.26 19.8736 114.26 19.7112V14.8917C114.26 14.8917 114.206 14.4585 114.043 14.296C113.881 14.1336 113.664 14.0794 113.448 14.0794H109.711C109.711 14.0794 109.278 14.1336 109.116 14.296C108.953 14.4585 108.899 14.6209 108.899 14.8917C108.899 15.1625 108.953 15.3249 109.116 15.4874C109.278 15.6498 109.495 15.704 109.711 15.704H111.931C111.931 15.704 111.986 15.4874 112.094 15.4332C112.202 15.4332 112.311 15.4332 112.365 15.4332L112.69 15.7581C112.69 15.7581 112.798 15.9747 112.744 16.083C112.69 16.1913 112.581 16.2455 112.473 16.2455H112.419V18.9531C112.419 18.9531 112.419 18.9531 112.473 18.9531C112.581 19.0072 112.581 19.1155 112.581 19.2238L112.419 19.8195C112.419 19.8195 112.256 19.9819 112.148 20.0361C111.986 20.0361 111.931 19.8736 111.931 19.7653V19.657C111.661 19.7653 111.336 19.8195 111.011 19.9278C109.278 20.3069 107.708 20.0902 106.408 19.3321C105.542 18.7906 104.838 18.0866 104.35 17.2202C103.863 16.2996 103.592 15.3249 103.592 14.2419C103.592 13.1588 103.863 12.13 104.35 11.2635C104.838 10.3971 105.542 9.63899 106.408 9.15162C107.274 8.61011 108.303 8.33935 109.386 8.33935C109.928 8.33935 110.415 8.3935 110.903 8.5018C111.336 8.61011 111.823 8.77256 112.256 8.98917C112.365 8.98917 112.419 9.04332 112.527 9.09747C112.798 9.20577 113.069 9.09747 113.285 8.88086C113.448 8.71841 113.502 8.5018 113.502 8.2852C113.502 8.17689 113.502 8.01444 113.394 7.90613C113.339 7.79783 113.231 7.68953 113.069 7.63538C112.527 7.36462 111.931 7.09386 111.336 6.98556C110.686 6.8231 110.036 6.76895 109.332 6.76895V6.7148Z" fill="#313567"/>
<path d="M129.746 6.60649C130.071 6.60649 130.288 6.7148 130.505 6.9314C130.721 7.14801 130.775 7.41877 130.775 7.68953V15.9206C130.775 17.0578 130.505 18.0866 130.017 19.0072C129.53 19.9278 128.826 20.6318 127.959 21.1191C127.093 21.6065 126.064 21.8773 124.927 21.8773C123.79 21.8773 122.761 21.6065 121.894 21.1191C121.028 20.6318 120.324 19.8736 119.783 19.0072C119.241 18.1408 119.024 17.0578 119.024 15.9206V7.68953C119.024 7.36462 119.133 7.14801 119.349 6.9314C119.566 6.7148 119.837 6.60649 120.216 6.60649C120.487 6.60649 120.757 6.7148 120.974 6.9314C121.19 7.14801 121.299 7.41877 121.299 7.68953V15.9206C121.299 16.6787 121.461 17.3285 121.786 17.9242C122.111 18.5199 122.598 18.9531 123.14 19.278C123.681 19.6029 124.277 19.7653 124.927 19.7653C125.577 19.7653 126.227 19.6029 126.822 19.278C127.418 18.9531 127.851 18.5199 128.23 17.9242C128.609 17.3285 128.772 16.6787 128.772 15.9206V7.68953C128.772 7.36462 128.88 7.14801 129.042 6.9314C129.205 6.7148 129.476 6.60649 129.801 6.60649H129.746Z" fill="#313567"/>
<path d="M124.873 22.2022C123.682 22.2022 122.599 21.9314 121.678 21.3899C120.757 20.8484 119.999 20.0903 119.458 19.1697C118.916 18.2491 118.646 17.1119 118.646 15.9206V7.68953C118.646 7.31047 118.754 6.98556 119.025 6.7148C119.295 6.44404 119.62 6.33574 120.053 6.33574C120.378 6.33574 120.703 6.44404 120.974 6.7148C121.245 6.98556 121.407 7.31047 121.407 7.68953V15.9206C121.407 16.6245 121.57 17.2744 121.895 17.7617C122.22 18.3032 122.599 18.6823 123.14 19.0072C124.223 19.6029 125.523 19.6029 126.552 19.0072C127.093 18.6823 127.526 18.3032 127.851 17.7617C128.176 17.2202 128.339 16.6245 128.339 15.9206V7.68953C128.339 7.31047 128.447 6.98556 128.664 6.7148C128.88 6.44404 129.205 6.28159 129.638 6.28159C130.072 6.28159 130.342 6.44404 130.613 6.7148C130.83 6.98556 130.992 7.31047 130.992 7.68953V15.9206C130.992 17.1119 130.721 18.1949 130.18 19.1697C129.638 20.0903 128.934 20.8484 128.014 21.3899C127.093 21.9314 126.01 22.2022 124.819 22.2022H124.873ZM120.108 6.87725C119.837 6.87725 119.62 6.93141 119.458 7.09386C119.295 7.25631 119.241 7.47292 119.241 7.68953V15.9206C119.241 17.0036 119.512 18.0325 119.999 18.8989C120.487 19.7653 121.136 20.4693 122.003 20.9567C122.869 21.444 123.844 21.7148 124.927 21.7148C126.01 21.7148 126.985 21.444 127.851 20.9567C128.718 20.4693 129.368 19.7653 129.855 18.8989C130.342 18.0325 130.559 17.0578 130.559 15.9206V7.68953C130.559 7.68953 130.505 7.25631 130.342 7.09386C130.071 6.76895 129.476 6.76895 129.259 7.09386C129.097 7.25631 129.043 7.47292 129.043 7.68953V15.9206C129.043 16.7329 128.826 17.4368 128.447 18.0866C128.068 18.6823 127.581 19.1697 126.931 19.4946C125.739 20.1444 124.223 20.1986 122.978 19.4946C122.382 19.1697 121.895 18.6823 121.516 18.0325C121.136 17.3827 120.974 16.6787 120.974 15.8664V7.63538C120.974 7.63538 120.866 7.20216 120.703 7.03971C120.541 6.87725 120.378 6.76895 120.162 6.76895L120.108 6.87725Z" fill="#313567"/>
<path d="M141.335 9.47653L136.461 21.1733C136.461 21.1733 136.245 21.6065 136.082 21.7148C135.92 21.8231 135.703 21.9314 135.486 21.9314C135.162 21.9314 134.891 21.8231 134.728 21.6606C134.566 21.4982 134.512 21.2274 134.512 20.9567C134.512 20.8484 134.512 20.7401 134.566 20.6318L140.089 7.31047C140.089 7.31047 140.306 6.87725 140.523 6.76895C140.739 6.66065 140.956 6.60649 141.172 6.60649C141.389 6.60649 141.606 6.66065 141.822 6.8231C142.039 6.9314 142.147 7.14801 142.255 7.36462L147.671 20.4693C147.671 20.4693 147.779 20.7401 147.779 20.9025C147.779 21.2274 147.671 21.4982 147.454 21.6606C147.237 21.8773 147.021 21.9314 146.75 21.9314C146.533 21.9314 146.317 21.8773 146.154 21.7148C145.992 21.6065 145.829 21.3899 145.775 21.1733L140.847 9.53068H141.389L141.335 9.47653ZM137.328 18.0866L138.302 16.0289H144.421L144.801 18.0866H137.328Z" fill="#313567"/>
<path d="M146.696 22.148C146.425 22.148 146.155 22.0397 145.938 21.8773C145.721 21.7148 145.559 21.4982 145.451 21.2274L144.205 18.3032H137.924L136.732 21.2274C136.732 21.2274 136.461 21.7148 136.245 21.8773C136.028 22.0397 135.757 22.0939 135.487 22.0939C135.053 22.0939 134.783 21.9856 134.566 21.7148C134.35 21.4982 134.241 21.1733 134.241 20.8484C134.241 20.6859 134.241 20.5776 134.35 20.4152L139.873 7.09386C139.981 6.8231 140.144 6.55234 140.414 6.38989C140.685 6.22743 140.956 6.17328 141.227 6.17328C141.227 6.17328 141.768 6.28159 141.985 6.38989C142.201 6.55234 142.418 6.76895 142.472 7.03971L147.887 20.1444C147.887 20.1444 147.996 20.5235 147.996 20.6859C147.996 21.065 147.833 21.3899 147.617 21.6606C147.346 21.8773 147.075 22.0397 146.75 22.0397L146.696 22.148ZM144.801 18.3574L145.938 21.065C145.938 21.065 146.1 21.3899 146.263 21.4982C146.588 21.7148 146.913 21.7148 147.238 21.444C147.4 21.2816 147.454 21.1191 147.454 20.8484C147.454 20.7401 147.454 20.6318 147.4 20.5235L141.985 7.41877C141.985 7.41877 141.822 7.09386 141.66 6.98556C141.498 6.87725 141.335 6.8231 141.173 6.8231C141.173 6.8231 140.848 6.8231 140.739 6.93141C140.577 7.03971 140.469 7.14801 140.414 7.36462L134.891 20.6859C134.891 20.6859 134.891 20.8484 134.891 20.9025C134.891 21.1191 134.945 21.2816 135.053 21.3899C135.216 21.5523 135.649 21.6606 136.028 21.3899C136.137 21.2816 136.245 21.1733 136.299 20.9567L137.436 18.2491C137.436 18.2491 137.274 18.2491 137.22 18.1408C137.22 18.0866 137.165 17.9783 137.22 17.87L138.194 15.8123C138.194 15.8123 138.357 15.6498 138.411 15.6498H138.519L140.848 10.0722L140.631 9.53068C140.631 9.53068 140.631 9.36823 140.631 9.31408C140.631 9.25993 140.739 9.20577 140.848 9.20577H141.389C141.389 9.20577 141.552 9.20577 141.606 9.25993C141.66 9.31408 141.66 9.42238 141.606 9.53068L141.335 10.1264L143.664 15.704H144.422C144.422 15.704 144.638 15.8123 144.692 15.9206L145.072 17.9783C145.072 17.9783 145.072 18.1408 145.017 18.1949C145.017 18.2491 144.909 18.3032 144.801 18.3032V18.3574ZM138.14 17.8159H143.988L143.339 16.2996H138.79L138.14 17.8159ZM143.88 16.2996L144.368 17.491L144.151 16.2996H143.88ZM139.007 15.7581H143.068L141.01 10.8845L139.007 15.7581Z" fill="#313567"/>
</g>
<defs>
<clipPath id="clip0_97_954">
<rect width="147.942" height="30" fill="white"/>
</clipPath>
</defs>
</svg>
