<?xml version="1.0" encoding="UTF-8"?>
<svg id="Layer_2" data-name="Layer 2" xmlns="http://www.w3.org/2000/svg" viewBox="0 0 20.42 17.29">
  <defs>
    <style>
      .cls-1 {
        stroke-width: 0px;
      }

      .cls-1, .cls-2 {
        fill: #313567;
      }

      .cls-2 {
        stroke: #313567;
        stroke-linecap: round;
        stroke-linejoin: round;
        stroke-width: .1px;
      }
    </style>
  </defs>
  <g id="Layer_1-2" data-name="Layer 1">
    <g>
      <path class="cls-1" d="m6.45,4.66c.09.17.23.25.42.25.08,0,.15-.02.22-.06L14.58.91c.12-.06.2-.15.23-.28.04-.12.03-.24-.04-.36-.06-.12-.15-.2-.28-.23-.12-.04-.24-.03-.36.04l-4.84,2.55V.48c0-.13-.05-.24-.14-.34-.09-.09-.2-.14-.34-.14s-.24.05-.34.14c-.09.09-.13.21-.13.34v2.65l-1,.53V.57c0-.13-.05-.24-.14-.34-.09-.09-.21-.14-.34-.14s-.24.05-.34.14c-.09.09-.14.2-.14.34v3.84c0,.09.01.17.06.25h0Zm4.6.27l3.53-1.86c.12-.06.2-.16.23-.28.04-.13.03-.25-.04-.36-.06-.12-.15-.2-.28-.23-.12-.04-.24-.03-.36.03l-7.49,3.94c-.2.11-.24.27-.25.49v1.91c0,.13.04.24.13.34.09.09.2.14.34.14s.24-.05.34-.14c.09-.09.14-.2.14-.34v-1.69l2.78-1.46.02.03.03.02,3.92,3.49c.08.06.18.1.29.1.16,0,.29-.06.38-.19.08-.11.11-.22.09-.35-.02-.13-.08-.23-.18-.31l-3.61-3.26Z"/>
      <g>
        <path class="cls-2" d="m.26,14.61c-.06,0-.12-.02-.15-.06-.04-.04-.06-.09-.06-.15v-2.39c0-.06.02-.11.06-.15.04-.04.09-.06.16-.06.06,0,.11.02.15.06.04.04.06.09.06.15v2.39c0,.06-.02.11-.06.15-.04.04-.09.06-.15.06Zm1.76-2.81c.05,0,.1.02.13.07s.05.09.05.13-.02.09-.06.13l-1.72,1.64-.02-.48,1.46-1.42c.05-.05.11-.08.16-.08Zm-.02,2.82c-.06,0-.11-.03-.15-.08l-1-1.28.31-.31,1.02,1.32s.05.09.05.14c0,.06-.02.12-.07.15s-.1.06-.16.06Z"/>
        <path class="cls-2" d="m3.09,13.57c-.06,0-.1-.02-.14-.06-.04-.04-.06-.09-.06-.14s.02-.11.06-.14.09-.05.14-.05h.75c.06,0,.1.02.14.06s.06.09.06.15c0,.06-.02.1-.06.14s-.09.05-.14.05h-.75Z"/>
        <path class="cls-2" d="m6.42,14.22c.06,0,.11.02.15.06.04.04.06.08.06.14s-.02.1-.06.14c-.04.04-.09.06-.15.06h-1.34c-.06,0-.11-.02-.15-.06-.04-.04-.06-.09-.06-.15v-2.39c0-.06.02-.11.06-.15.04-.04.09-.06.16-.06.05,0,.1.02.14.06.04.04.06.09.06.15v2.27l-.08-.07h1.21Z"/>
        <path class="cls-2" d="m7.8,14.4c0,.06-.03.11-.07.15-.04.04-.09.06-.15.06-.06,0-.12-.02-.15-.06-.04-.04-.06-.09-.06-.15v-2.39c0-.06.02-.11.06-.15.04-.04.09-.06.16-.06.05,0,.1.02.14.06.04.04.06.09.06.15v2.39Z"/>
        <path class="cls-2" d="m10.85,11.81c.05,0,.1.02.13.05.03.04.05.08.05.13v2.41c0,.06-.02.11-.06.15s-.09.06-.15.06c-.03,0-.06,0-.09-.02s-.05-.03-.07-.04l-1.64-2.13.09-.06v2.06s-.02.09-.05.13c-.04.04-.08.05-.13.05s-.1-.02-.13-.05-.05-.08-.05-.13v-2.41c0-.06.02-.11.06-.15.04-.04.09-.06.15-.06.03,0,.06,0,.09.02.03.01.06.03.07.05l1.6,2.09-.06.06v-2.03c0-.05.02-.1.05-.13s.08-.05.13-.05Z"/>
        <path class="cls-2" d="m13.28,14.65c-.21,0-.4-.04-.57-.11s-.33-.18-.46-.31c-.13-.13-.24-.29-.31-.46-.07-.17-.11-.36-.11-.56s.04-.39.11-.56c.08-.17.18-.33.31-.46.13-.13.29-.23.46-.31.17-.07.36-.11.57-.11.13,0,.26.01.38.04s.23.07.33.13c.03.02.06.04.08.07.02.03.02.06.02.09,0,.05-.02.1-.06.14-.04.04-.08.06-.14.06-.02,0-.04,0-.06,0-.02,0-.04-.01-.06-.02-.08-.03-.15-.06-.24-.08-.08-.02-.17-.03-.27-.03-.19,0-.37.05-.52.14-.15.09-.28.22-.37.37-.09.16-.13.33-.13.53s.04.37.13.53c.09.16.21.28.37.38.16.09.33.14.52.14.09,0,.19-.01.3-.03.1-.02.19-.05.26-.09l-.03.11v-.76l.06.06h-.52c-.06,0-.11-.02-.15-.06-.04-.04-.06-.09-.06-.14s.02-.11.06-.14c.04-.04.09-.06.15-.06h.69c.06,0,.11.02.15.06.04.04.06.09.06.15v.89s-.01.08-.03.11-.04.05-.07.07c-.12.07-.26.13-.4.18-.15.05-.3.07-.45.07Z"/>
        <path class="cls-2" d="m17.05,11.8c.06,0,.1.02.14.06.04.04.05.09.05.14v1.52c0,.21-.05.4-.14.57-.09.17-.22.3-.38.39-.16.09-.35.14-.56.14s-.4-.05-.56-.14-.29-.23-.39-.39-.14-.36-.14-.57v-1.52c0-.06.02-.1.06-.14s.09-.06.16-.06c.05,0,.1.02.14.06s.06.09.06.14v1.52c0,.14.03.26.09.37s.15.19.25.25c.1.06.21.09.33.09.12,0,.24-.03.35-.09.11-.06.19-.14.26-.25.07-.11.1-.23.1-.37v-1.52c0-.06.02-.1.05-.14s.08-.06.14-.06Z"/>
        <path class="cls-2" d="m19.19,12.33l-.9,2.16s-.04.08-.07.1c-.03.02-.07.04-.11.04-.06,0-.11-.02-.14-.05s-.04-.08-.04-.13c0-.02,0-.04.01-.06l1.02-2.46s.04-.08.08-.1c.04-.02.08-.03.12-.03.04,0,.08.01.12.04.04.02.06.06.08.1l1,2.42s.02.05.02.08c0,.06-.02.11-.06.14-.04.04-.08.05-.13.05-.04,0-.08-.01-.11-.04-.03-.02-.06-.06-.07-.1l-.91-2.15h.1Zm-.74,1.59l.18-.38h1.13l.07.38h-1.38Z"/>
      </g>
      <g>
        <path class="cls-1" d="m.45,16.37h.16l.4.91h-.17l-.32-.76-.32.76H.05l.4-.91Zm-.2.57h.55v.13H.25v-.13Z"/>
        <path class="cls-1" d="m1.39,16.37h.15v.78h.4v.13h-.55v-.91Z"/>
        <path class="cls-1" d="m2.23,16.37h.17l.25.82h-.04l.25-.82h.15l.25.82h-.04l.24-.82h.16l-.31.91h-.16l-.24-.79h.04s-.24.79-.24.79h-.16l-.31-.91Z"/>
        <path class="cls-1" d="m4.21,16.37h.16l.4.91h-.17l-.32-.76-.32.76h-.16l.4-.91Zm-.2.57h.55v.13h-.55v-.13Z"/>
        <path class="cls-1" d="m4.97,16.37h.16l.26.45.26-.45h.16l-.4.72h-.02l-.4-.72Zm.34.53h.15v.38h-.15v-.38Z"/>
        <path class="cls-1" d="m6.73,16.58s-.07-.04-.1-.05c-.03-.01-.06-.02-.09-.03-.03,0-.05,0-.08,0-.05,0-.08,0-.11.03-.03.02-.04.04-.04.08,0,.03,0,.05.03.07s.04.03.07.04c.03.01.06.02.1.03.04,0,.07.02.1.03.04.01.07.03.1.05.03.02.05.04.07.08s.03.07.03.12c0,.05-.01.1-.04.14-.03.04-.07.07-.12.09-.05.02-.11.03-.18.03-.05,0-.09,0-.14-.02-.05-.01-.09-.03-.13-.05-.04-.02-.07-.05-.11-.08l.07-.13s.06.05.1.07c.04.02.07.04.11.05s.07.02.1.02c.05,0,.1-.01.13-.03s.04-.05.04-.09c0-.03,0-.05-.03-.07-.02-.02-.04-.03-.07-.05-.03-.01-.06-.02-.1-.03-.04,0-.07-.02-.11-.03s-.07-.03-.1-.05c-.03-.02-.05-.04-.07-.07-.02-.03-.03-.07-.03-.12,0-.05.01-.1.04-.13.03-.04.07-.07.12-.09.05-.02.11-.03.17-.03.06,0,.12,0,.17.03.06.02.1.04.15.07l-.06.13Z"/>
        <path class="cls-1" d="m8.15,16.37h.16l.4.91h-.17l-.32-.76-.32.76h-.16l.4-.91Zm-.2.57h.55v.13h-.55v-.13Z"/>
        <path class="cls-1" d="m10.25,16.58s-.07-.04-.1-.05c-.03-.01-.06-.02-.09-.03-.03,0-.05,0-.08,0-.05,0-.08,0-.11.03-.03.02-.04.04-.04.08,0,.03,0,.05.03.07s.04.03.07.04c.03.01.06.02.1.03.04,0,.07.02.1.03.04.01.07.03.1.05.03.02.05.04.07.08s.03.07.03.12c0,.05-.01.1-.04.14-.03.04-.07.07-.12.09-.05.02-.11.03-.18.03-.05,0-.09,0-.14-.02-.05-.01-.09-.03-.13-.05-.04-.02-.07-.05-.11-.08l.07-.13s.06.05.1.07c.04.02.07.04.11.05s.07.02.1.02c.05,0,.1-.01.13-.03s.04-.05.04-.09c0-.03,0-.05-.03-.07-.02-.02-.04-.03-.07-.05-.03-.01-.06-.02-.1-.03-.04,0-.07-.02-.11-.03s-.07-.03-.1-.05c-.03-.02-.05-.04-.07-.07-.02-.03-.03-.07-.03-.12,0-.05.01-.1.04-.13.03-.04.07-.07.12-.09.05-.02.11-.03.17-.03.06,0,.12,0,.17.03.06.02.1.04.15.07l-.06.13Z"/>
        <path class="cls-1" d="m10.66,16.37h.73v.13h-.29v.78h-.15v-.78h-.29v-.13Z"/>
        <path class="cls-1" d="m11.78,16.37h.65v.13h-.5v.26h.45v.13h-.45v.26h.51v.13h-.67v-.91Z"/>
        <path class="cls-1" d="m13.26,16.37c.12,0,.2.03.27.08.06.05.09.13.09.23,0,.1-.03.18-.09.24-.06.06-.15.09-.27.09h-.28l.07-.07v.35h-.15v-.91h.36Zm0,.5c.07,0,.12-.02.16-.05.04-.03.06-.08.06-.14s-.02-.11-.06-.14c-.04-.03-.09-.04-.16-.04h-.27l.07-.07v.51l-.07-.07h.27Z"/>
        <path class="cls-1" d="m14.93,16.37h.16l.4.91h-.17l-.32-.76-.32.76h-.16l.4-.91Zm-.2.57h.55v.13h-.55v-.13Z"/>
        <path class="cls-1" d="m15.87,16.37h.15v.4h.48v-.4h.15v.91h-.15v-.38h-.48v.38h-.15v-.91Z"/>
        <path class="cls-1" d="m17.16,16.37h.65v.13h-.5v.26h.45v.13h-.45v.26h.51v.13h-.67v-.91Z"/>
        <path class="cls-1" d="m18.56,16.37h.16l.4.91h-.17l-.32-.76-.32.76h-.16l.4-.91Zm-.2.57h.55v.13h-.55v-.13Z"/>
        <path class="cls-1" d="m19.88,16.37c.07,0,.13.01.19.03.06.02.11.05.15.09s.08.09.1.14.04.12.04.18-.01.13-.04.18c-.02.06-.06.1-.1.14-.04.04-.09.07-.15.1-.06.02-.12.03-.19.03h-.37v-.91h.37Zm0,.78s.08,0,.12-.02.07-.04.1-.07c.03-.03.05-.06.07-.1.02-.04.02-.08.02-.13s0-.09-.02-.13c-.02-.04-.04-.07-.07-.1-.03-.03-.06-.05-.1-.07-.04-.02-.08-.02-.13-.02h-.22v.65h.22Z"/>
      </g>
    </g>
  </g>
</svg>