<svg width="855" height="382" viewBox="0 0 855 382" fill="none" xmlns="http://www.w3.org/2000/svg">
<path d="M0 175.757C0 175.622 0.00076052 175.494 0.00707944 175.359C0.183794 171.581 4.62909 114.185 111.5 121.439C222 128.939 477 246.439 634 234.439C718.357 227.991 775.865 211.472 811.022 197.567C830.059 190.037 855 204.387 855 224.859V340.554C855 354.361 843.807 365.554 830 365.554H427.5H25C11.1929 365.554 0 354.361 0 340.554V175.757Z" fill="#F5FBFF"/>
<path d="M295.819 228.276C311.652 138.866 339.883 60.3886 385 26C467 -36.5 557.501 237.205 577.001 344.204C580.738 364.709 522.236 331.734 430.5 329.5C398.788 328.728 368.388 360.809 328.001 360.204C296.834 362.416 245.929 386.32 223 329.5C211.499 301 216.5 228.5 249.5 205C257.571 199.252 262.657 193.247 281.501 202C288.823 208.712 293.001 218.723 295.819 228.276Z" fill="#EDE7FF"/>
<path d="M598.5 359.704C582.5 316.704 585.667 282.388 556 246.054L492.5 353.704C571 353.704 556 359.704 598.5 359.704Z" fill="#EDE7FF"/>
<path d="M301 217.5C292.65 232.56 288.657 245.532 289.116 256.626C289.913 258.981 290.539 261.834 290.591 265.646C296.796 286.415 322.159 299.397 367.5 306.437C477.001 323.437 553 323.5 546 236.5C559 256.5 627.5 353.937 599 364.937C537.618 370.401 481.183 377.06 436.5 378C358.525 379.64 304.064 371.446 233.5 363.5C224.5 348.063 207 291.5 220.5 265C228 267.5 239 279 243 279C261.446 279 276.5 283 271.5 279C280.043 272.872 290.306 278.195 290 273.5C290.452 270.484 290.622 267.898 290.591 265.646C289.737 262.788 289.246 259.783 289.116 256.626C285.698 246.53 279.121 245.578 301 217.5Z" fill="#FF9797"/>
<path d="M300.5 15.6811L319 138.181C355 57.6811 434 118.681 448.5 130.181C460.1 139.381 496 139.348 512.5 138.181C529.833 109.181 551 44.0811 497 15.6811C443 -12.7189 343.5 3.84778 300.5 15.6811Z" fill="#FFD16C"/>
<mask id="mask0_102_2677" style="mask-type:alpha" maskUnits="userSpaceOnUse" x="300" y="0" width="232" height="139">
<path d="M300.5 15.6811L319 138.181C355 57.6811 434 118.681 448.5 130.181C460.1 139.381 496 139.348 512.5 138.181C529.833 109.181 551 44.0811 497 15.6811C443 -12.7189 343.5 3.84778 300.5 15.6811Z" fill="#FFD16C"/>
</mask>
<g mask="url(#mask0_102_2677)">
<path d="M411.541 2.68739C419.34 61.1543 399.763 117.258 389 138.001C435.171 121.548 445.871 39.8343 445.449 1.03437C430.897 -22.7758 403.742 -55.7795 411.541 2.68739Z" fill="#FFF1D2" fill-opacity="0.76"/>
<path d="M355.409 11.3372C343.807 69.1696 359.676 126.432 369.061 147.835C324.063 128.399 318.725 46.1617 321.681 7.4723C337.758 -15.3363 367.011 -46.4953 355.409 11.3372Z" fill="#FFF1D2" fill-opacity="0.76"/>
<path d="M497.15 18.0025C498.394 106.56 464 139.5 460.5 148C507.378 133.683 522.028 56.5548 523.388 17.7764C509.944 -6.67662 496.321 -40.9764 497.15 18.0025Z" fill="#FFF1D2" fill-opacity="0.76"/>
<path d="M530.856 24.5202C529.5 96.5 503.332 136.363 488 154C536.744 148.844 555.507 68.6875 564.205 30.8726C555.648 4.31178 531.966 -34.4541 530.856 24.5202Z" fill="#FFF1D2" fill-opacity="0.76"/>
</g>
<path d="M300.5 251.437C303.223 257.502 310.451 279.38 311.532 302.937M310 327.437C311.544 319.46 311.907 311.098 311.532 302.937M311.532 302.937C314.188 316.937 326.1 334.937 340.5 346.937" stroke="#313567" stroke-width="3" stroke-linecap="round" stroke-linejoin="round"/>
<path d="M389 153C384.5 155.667 380.5 162 380.5 165.5C380.5 171.5 387.667 172.5 391.5 170.5" stroke="#313567" stroke-width="3" stroke-linecap="round" stroke-linejoin="round"/>
<path d="M410.5 137.856C415.333 134.689 426.5 135.856 436 139.24" stroke="#313567" stroke-width="3" stroke-linecap="round" stroke-linejoin="round"/>
<path d="M341 137.856C345.833 134.689 357 135.856 366.5 139.24" stroke="#313567" stroke-width="3" stroke-linecap="round" stroke-linejoin="round"/>
<path d="M511.779 121.377C500.033 120.601 495.262 138.028 494.345 146.839C502.702 152.999 519.964 163.854 522.164 157.992C524.913 150.664 526.46 122.347 511.779 121.377Z" fill="#EDE7FF"/>
<path d="M493.754 146.004C495.496 137.549 501.725 120.682 512.709 120.851C526.438 121.062 527.256 164.403 513.847 171.189C500.438 177.975 498.636 152.936 504.65 146.927C509.462 142.12 509.636 149.573 509.122 153.901" stroke="#313567" stroke-width="3" stroke-linecap="round" stroke-linejoin="round"/>
<path d="M517 306.937C511.667 319.937 501.2 348.037 502 356.437" stroke="#313567" stroke-width="3" stroke-linecap="round" stroke-linejoin="round"/>
<path d="M239.145 260.504C261.095 285.21 283.786 283.668 306.449 264.893" stroke="#313567" stroke-width="3" stroke-linecap="round" stroke-linejoin="round"/>
<path d="M262.307 196.434C253.582 198.697 234.705 212.837 229 251.29" stroke="#313567" stroke-width="3" stroke-linecap="round" stroke-linejoin="round"/>
<rect x="276.181" y="160.878" width="20" height="88" rx="4" transform="rotate(13.034 276.181 160.878)" fill="#313567"/>
<path d="M283 209C286.2 209 290.333 216 292 219.5C287.667 219.833 278.8 220 278 218C277 215.5 279 209 283 209Z" fill="#EDE7FF"/>
<path d="M283.785 248.362C280.545 237.674 275.125 215.016 279.363 209.882C283.602 204.748 290.435 213.868 293.322 219.069" stroke="#313567" stroke-width="3" stroke-linecap="round" stroke-linejoin="round"/>
<path d="M392.588 381L439 376.963C439 376.963 417.133 312.817 402.853 283.212C394.274 265.428 383 239.223 379 232.5C375 225.777 366.259 224 366.259 224C366.259 224 356.5 222.438 348 222C339.5 221.562 209.345 220.104 203.001 220.5C195.001 221 194 226 194 226C194 226 191.153 231.327 196 237.5C204.819 248.732 225.499 265.15 238.627 289.492C252.328 314.898 261.293 349.813 271.65 368.889L392.588 381Z" fill="white"/>
<path d="M609.5 364.999C575.499 360.999 520 376.5 487.5 376.5C449.395 376.5 426.5 342.999 398 310C369.5 277.001 363.234 232.84 377.5 228C391.925 223.105 441 228.5 513 301C513 301 556 295 567 261C580.5 281 601.5 333 609.5 364.999Z" fill="#EDE7FF"/>
<path d="M492.5 280C515.7 276.8 536.667 249.5 547.5 234.5C592 269 611 362 611.5 365.5C609 365.5 621 358.5 513 372.5C489.769 375.511 473.053 378.475 468.499 358.5C466.981 351.84 471.799 326.815 471.997 320C472.581 299.935 480.203 281.696 492.5 280Z" fill="#FF9797"/>
<path d="M390.874 301.368L390.5 301.5C447 398 496 373 506.5 372.5C517 372 532.5 323.5 529 307.5C525.5 291.5 452.5 251.5 447 250C443.516 282.848 417.74 291.916 390.874 301.368Z" fill="#FF9797"/>
<path d="M567.395 233.275C560.895 224.775 534.395 235.275 533.395 237.275C522.395 242.14 478.895 292.275 495.895 284.275C509.495 277.875 548.395 258.775 587.395 267.275C587.395 260.275 572.595 240.075 567.395 233.275Z" fill="#FF9797"/>
<circle cx="419.5" cy="144.5" r="6.5" fill="#313567" stroke="#313567" stroke-width="3" stroke-linecap="round" stroke-linejoin="round"/>
<circle cx="357.5" cy="144.5" r="6.5" fill="#313567" stroke="#313567" stroke-width="3" stroke-linecap="round" stroke-linejoin="round"/>
<path d="M473 264.5C491.5 273 518 294.5 534.5 313.5" stroke="#313567" stroke-width="3" stroke-linecap="round" stroke-linejoin="round"/>
<path d="M374.5 231C402 227 427.7 237.4 446.5 251" stroke="#313567" stroke-width="3" stroke-linecap="round" stroke-linejoin="round"/>
<path d="M501.5 269.5C507 261.333 530 230.5 557 230.5M508.5 290C516.833 280 542.8 261.1 580 265.5" stroke="#313567" stroke-width="3" stroke-linecap="round" stroke-linejoin="round"/>
<path d="M584.5 365C588.902 363.701 596.366 358.483 601 344" stroke="#313567" stroke-width="3" stroke-linecap="round" stroke-linejoin="round"/>
<path d="M443 265C442 271.167 429.5 296 398 298.5" stroke="#313567" stroke-width="3" stroke-linecap="round" stroke-linejoin="round"/>
<path d="M446.5 250C444 243.5 441 231.5 427 229.5C419.575 228.439 406 231 398.5 231" stroke="#313567" stroke-width="3" stroke-linecap="round" stroke-linejoin="round"/>
<path d="M374 193C380.667 193.167 396.4 192.1 406 186.5" stroke="#313567" stroke-width="3" stroke-linecap="round" stroke-linejoin="round"/>
<path d="M202.5 245C222.5 263.5 239.5 282.5 263 348.5M202.5 222.5C301 217.5 324 218.5 358 222.5M376 271.5C385 297.5 409.5 333 422.5 345.5" stroke="#313567" stroke-width="3" stroke-linecap="round" stroke-linejoin="round"/>
<path d="M520 125C520 123.5 532.5 105 531 70M452 132.5C460 118.667 473.4 77.7 463 24.5M461 135C468.167 129.5 482.9 112 484.5 86M319.5 138C317.5 118 312.3 73.9 307.5 57.5M357.5 99.5C354 88 350.5 70 354 44M400.5 102C404.833 93.5 413.5 75 412 44" stroke="#313567" stroke-width="3" stroke-linecap="round" stroke-linejoin="round"/>
<path d="M334 85.5C337 98.5 341.5 103 341.5 103M436.5 85.5C431.5 98.5 424.5 104 424.5 104" stroke="#313567" stroke-width="3" stroke-linecap="round" stroke-linejoin="round"/>
<path d="M134 363.937C134 363.937 141.479 363.937 152.5 363.937M753.5 363.937C753.5 363.937 746.299 363.937 735 363.937M722 363.937C712.448 363.937 701.435 363.937 690 363.937M675.5 363.937C642.874 363.937 610.347 363.937 601 363.937C580.5 363.937 450.5 380.937 410 379.437C369.5 377.937 259 363.937 233.5 363.937C219.921 363.937 192.588 363.937 170 363.937" stroke="#313567" stroke-width="3" stroke-linecap="round" stroke-linejoin="round"/>
</svg>
