<svg width="28" height="28" viewBox="0 0 28 28" fill="none" xmlns="http://www.w3.org/2000/svg">
<path d="M24.0573 9.85841C22.8323 4.46841 18.1306 2.04175 14.0006 2.04175C14.0006 2.04175 14.0006 2.04175 13.989 2.04175C9.8706 2.04175 5.15727 4.45675 3.93227 9.84675C2.56727 15.8667 6.25393 20.9651 9.5906 24.1734C10.8273 25.3634 12.414 25.9584 14.0006 25.9584C15.5873 25.9584 17.174 25.3634 18.399 24.1734C21.7356 20.9651 25.4223 15.8784 24.0573 9.85841ZM14.0006 15.7034C11.9706 15.7034 10.3256 14.0584 10.3256 12.0284C10.3256 9.99841 11.9706 8.35341 14.0006 8.35341C16.0306 8.35341 17.6756 9.99841 17.6756 12.0284C17.6756 14.0584 16.0306 15.7034 14.0006 15.7034Z" fill="#313567"/>
</svg>
