<svg width="855" height="420" viewBox="0 0 855 420" fill="none" xmlns="http://www.w3.org/2000/svg">
<path d="M0 213.757C0 213.622 0.00076052 213.495 0.00707944 213.359C0.183794 209.582 4.62909 152.185 111.5 159.439C222 166.939 477 284.439 634 272.439C718.357 265.991 775.865 249.472 811.022 235.567C830.059 228.037 855 242.387 855 262.859V378.554C855 392.361 843.807 403.554 830 403.554H427.5H25C11.1929 403.554 0 392.361 0 378.554V213.757Z" fill="#F0F8FF"/>
<path d="M295 201C303 165 303.667 133.333 303 122C315.667 123 341.9 128.2 345.5 141C350 157 346 245 315 269C284 293 285 246 295 201Z" fill="#F38181"/>
<path d="M290.706 315.096C311.616 194.827 362.229 63.0382 416 22.054C498 -40.446 557.501 275.205 577.001 382.204C582.029 409.797 485.216 400.558 328.001 398.204C296.834 400.416 235.801 394.904 229.001 385.704C220.501 374.204 146.5 283 179.5 259.5C187.571 253.752 203.762 256.247 222.606 265C225.514 266.351 220 256.935 226.5 257.5C238 258.5 246.471 278.618 249.5 280.5C264.423 289.771 278.589 301.368 290.706 315.096Z" fill="#EDE7FF"/>
<path d="M598.5 397.704C582.5 354.704 585.667 320.388 556 284.054L492.5 391.704C571 391.704 556 397.704 598.5 397.704Z" fill="#EDE7FF"/>
<path d="M522.5 141.439C510.9 139.439 504.333 156.272 502.5 164.939C510.167 171.939 526.2 184.539 529 178.939C532.5 171.939 537 143.939 522.5 141.439Z" fill="#EDE7FF"/>
<path d="M228.434 295.775C225.194 285.087 219.773 262.429 224.012 257.295C228.25 252.161 235.084 261.281 237.97 266.482" stroke="#313567" stroke-width="3" stroke-linecap="round" stroke-linejoin="round"/>
<path d="M599.001 402.937C627.501 391.937 548 261 535 241C527.406 303.651 477.258 310.558 406.5 312C402.717 312.077 398.882 323 395 323C390.649 322.325 388.485 312.704 384.5 312C321.168 300.803 298.885 292.011 305 244.5C298 282.5 292 283 289.5 314C284 303.5 266 288 251.5 283C256.5 287 251 306.5 235.5 316.5C211.789 331.797 196.5 339.5 193 337.5C202 361 215.834 374.437 231.5 399.437C409 425.437 430.501 417.937 599.001 402.937Z" fill="#ACCDC4"/>
<path d="M292 315.343C296.199 320.498 308.838 339.763 315.974 362.239M320.829 386.302C320.257 378.198 318.446 370.025 315.974 362.239M315.974 362.239C322.159 375.076 338.32 389.384 355.334 397.252" stroke="#313567" stroke-width="3" stroke-linecap="round" stroke-linejoin="round"/>
<path d="M502 164.046C504.616 155.82 512.575 139.696 523.48 141.012C537.112 142.658 533.394 185.846 519.35 191.194C505.305 196.541 506.131 171.45 512.74 166.103C518.028 161.825 517.422 169.257 516.458 173.507" stroke="#313567" stroke-width="3" stroke-linecap="round" stroke-linejoin="round"/>
<path d="M411 183C406.5 185.667 402.5 192 402.5 195.5C402.5 201.5 409.667 202.5 413.5 200.5" stroke="#313567" stroke-width="3" stroke-linecap="round" stroke-linejoin="round"/>
<path d="M432.5 167.856C437.333 164.689 448.5 165.856 458 169.24" stroke="#313567" stroke-width="3" stroke-linecap="round" stroke-linejoin="round"/>
<path d="M363 167.856C367.833 164.689 379 165.856 388.5 169.24" stroke="#313567" stroke-width="3" stroke-linecap="round" stroke-linejoin="round"/>
<path d="M518.5 170.437C518.5 174.08 516.19 176.437 514 176.437C511.81 176.437 509.5 174.08 509.5 170.437C509.5 166.793 511.81 164.437 514 164.437C516.19 164.437 518.5 166.793 518.5 170.437Z" fill="#313567" stroke="#313567" stroke-width="3" stroke-linejoin="round"/>
<path d="M519.5 331C508.999 348 498.5 376 502.5 406" stroke="#313567" stroke-width="3" stroke-linecap="round" stroke-linejoin="round"/>
<path d="M202.796 336.013C217.085 332.347 247.248 317.831 253.587 289.093" stroke="#313567" stroke-width="3" stroke-linecap="round" stroke-linejoin="round"/>
<path d="M177.938 260.263C172.446 267.41 166.245 290.165 185.376 324.006" stroke="#313567" stroke-width="3" stroke-linecap="round" stroke-linejoin="round"/>
<path d="M134 401.937C134 401.937 141.479 401.937 152.5 401.937M753.5 401.937C753.5 401.937 746.299 401.937 735 401.937M722 401.937C712.448 401.937 701.435 401.937 690 401.937M675.5 401.937C642.874 401.937 610.347 401.937 601 401.937C580.5 401.937 450.5 418.937 410 417.437C369.5 415.937 259 401.937 233.5 401.937C219.921 401.937 192.588 401.937 170 401.937" stroke="#313567" stroke-width="3" stroke-linecap="round" stroke-linejoin="round"/>
<path d="M336.064 188.31C332.423 165.972 362.504 146.277 371 142.31C366.904 123.084 311.851 111.668 308.666 135.929C304.947 164.244 301.475 199.382 325.141 220.896C348.808 242.41 336.064 255.402 336.064 261.81C365.647 243.5 340.616 216.232 336.064 188.31Z" fill="#FF9797"/>
<path d="M299.5 107.81C287.9 38.2097 339.667 25.8097 367 28.3097C378.001 5.3098 387 4.80965 421.5 0.809652C456 -3.19035 496.5 6.30965 542.5 59.3097C588.5 112.31 548.486 176.31 574 223.31C583.5 240.81 631.5 263.613 631.5 304.31C631.5 359.81 605.5 354.5 602.5 374.5C576.5 310 562.5 298.31 534.5 256.81C507.5 223.309 512.5 162.31 508 159.31C488 172.81 451 160.31 451 137.31C451 137.31 440.425 162.126 417 164C379.5 167 367 137.31 367 137.31C367 137.31 314 194.81 299.5 107.81Z" fill="#FF9797"/>
<mask id="mask0_102_2785" style="mask-type:alpha" maskUnits="userSpaceOnUse" x="297" y="0" width="335" height="375">
<path d="M299.5 107.81C287.9 38.2097 339.667 25.8097 367 28.3097C378.001 5.3098 387 4.80965 421.5 0.809652C456 -3.19035 496.5 6.30965 542.5 59.3097C588.5 112.31 548.486 176.31 574 223.31C583.5 240.81 631.5 263.613 631.5 304.31C631.5 359.81 605.5 354.5 602.5 374.5C576.5 310 562.5 298.31 534.5 256.81C507.5 223.309 512.5 162.31 508 159.31C488 172.81 451 160.31 451 137.31C451 137.31 440.5 147.5 417 147.5C361.72 147.5 367 137.31 367 137.31C367 137.31 314 194.81 299.5 107.81Z" fill="#FF9797"/>
</mask>
<g mask="url(#mask0_102_2785)">
<path d="M587.37 281.042C560.94 256.665 516.5 230 521 175.5C502.261 178.981 482.905 185.888 486.571 218.037C490.238 250.187 556.388 342.386 597 376C605.501 359.5 613.8 305.419 587.37 281.042Z" fill="#F38181"/>
</g>
<path d="M405 311.5L430 354.5C516.5 334.5 555.5 293 559.5 293C563.5 293 540.426 238.306 533 249.5C499.5 300 455.5 302.5 405 311.5Z" fill="#C8E1DA"/>
<path d="M386 311.499L361 349.499C310 326 301.5 307 285.558 288.999C282.906 286.005 296.5 240.503 306 249.999C333.318 277.308 340 294.499 386 311.499Z" fill="#C8E1DA"/>
<path d="M486.5 201.81C490.5 177.41 472.833 162.643 463.5 158.31C468 137.31 505.5 126.81 517 155.81C528.5 184.81 524.5 206.31 498.5 229.81C472.5 253.31 481 266.81 481 273.81C448.5 253.81 481.5 232.31 486.5 201.81Z" fill="#FF9797"/>
<path d="M428 220.5C428 224.642 417.508 232 409.5 232C401.492 232 391.5 224.642 391.5 220.5C391.5 216.358 401.492 217 409.5 217C417.508 217 428 216.358 428 220.5Z" stroke="#313567" stroke-width="3" stroke-linecap="round" stroke-linejoin="round"/>
<circle cx="455" cy="209" r="17" fill="#FF9797" fill-opacity="0.18"/>
<circle cx="368" cy="209" r="17" fill="#FF9797" fill-opacity="0.18"/>
<path d="M369.781 360.143C370.218 356.427 373.514 353.739 377.247 353.973C382.484 354.301 389.588 354.661 393.895 354.524C397.728 354.402 403.979 353.739 409.151 353.123C413.651 352.587 417.528 356.34 417.024 360.844C416.31 367.227 415.314 375.517 414.479 380.219C413.504 385.71 413.248 396.067 413.188 402.571C413.157 405.934 410.794 408.842 407.472 409.366C402.924 410.083 396.542 410.907 391.734 410.807C386.806 410.705 378.659 410.399 372.809 410.166C368.935 410.011 365.938 406.733 366.148 402.862C366.467 396.959 366.968 388.43 367.528 381.714C368.099 374.846 369.085 366.067 369.781 360.143Z" fill="#F0F8FF"/>
<mask id="mask1_102_2785" style="mask-type:alpha" maskUnits="userSpaceOnUse" x="366" y="353" width="52" height="58">
<path d="M369.781 360.143C370.218 356.427 373.514 353.739 377.247 353.973C382.484 354.301 389.588 354.661 393.895 354.524C397.728 354.402 403.979 353.739 409.151 353.123C413.651 352.587 417.528 356.34 417.024 360.844C416.31 367.227 415.314 375.517 414.479 380.219C413.504 385.71 413.248 396.067 413.188 402.571C413.157 405.934 410.794 408.842 407.472 409.366C402.924 410.083 396.542 410.907 391.734 410.807C386.806 410.705 378.659 410.399 372.809 410.166C368.935 410.011 365.938 406.733 366.148 402.862C366.467 396.959 366.968 388.43 367.528 381.714C368.099 374.846 369.085 366.067 369.781 360.143Z" fill="#F5FBFF"/>
</mask>
<g mask="url(#mask1_102_2785)">
<path d="M415.951 367.072C403.404 362.669 379.019 364.58 368.395 366.085C367.977 363.431 367.609 357.106 369.481 353.044C371.82 347.967 410.46 351.739 411.959 351.691C413.458 351.644 431.634 372.576 415.951 367.072Z" fill="#313567"/>
</g>
<path d="M274 297.5C272 287.5 257.501 280 250.501 278C232 325.5 193 330 190 333.5C187 337 199 361.5 202.5 363.5C206 365.5 227.018 363.089 245.5 349.5C262.501 337 276 307.5 274 297.5Z" fill="#C8E1DA"/>
<path d="M395 347.5C399.5 347 410.5 344.2 418.5 337M395 347.5C390.5 346.833 379.7 343.1 372.5 333.5M395 347.5V356.5" stroke="#313567" stroke-width="3" stroke-linecap="round" stroke-linejoin="round"/>
<path d="M362 105.5C358 120.833 359.6 153.5 398 161.5M450 101.5C444.333 116.667 441.4 150.7 475 165.5M298.5 101.5C299 101.5 297 155.5 344.5 145.5M548 125.5C550.167 139.5 545 173.5 510.5 168" stroke="#313567" stroke-width="3" stroke-linecap="round" stroke-linejoin="round"/>
<path d="M367 32.9999C367.5 30.4999 391.5 -27.0001 497.5 19.9999M512 32.9999C519.167 37.3333 535.1 48.3 541.5 57.5M590 280.5C596.833 290 609.2 319.2 604 360M574.5 225C592.667 239.5 629.4 274.2 631 297M308.5 185.5C309.333 194.333 314.6 214.6 329 225C343.4 235.4 340.667 252.667 337.5 260M486.5 185.5C489.5 212 482.6 221.1 477 229.5C470 240 463.5 256.5 474.5 269M385 81C381.833 89.3333 378.7 108.5 391.5 118.5M472.5 101C468.5 108.167 469 113.5 472.5 118.5M337.5 32.9999C328 33.9999 307.1 42.5 299.5 68.5M319.5 101C315.5 108.167 316 113.5 319.5 118.5" stroke="#313567" stroke-width="3" stroke-linecap="round" stroke-linejoin="round"/>
<path d="M393.5 53.5C387.333 43.6667 367.4 25.7 337 32.5" stroke="#313567" stroke-width="3" stroke-linecap="round" stroke-linejoin="round"/>
<path d="M520.5 170C523.5 182 525 201.5 511 215.5" stroke="#313567" stroke-width="3" stroke-linecap="round" stroke-linejoin="round"/>
<path d="M393 373C395 373 405.5 373 408.5 373M393 381.5C396.833 381.167 404.9 380.5 406.5 380.5M375.5 393.5C383.167 393.5 399.5 393.5 403.5 393.5M374 403.5C382.833 403.5 401.1 403.5 403.5 403.5M374 370.5C374 374.5 374 382.5 374 383C374 383.5 386.5 384.5 386.5 383C386.5 379 387.609 372.238 386.5 370.5C386.5 370.5 375.5 370.5 374 370.5Z" stroke="#313567" stroke-width="3" stroke-linecap="round" stroke-linejoin="round"/>
</svg>
