<svg width="28" height="28" viewBox="0 0 28 28" fill="none" xmlns="http://www.w3.org/2000/svg">
<path d="M11.7099 6.20228L12.4671 7.55903C13.1504 8.78343 12.8761 10.3896 11.7998 11.4658C11.7998 11.4658 10.4945 12.7713 12.8613 15.1382C15.2273 17.5042 16.5336 16.1996 16.5336 16.1996C17.6098 15.1233 19.216 14.8491 20.4404 15.5324L21.7971 16.2895C23.646 17.3213 23.8643 19.9141 22.2393 21.5393C21.2628 22.5158 20.0665 23.2757 18.7441 23.3257C16.518 23.4102 12.7374 22.8468 8.945 19.0544C5.15267 15.2621 4.58926 11.4815 4.67366 9.25535C4.72379 7.93295 5.48362 6.73668 6.46013 5.76018C8.08524 4.13507 10.678 4.35343 11.7099 6.20228Z" fill="#313567"/>
<path d="M15.4701 2.19306C15.5473 1.71602 15.9982 1.39242 16.4753 1.46964C16.5048 1.4753 16.5999 1.49306 16.6496 1.50414C16.7492 1.52632 16.888 1.56044 17.0612 1.61088C17.4074 1.71172 17.8911 1.87787 18.4717 2.14402C19.634 2.67691 21.1808 3.60907 22.7859 5.21417C24.391 6.81927 25.3231 8.36605 25.856 9.52838C26.1222 10.1089 26.2883 10.5926 26.3891 10.9389C26.4395 11.112 26.4737 11.2509 26.4959 11.3504C26.507 11.4002 26.5151 11.4402 26.5207 11.4697L26.5275 11.5061C26.6046 11.9831 26.284 12.4528 25.807 12.53C25.3313 12.607 24.8832 12.2849 24.8041 11.8102C24.8016 11.7974 24.7949 11.7632 24.7878 11.7309C24.7733 11.6662 24.7484 11.5638 24.709 11.4283C24.63 11.1572 24.4929 10.7543 24.2652 10.2577C23.8104 9.26567 22.9926 7.89579 21.5484 6.45161C20.1043 5.00744 18.7344 4.18962 17.7424 3.73482C17.2457 3.50713 16.8429 3.37001 16.5717 3.29105C16.4363 3.25158 16.266 3.21249 16.2013 3.1981C15.7265 3.11897 15.3931 2.66873 15.4701 2.19306Z" fill="#313567"/>
<path fill-rule="evenodd" clip-rule="evenodd" d="M15.7331 6.21762C15.8659 5.75296 16.3501 5.4839 16.8148 5.61665L16.5745 6.458C16.8148 5.61665 16.8148 5.61665 16.8148 5.61665L16.8166 5.61714L16.8183 5.61766L16.8222 5.61879L16.8313 5.6215L16.8544 5.62868C16.8719 5.63431 16.8939 5.64163 16.9201 5.65093C16.9724 5.66953 17.0417 5.69596 17.1267 5.73236C17.2967 5.80521 17.5288 5.9177 17.8142 6.08653C18.3852 6.42449 19.1647 6.98587 20.0806 7.90166C20.9964 8.81747 21.5577 9.59702 21.8957 10.1681C22.0645 10.4533 22.1769 10.6856 22.2499 10.8555C22.2863 10.9405 22.3127 11.0097 22.3313 11.0621C22.3406 11.0883 22.3479 11.1103 22.3536 11.1279L22.3607 11.151L22.3634 11.16L22.3645 11.1639L22.365 11.1657C22.365 11.1657 22.3656 11.1674 21.5242 11.4077L22.3656 11.1674C22.4984 11.632 22.2292 12.1163 21.7646 12.249C21.3039 12.3806 20.8238 12.1173 20.6863 11.6599L20.682 11.6473C20.6758 11.6298 20.663 11.5953 20.6414 11.5449C20.5982 11.4442 20.5199 11.2794 20.3897 11.0594C20.1296 10.6198 19.6597 9.95572 18.8431 9.1391C18.0265 8.32249 17.3623 7.85268 16.9229 7.59254C16.7028 7.46232 16.5381 7.38404 16.4373 7.34087C16.3869 7.31928 16.3524 7.3064 16.3349 7.30018L16.3223 7.29587C15.8649 7.15835 15.6015 6.67832 15.7331 6.21762Z" fill="#313567"/>
</svg>
