<svg width="92" height="98" viewBox="0 0 92 98" fill="none" xmlns="http://www.w3.org/2000/svg">
<path d="M92 53C92 77.8528 71.4051 98 46 98C20.5949 98 0 77.8528 0 53C0 28.1472 2.1949 0 27.6 0C53.0051 0 92 28.1472 92 53Z" fill="white"/>
<path fill-rule="evenodd" clip-rule="evenodd" d="M38.5003 42.75C37.4854 42.75 36.6387 42.7834 35.9104 42.8874C35.8972 42.8893 35.8839 42.891 35.8707 42.8925C33.8446 43.1159 32.8986 43.6657 32.3505 44.4979C31.7284 45.4426 31.417 47.029 31.417 49.8333V58.1667C31.417 60.971 31.7284 62.5574 32.3505 63.5021C32.8986 64.3343 33.8446 64.8841 35.8707 65.1075C35.8839 65.109 35.8972 65.1107 35.9104 65.1126C36.6387 65.2166 37.4854 65.25 38.5003 65.25H44.367C45.0573 65.25 45.617 65.8096 45.617 66.5C45.617 67.1904 45.0573 67.75 44.367 67.75H38.5003C37.4563 67.75 36.4765 67.7172 35.5769 67.5903C33.2291 67.3285 31.3989 66.6025 30.2626 64.8771C29.1972 63.2592 28.917 60.9957 28.917 58.1667V49.8333C28.917 47.0043 29.1972 44.7408 30.2626 43.1229C31.3989 41.3974 33.2291 40.6715 35.5769 40.4097C36.4765 40.2828 37.4563 40.25 38.5003 40.25H44.267C44.9573 40.25 45.517 40.8096 45.517 41.5C45.517 42.1904 44.9573 42.75 44.267 42.75H38.5003Z" fill="#313567" stroke="#313567" stroke-width="0.5" stroke-linecap="round" stroke-linejoin="round"/>
<path fill-rule="evenodd" clip-rule="evenodd" d="M49.7822 41.5C49.7822 40.8096 50.3419 40.25 51.0322 40.25H53.4989C54.5429 40.25 55.5227 40.2828 56.4223 40.4097C58.7701 40.6715 60.6003 41.3974 61.7366 43.1229C62.802 44.7408 63.0822 47.0043 63.0822 49.8333V58.1667C63.0822 60.9957 62.802 63.2592 61.7366 64.8771C60.6003 66.6025 58.7701 67.3285 56.4223 67.5903C55.5227 67.7172 54.5429 67.75 53.4989 67.75H51.0322C50.3419 67.75 49.7822 67.1904 49.7822 66.5C49.7822 65.8096 50.3419 65.25 51.0322 65.25H53.4989C54.5138 65.25 55.3605 65.2166 56.0888 65.1126C56.102 65.1107 56.1153 65.109 56.1286 65.1075C58.1546 64.8841 59.1007 64.3343 59.6487 63.5021C60.2708 62.5574 60.5822 60.971 60.5822 58.1667V49.8333C60.5822 47.029 60.2708 45.4426 59.6487 44.4979C59.1007 43.6657 58.1546 43.1159 56.1286 42.8925C56.1153 42.891 56.102 42.8893 56.0888 42.8874C55.3605 42.7834 54.5138 42.75 53.4989 42.75H51.0322C50.3419 42.75 49.7822 42.1904 49.7822 41.5Z" fill="#313567" stroke="#313567" stroke-width="0.5" stroke-linecap="round" stroke-linejoin="round"/>
<path fill-rule="evenodd" clip-rule="evenodd" d="M51 36.0833C51.6904 36.0833 52.25 36.6429 52.25 37.3333V70.6666C52.25 71.3569 51.6904 71.9166 51 71.9166C50.3096 71.9166 49.75 71.3569 49.75 70.6666V37.3333C49.75 36.6429 50.3096 36.0833 51 36.0833Z" fill="#313567" stroke="#313567" stroke-width="0.5" stroke-linecap="round" stroke-linejoin="round"/>
<path fill-rule="evenodd" clip-rule="evenodd" d="M39.333 46.9167C40.0234 46.9167 40.583 47.4764 40.583 48.1667V59.8334C40.583 60.5238 40.0234 61.0834 39.333 61.0834C38.6427 61.0834 38.083 60.5238 38.083 59.8334V48.1667C38.083 47.4764 38.6427 46.9167 39.333 46.9167Z" fill="#313567" stroke="#313567" stroke-width="0.5" stroke-linecap="round" stroke-linejoin="round"/>
</svg>
