<svg width="1800" height="478" viewBox="0 0 1800 478" fill="none" xmlns="http://www.w3.org/2000/svg">
<rect width="1800" height="478" rx="15" fill="#F5FBFF"/>
<path d="M1315.54 164.682C1347.58 159.476 1375.28 149.063 1375.28 149.063C1408.18 135.613 1407.58 89.9689 1455.37 91.3573C1490.35 92.3734 1504.74 105.382 1509.43 116.878C1506.74 89.5365 1513.94 50.4034 1559.71 51.0069C1612.35 51.7011 1617.14 102.783 1612.95 128.237C1618.44 120.427 1636.25 105.415 1663.61 107.845C1690.97 110.274 1702.14 131.129 1698.67 149.063C1705.6 164.682 1725.08 172.926 1774 179C1748.02 176.448 1419.44 172.926 1219 172.926C1219 172.926 1283.5 169.889 1315.54 164.682Z" fill="white"/>
<path opacity="0.65" d="M1403 126.5C1408.52 114.257 1425.72 94.3464 1455.5 94.279M1479 98C1472.97 96.1539 1467.31 95.0547 1462 94.5715M1511 126.5C1507.38 113.279 1506.25 86.3694 1524.37 69M1537.5 60C1534.41 61.4855 1531.63 63.1646 1529.14 65M1455.5 102C1462.83 101.5 1480.1 102.9 1490.5 112.5" stroke="#313567" stroke-width="2" stroke-linecap="round" stroke-linejoin="round"/>
<mask id="mask0_144_20" style="mask-type:alpha" maskUnits="userSpaceOnUse" x="0" y="0" width="1800" height="478">
<rect width="1800" height="478" rx="15" fill="#F5FBFF"/>
</mask>
<g mask="url(#mask0_144_20)">
<path d="M-48.4594 369.682C-16.4236 364.476 11.2832 354.063 11.2832 354.063C44.1849 340.613 43.5788 294.969 91.3729 296.357C126.354 297.373 140.741 310.382 145.432 321.878C142.741 294.537 149.944 255.403 195.706 256.007C248.349 256.701 253.14 307.783 248.955 333.237C254.438 325.427 272.246 310.415 299.606 312.845C326.966 315.274 338.136 336.129 334.672 354.063C341.599 369.682 361.08 377.926 410 384C384.025 381.448 55.4407 377.926 -145 377.926C-145 377.926 -80.4953 374.889 -48.4594 369.682Z" fill="white"/>
</g>
<path opacity="0.73" d="M297 318.5C300.417 318.272 304.597 318.485 309 319.4M340.5 363C341.233 339.786 330.434 327.954 318.5 322.489M277 329C283 325 295.5 323.5 305.5 329M198 260.5C202.847 260.187 208.788 260.632 215 262.275M256 332C258.011 294.04 242.749 275.026 226 266.469" stroke="#313567" stroke-width="2" stroke-linecap="round" stroke-linejoin="round"/>
<path d="M518.037 127.855C506.434 125.983 496.4 122.241 496.4 122.241C484.484 117.408 484.704 101.004 467.395 101.503C454.726 101.869 449.515 106.544 447.817 110.675C448.791 100.849 446.182 86.7856 429.609 87.0025C410.544 87.252 408.809 105.609 410.324 114.757C408.339 111.95 401.889 106.555 391.98 107.428C382.072 108.302 378.027 115.796 379.281 122.241C376.772 127.855 369.717 130.817 352 133C361.407 132.083 480.408 130.817 553 130.817C553 130.817 529.639 129.726 518.037 127.855Z" fill="white"/>
<path opacity="0.19" d="M491 119C490.292 115.697 488.137 111.058 483.958 107.5M461.5 103C469.155 101.469 475.052 102.429 479.5 104.589M447.5 112.5C449.021 105.861 446.64 92.6806 435.5 88.3871M427.5 87C429.306 87 430.97 87.1763 432.5 87.5015M413.5 120C412.833 114.667 407 104.7 389 107.5" stroke="#313567" stroke-width="1.5" stroke-linecap="round" stroke-linejoin="round"/>
<path d="M1194.96 378.855C1206.57 376.983 1216.6 373.241 1216.6 373.241C1228.52 368.408 1228.3 352.004 1245.61 352.503C1258.27 352.869 1263.48 357.544 1265.18 361.675C1264.21 351.849 1266.82 337.786 1283.39 338.002C1302.46 338.252 1304.19 356.609 1302.68 365.757C1304.66 362.95 1311.11 357.555 1321.02 358.428C1330.93 359.302 1334.97 366.796 1333.72 373.241C1336.23 378.855 1343.28 381.817 1361 384C1351.59 383.083 1232.59 381.817 1160 381.817C1160 381.817 1183.36 380.726 1194.96 378.855Z" fill="white"/>
<path opacity="0.19" d="M1223 370C1223.71 366.697 1225.86 362.058 1230.04 358.5M1252.5 354C1244.84 352.469 1238.95 353.429 1234.5 355.589M1266.5 363.5C1264.98 356.861 1267.36 343.681 1278.5 339.387M1286.5 338C1284.69 338 1283.03 338.176 1281.5 338.502M1300.5 371C1301.17 365.667 1307 355.7 1325 358.5" stroke="#313567" stroke-width="1.5" stroke-linecap="round" stroke-linejoin="round"/>
</svg>
