<svg width="768" height="478" viewBox="0 0 768 478" fill="none" xmlns="http://www.w3.org/2000/svg">
<rect width="768" height="478" rx="15" fill="#F0F8FF"/>
<mask id="mask0_144_9" style="mask-type:alpha" maskUnits="userSpaceOnUse" x="0" y="0" width="768" height="478">
<rect width="768" height="478" rx="15" fill="#F5FBFF"/>
</mask>
<g mask="url(#mask0_144_9)">
<path d="M619.037 127.855C607.434 125.983 597.4 122.241 597.4 122.241C585.484 117.408 585.704 101.004 568.395 101.503C555.726 101.869 550.515 106.544 548.817 110.675C549.791 100.849 547.182 86.7856 530.609 87.0025C511.544 87.252 509.809 105.609 511.324 114.757C509.339 111.95 502.889 106.555 492.98 107.428C483.072 108.302 479.027 115.796 480.281 122.241C477.772 127.855 470.717 130.817 453 133C462.407 132.083 581.408 130.817 654 130.817C654 130.817 630.639 129.726 619.037 127.855Z" fill="white"/>
<path opacity="0.19" d="M592 119C591.292 115.697 589.137 111.058 584.958 107.5M562.5 103C570.155 101.469 576.052 102.429 580.5 104.589M548.5 112.5C550.021 105.861 547.64 92.6806 536.5 88.3871M528.5 87C530.306 87 531.97 87.1763 533.5 87.5015M514.5 120C513.833 114.667 508 104.7 490 107.5" stroke="#313567" stroke-width="1.5" stroke-linecap="round" stroke-linejoin="round"/>
<path d="M-74.4594 369.682C-42.4236 364.476 -14.7168 354.063 -14.7168 354.063C18.1849 340.613 17.5788 294.969 65.3729 296.357C100.354 297.373 114.741 310.382 119.432 321.878C116.741 294.537 123.944 255.403 169.706 256.007C222.349 256.701 227.14 307.783 222.955 333.237C228.438 325.427 246.246 310.415 273.606 312.845C300.966 315.274 312.136 336.129 308.672 354.063C315.599 369.682 335.08 377.926 384 384C358.025 381.448 29.4407 377.926 -171 377.926C-171 377.926 -106.495 374.889 -74.4594 369.682Z" fill="white"/>
</g>
</svg>
