<svg width="92" height="98" viewBox="0 0 92 98" fill="none" xmlns="http://www.w3.org/2000/svg">
<path d="M92 53C92 77.8528 71.4051 98 46 98C20.5949 98 0 77.8528 0 53C0 28.1472 2.1949 0 27.6 0C53.0051 0 92 28.1472 92 53Z" fill="white"/>
<path fill-rule="evenodd" clip-rule="evenodd" d="M29.219 45.8468C28.7631 47.922 28.583 50.5797 28.583 53.9999C28.583 57.4201 28.7631 60.0778 29.219 62.1531C29.6718 64.2142 30.3794 65.6202 31.3794 66.6202C32.3794 67.6202 33.7854 68.3278 35.8465 68.7806C37.9218 69.2365 40.5795 69.4166 43.9997 69.4166C47.4198 69.4166 50.0775 69.2365 52.1528 68.7806C54.2139 68.3278 55.62 67.6202 56.6199 66.6202C57.6199 65.6202 58.3276 64.2141 58.7803 62.153C59.2362 60.0778 59.4163 57.4201 59.4163 53.9999V51.4999C59.4163 50.8096 59.976 50.2499 60.6663 50.2499C61.3567 50.2499 61.9163 50.8096 61.9163 51.4999V53.9999C61.9163 57.4742 61.7367 60.347 61.2221 62.6895C60.7044 65.0461 59.8308 66.9449 58.3877 68.388C56.9446 69.831 55.0458 70.7047 52.6892 71.2224C50.3468 71.737 47.4739 71.9166 43.9997 71.9166C40.5254 71.9166 37.6526 71.737 35.3101 71.2224C32.9535 70.7047 31.0547 69.831 29.6116 68.388C28.1686 66.9449 27.2949 65.0461 26.7772 62.6895C26.2626 60.347 26.083 57.4742 26.083 53.9999C26.083 50.5256 26.2626 47.6528 26.7772 45.3104C27.2949 42.9538 28.1686 41.0549 29.6116 39.6119C31.0547 38.1688 32.9535 37.2952 35.3101 36.7775C37.6526 36.2629 40.5254 36.0833 43.9997 36.0833H46.4997C47.19 36.0833 47.7497 36.6429 47.7497 37.3333C47.7497 38.0236 47.19 38.5833 46.4997 38.5833H43.9997C40.5795 38.5833 37.9218 38.7633 35.8465 39.2192C33.7854 39.672 32.3794 40.3797 31.3794 41.3796C30.3794 42.3796 29.6718 43.7857 29.219 45.8468Z" fill="#313567" stroke="#313567" stroke-width="0.5" stroke-linecap="round"/>
<path fill-rule="evenodd" clip-rule="evenodd" d="M51.9507 37.7931C54.2305 35.5133 57.9268 35.5133 60.2066 37.7931L60.2066 37.7931C62.4862 40.073 62.4862 43.7692 60.2066 46.049L60.2065 46.0491L49.1838 57.0718L49.1265 57.1291C48.5076 57.748 48.12 58.1357 47.6874 58.4732L47.6873 58.4732C47.1779 58.8706 46.6266 59.2112 46.0435 59.4893L46.0432 59.4894C45.5484 59.7252 45.0287 59.8983 44.1995 60.1747L44.1207 60.2009L41.2284 61.1651L39.3568 61.7889L39.3568 61.789C38.4632 62.0868 37.4778 61.8543 36.8116 61.1882L36.8114 61.188C36.1455 60.5218 35.9128 59.5367 36.2107 58.6429L36.2107 58.6428L37.7987 53.879L37.824 53.803C38.1009 52.972 38.2743 52.4517 38.5104 51.9563C38.5104 51.9563 38.5104 51.9563 38.5104 51.9563C38.7883 51.373 39.1291 50.8217 39.5265 50.3122C39.5265 50.3123 39.5265 50.3123 39.5264 50.3123L40.5121 51.0811L39.5265 50.3122C39.8637 49.8799 40.2511 49.4925 40.8691 48.8747C40.8884 48.8553 40.908 48.8357 40.9278 48.8159L50.8692 38.8745L50.8692 38.8744L51.9507 37.7931L52.8345 38.677L51.9507 37.7931ZM58.4388 39.5608C57.1353 38.2574 55.0219 38.2574 53.7184 39.5609L53.7184 39.5609L52.6369 40.6422L52.6369 40.6423L42.6956 50.5837C42.0014 51.2779 41.7292 51.5531 41.4978 51.8498L41.4977 51.85C41.212 52.2161 40.9671 52.6125 40.7672 53.0318C40.6053 53.3715 40.4808 53.7381 40.1704 54.6695L39.2063 57.5619L38.5905 59.4092L40.4377 58.7934L43.3301 57.8292C44.2614 57.5188 44.628 57.3944 44.9676 57.2326C44.9677 57.2325 44.9678 57.2325 44.9679 57.2325C45.3873 57.0325 45.7836 56.7875 46.1498 56.5019C46.4466 56.2704 46.7219 55.9981 47.416 55.304L57.3573 45.3626L57.3574 45.3626L58.4388 44.2813C59.7422 42.9778 59.7422 40.8644 58.4388 39.5608Z" fill="#313567"/>
<path d="M49.1838 57.0718L48.3883 56.2763M49.1838 57.0718L49.1265 57.1291C48.5076 57.748 48.12 58.1357 47.6874 58.4732L47.6873 58.4732C47.1779 58.8706 46.6266 59.2112 46.0435 59.4893L46.0432 59.4894C45.5484 59.7252 45.0287 59.8983 44.1995 60.1747L44.1207 60.2009L41.2284 61.1651L39.3568 61.7889L39.3568 61.789C38.4632 62.0868 37.4778 61.8543 36.8116 61.1882L36.8114 61.188C36.1455 60.5218 35.9128 59.5367 36.2107 58.6429L36.2107 58.6428L37.7987 53.879L37.824 53.803C38.1009 52.972 38.2743 52.4517 38.5104 51.9563M49.1838 57.0718L60.2065 46.0491L60.2066 46.049C62.4862 43.7692 62.4862 40.073 60.2066 37.7931L60.2066 37.7931C57.9268 35.5133 54.2305 35.5133 51.9507 37.7931L52.8345 38.677L51.9507 37.7931L50.8692 38.8744L50.8692 38.8745L40.9278 48.8159C40.908 48.8357 40.8884 48.8553 40.8691 48.8747C40.2511 49.4925 39.8637 49.8799 39.5265 50.3122M38.5104 51.9563L39.6388 52.4941M38.5104 51.9563C38.5104 51.9563 38.5104 51.9563 38.5104 51.9563ZM38.5104 51.9563C38.7883 51.373 39.1291 50.8217 39.5265 50.3122M39.5265 50.3122C39.5265 50.3123 39.5265 50.3123 39.5264 50.3123L40.5121 51.0811L39.5265 50.3122ZM39.2063 57.5619L38.0214 57.1669M39.2063 57.5619L38.5905 59.4092L40.4377 58.7934L43.3301 57.8292C44.2614 57.5188 44.628 57.3944 44.9676 57.2326C44.9677 57.2325 44.9678 57.2325 44.9679 57.2325C45.3873 57.0325 45.7836 56.7875 46.1498 56.5019C46.4466 56.2704 46.7219 55.9981 47.416 55.304M39.2063 57.5619L40.1704 54.6695C40.4808 53.7381 40.6053 53.3715 40.7672 53.0318C40.9671 52.6125 41.212 52.2161 41.4977 51.85L41.4978 51.8498C41.7292 51.5531 42.0014 51.2779 42.6956 50.5837L52.6369 40.6423L52.6369 40.6422L53.7184 39.5609L53.7184 39.5609C55.0219 38.2574 57.1353 38.2574 58.4388 39.5608C59.7422 40.8644 59.7422 42.9778 58.4388 44.2813L57.3574 45.3626L57.3573 45.3626L47.416 55.304M47.416 55.304L48.2999 56.1879" stroke="#313567" stroke-width="0.5"/>
<path fill-rule="evenodd" clip-rule="evenodd" d="M50.5557 40.1168C50.5556 40.1164 50.5555 40.116 51.7533 39.7585C52.9511 39.401 52.9509 39.4006 52.9508 39.4002L52.9502 39.3983L52.9496 39.3963L52.9491 39.3944C52.9492 39.3948 52.9496 39.3962 52.9504 39.3987C52.9525 39.4052 52.957 39.4188 52.964 39.4391C52.978 39.4796 53.0022 39.5466 53.0382 39.6364C53.1101 39.816 53.2285 40.0857 53.4056 40.4165C53.7601 41.0787 54.3459 41.9786 55.2585 42.8911L55.2585 42.8912C56.1697 43.8024 57.0267 44.3462 57.6371 44.6581C57.9427 44.8142 58.1867 44.9124 58.3449 44.9692C58.4239 44.9976 58.4814 45.0156 58.5141 45.0253C58.5305 45.0301 58.5406 45.0329 58.5442 45.0339L58.5382 45.0324L58.5357 45.0318C58.5353 45.0317 58.5348 45.0316 58.2414 46.2467C57.9481 47.4617 57.9476 47.4616 57.9471 47.4615L57.9461 47.4613L57.944 47.4608L57.9392 47.4596L57.9352 47.4586C57.9328 47.458 57.9303 47.4573 57.9276 47.4567C57.919 47.4545 57.9085 47.4517 57.8963 47.4485C57.872 47.4419 57.8407 47.4332 57.8028 47.422C57.727 47.3995 57.6249 47.3669 57.4998 47.322C57.2498 47.2322 56.9073 47.0926 56.4996 46.8843C55.6834 46.4673 54.607 45.7753 53.4907 44.6589C53.4907 44.6589 53.4907 44.6589 53.4907 44.6589M53.4907 44.6589C52.3757 43.5439 51.6508 42.4356 51.2015 41.5964C50.9767 41.1765 50.82 40.8222 50.7173 40.5656C50.6659 40.4372 50.6278 40.3329 50.6015 40.2568C50.5883 40.2187 50.578 40.1876 50.5704 40.164C50.5666 40.1522 50.5635 40.1422 50.561 40.1342C50.5598 40.1302 50.5587 40.1267 50.5578 40.1237L50.5565 40.1195L50.5557 40.1168M58.5446 45.034C58.5462 45.0344 58.546 45.0344 58.5442 45.0339L58.5446 45.034ZM52.949 39.3943L52.9491 39.3944C52.949 39.3943 52.949 39.3943 52.949 39.3943ZM38.9045 56.2828L41.7172 59.0955L39.9494 60.8633L37.1367 58.0506L38.9045 56.2828Z" fill="#313567"/>
<path d="M50.5557 40.1168C50.5556 40.1164 50.5555 40.116 51.7533 39.7585C52.9511 39.401 52.9509 39.4006 52.9508 39.4002L52.9502 39.3983L52.9496 39.3963L52.9491 39.3944M50.5557 40.1168L53.4907 44.6589M50.5557 40.1168L50.5565 40.1195L50.5578 40.1237C50.5587 40.1267 50.5598 40.1302 50.561 40.1342C50.5635 40.1422 50.5666 40.1522 50.5704 40.164C50.578 40.1876 50.5883 40.2187 50.6015 40.2568C50.6278 40.3329 50.6659 40.4372 50.7173 40.5656C50.82 40.8222 50.9767 41.1765 51.2015 41.5964C51.6508 42.4356 52.3757 43.5439 53.4907 44.6589M52.9491 39.3944C52.9492 39.3948 52.9496 39.3962 52.9504 39.3987C52.9525 39.4052 52.957 39.4188 52.964 39.4391C52.978 39.4796 53.0022 39.5466 53.0382 39.6364C53.1101 39.816 53.2285 40.0857 53.4056 40.4165C53.7601 41.0787 54.3459 41.9786 55.2585 42.8911L55.2585 42.8912C56.1697 43.8024 57.0267 44.3462 57.6371 44.6581C57.9427 44.8142 58.1867 44.9124 58.3449 44.9692C58.4239 44.9976 58.4814 45.0156 58.5141 45.0253C58.5305 45.0301 58.5406 45.0329 58.5442 45.0339M52.9491 39.3944L52.949 39.3943C52.949 39.3943 52.949 39.3943 52.9491 39.3944ZM58.5442 45.0339C58.546 45.0344 58.5462 45.0344 58.5446 45.034L58.5442 45.0339ZM58.5442 45.0339L58.5382 45.0324L58.5357 45.0318C58.5353 45.0317 58.5348 45.0316 58.2414 46.2467C57.9481 47.4617 57.9476 47.4616 57.9471 47.4615L57.9461 47.4613L57.944 47.4608L57.9392 47.4596L57.9352 47.4586C57.9328 47.458 57.9303 47.4573 57.9276 47.4567C57.919 47.4545 57.9085 47.4517 57.8963 47.4485C57.872 47.4419 57.8407 47.4332 57.8028 47.422C57.727 47.3995 57.6249 47.3669 57.4998 47.322C57.2498 47.2322 56.9073 47.0926 56.4996 46.8843C55.6834 46.4673 54.607 45.7753 53.4907 44.6589C53.4907 44.6589 53.4907 44.6589 53.4907 44.6589M41.7172 59.0955L38.9045 56.2828L37.1367 58.0506L39.9494 60.8633L41.7172 59.0955Z" stroke="#313567" stroke-width="0.5"/>
</svg>
