<svg width="97" height="98" viewBox="0 0 97 98" fill="none" xmlns="http://www.w3.org/2000/svg">
<path d="M97 53C97 77.8528 75.2858 98 48.5 98C21.7142 98 0 77.8528 0 53C0 28.1472 2.31419 0 29.1 0C55.8858 0 97 28.1472 97 53Z" fill="white"/>
<path fill-rule="evenodd" clip-rule="evenodd" d="M41.3331 37.3333C42.2535 37.3333 42.9997 38.0794 42.9997 38.9999V40.6666H51.3331C52.2535 40.6666 52.9997 41.4128 52.9997 42.3333C52.9997 43.2537 52.2535 43.9999 51.3331 43.9999H48.5468C47.693 48.0448 46.1248 51.7784 43.941 55.0612C44.4165 55.3538 44.8892 55.6062 45.3494 55.813C46.189 56.1902 46.5639 57.1767 46.1867 58.0163C45.8094 58.8559 44.823 59.2308 43.9833 58.8535C43.2955 58.5445 42.6093 58.1683 41.9387 57.7399C39.2603 60.9395 35.9287 63.5772 32.0748 65.4924C31.2505 65.9021 30.2502 65.5659 29.8405 64.7416C29.4309 63.9173 29.767 62.917 30.5913 62.5074C33.9901 60.8183 36.9243 58.5063 39.2911 55.7091C37.3929 53.9906 35.7322 51.8601 34.7978 49.6486C34.4395 48.8007 34.8365 47.8229 35.6844 47.4647C36.5323 47.1064 37.5101 47.5034 37.8683 48.3512C38.5434 49.9491 39.7886 51.6098 41.2931 53.0216C43.0501 50.3311 44.3551 47.2948 45.1316 43.9999H31.3331C30.4126 43.9999 29.6664 43.2537 29.6664 42.3333C29.6664 41.4128 30.4126 40.6666 31.3331 40.6666H39.6664V38.9999C39.6664 38.0794 40.4126 37.3333 41.3331 37.3333ZM55.4997 53.6961L52.166 60.6666H58.8335L55.4997 53.6961ZM60.4277 63.9999L63.1628 69.719C63.56 70.5494 64.5551 70.9006 65.3855 70.5035C66.2159 70.1063 66.5671 69.1112 66.1699 68.2808L62.9816 61.6142L58.1801 51.5748C58.0104 51.2198 57.8376 50.8584 57.6691 50.5752C57.5082 50.3047 57.1843 49.802 56.5868 49.5134C55.9001 49.1818 55.0993 49.1818 54.4127 49.5134C53.8152 49.8019 53.4912 50.3047 53.3303 50.5752C53.1619 50.8584 52.989 51.2198 52.8193 51.5748L48.0178 61.6141L44.8295 68.2808C44.4324 69.1112 44.7836 70.1063 45.614 70.5035C46.4444 70.9006 47.4395 70.5494 47.8366 69.719L50.5718 63.9999H60.4277Z" fill="#313567"/>
</svg>
