<svg width="855" height="424" viewBox="0 0 855 424" fill="none" xmlns="http://www.w3.org/2000/svg">
<path d="M0 217.82C0 217.685 0.00076052 217.558 0.00707944 217.423C0.183794 213.645 4.62909 156.248 111.5 163.502C222 171.002 477 288.502 634 276.502C718.357 270.054 775.865 253.536 811.022 239.63C830.059 232.1 855 246.451 855 266.922V382.618C855 396.425 843.807 407.618 830 407.618H427.5H25C11.1929 407.618 0 396.425 0 382.618V217.82Z" fill="#F5FBFF"/>
<path d="M297.107 286.233C320.821 175.736 367.105 63.3851 416 26.1174C498 -36.3826 557.501 279.268 577 386.268C582.029 413.861 485.216 404.622 328 402.268C296.834 404.48 235.8 398.968 229 389.768C220.5 378.268 212 256.617 245 233.117C259.295 222.937 279.856 247.54 297.107 286.233Z" fill="#EDE7FF"/>
<path d="M598.5 401.768C582.5 358.768 585.667 324.451 556 288.118L492.5 395.768C571 395.768 556 401.768 598.5 401.768Z" fill="#EDE7FF"/>
<path d="M350 137.502C337.5 150.002 301.999 149.502 323 84.5023C340.936 28.9876 387.5 7.00233 428.963 16.9162C470.426 12.3399 559.891 65.7354 531 148.502C512.5 201.502 460 117.002 460 111.002C449.677 126.885 440.47 100.397 437.075 84.8459C437.436 87.4112 434.84 95.0435 421.5 108.002C407.5 121.602 403 102.336 402.5 91.0024C399.667 100.502 390.7 121.002 377.5 127.002C366.239 132.121 367.035 116.011 369.582 103.51C366.307 113.772 358.153 129.349 350 137.502Z" fill="#313567"/>
<path d="M522.5 145.502C510.9 143.502 504.333 160.335 502.5 169.002C510.167 176.002 526.2 188.602 529 183.002C532.5 176.002 537 148.002 522.5 145.502Z" fill="#EDE7FF"/>
<path d="M318 113.5C315.5 65 349.501 31.4349 386 24M430.73 30.7752C413.389 36.835 379.82 60.1063 384.274 104.713M358.407 81.4882C345 81.4883 334.168 112.531 340 128.693M442.843 38.2101C443.524 45.6866 446.649 65.4455 453.706 84.6698M484.001 58.8499C487.977 67.0555 496.108 86.268 496.825 97.4736M525.314 88.0469C517.948 66.2233 505.336 49.9217 490.886 38.2101M529.184 101.649C531.882 114.066 535.288 140.582 527.323 147.317M394 17.0001C419.5 12 448.465 10.3414 480.554 30.7752" stroke="#EDE7FF" stroke-width="3" stroke-linecap="round" stroke-linejoin="round"/>
<path d="M268 299.746C270.652 288.898 277.522 266.636 283.783 264.375C290.045 262.114 291.284 273.442 291.121 279.389" stroke="#313567" stroke-width="3" stroke-linecap="round" stroke-linejoin="round"/>
<path d="M367.5 348.5C294.001 337.089 287 272.5 315 222C285 260.5 298.001 288.667 303.001 305C303.501 312.667 294.482 328.752 268.5 332C240.501 335.5 224.001 323.5 220.5 321.5C217.999 335 215.834 378.5 231.5 403.5C409 429.5 430.5 422 599 407C627.5 396 569.001 295.5 556 275.5C563.001 362.5 477.001 365.5 367.5 348.5Z" fill="#FFD16C"/>
<path d="M537.892 223.707C477.492 238.107 443 319.5 419.5 355C421.333 356.167 483.892 359.107 515.892 348.707C555.892 335.707 613.392 205.707 537.892 223.707Z" fill="white"/>
<path d="M314 218.5C343 208.721 377.5 313.5 418 355C416.167 356.167 364.387 356.388 335 340C304.144 322.794 270.999 233 314 218.5Z" fill="white"/>
<path d="M502 168.11C504.616 159.883 512.575 143.76 523.48 145.076C537.112 146.721 533.394 189.91 519.35 195.257C505.305 200.604 506.131 175.514 512.74 170.167C518.028 165.889 517.422 173.32 516.458 177.57" stroke="#313567" stroke-width="3" stroke-linecap="round" stroke-linejoin="round"/>
<path d="M301 227C292.667 238.833 292.5 267.5 297 284.5C301.613 301.928 324.5 350 370 348.5" stroke="#313567" stroke-width="3" stroke-linecap="round" stroke-linejoin="round"/>
<path d="M300.5 293.5C303.223 299.565 310.451 321.443 311.532 345M310 369.5C311.544 361.524 311.907 353.161 311.532 345M311.532 345C314.188 359 326.1 377 340.5 389" stroke="#313567" stroke-width="3" stroke-linecap="round" stroke-linejoin="round"/>
<path d="M552.5 272.5C561 290 553.5 348 492 353.5" stroke="#313567" stroke-width="3" stroke-linecap="round" stroke-linejoin="round"/>
<path d="M411 178C406.5 180.667 402.5 187 402.5 190.5C402.5 196.5 409.667 197.5 413.5 195.5M398 220.5C409.5 224 417.6 222.9 424 220.5" stroke="#313567" stroke-width="3" stroke-linecap="round" stroke-linejoin="round"/>
<circle cx="452" cy="169" r="29.5" fill="#313567" stroke="#313567" stroke-width="3"/>
<circle cx="370" cy="169" r="29.5" fill="#313567" stroke="#313567" stroke-width="3"/>
<path d="M432.5 162.856C437.333 159.689 448.5 160.856 458 164.24" stroke="#313567" stroke-width="3" stroke-linecap="round" stroke-linejoin="round"/>
<path d="M363 162.856C367.833 159.689 379 160.856 388.5 164.24" stroke="#313567" stroke-width="3" stroke-linecap="round" stroke-linejoin="round"/>
<path d="M326 182.5C314.5 225.5 349 262 363.5 280.5C386.674 310.067 411.058 340.013 416.499 356.5C416.499 393 412.999 395.893 412.999 421" stroke="#313567" stroke-width="3" stroke-linecap="round" stroke-linejoin="round"/>
<path d="M509 190C512.666 211.333 498.7 248.3 469.5 279.5C445.721 304.908 429.5 339 418 356C418 373 413.5 393.793 413.5 421.5" stroke="#313567" stroke-width="3" stroke-linecap="round" stroke-linejoin="round"/>
<path d="M518.5 174.5C518.5 178.143 516.19 180.5 514 180.5C511.81 180.5 509.5 178.143 509.5 174.5C509.5 170.857 511.81 168.5 514 168.5C516.19 168.5 518.5 170.857 518.5 174.5Z" fill="#313567" stroke="#313567" stroke-width="3" stroke-linejoin="round"/>
<path d="M517 349C511.667 362 501.2 390.1 502 398.5" stroke="#313567" stroke-width="3" stroke-linecap="round" stroke-linejoin="round"/>
<path d="M219.5 321C232 328.833 263.3 340.7 288.5 325.5" stroke="#313567" stroke-width="3" stroke-linecap="round" stroke-linejoin="round"/>
<path d="M395.5 184C400.333 177.5 415.8 171 427 185" stroke="#313567" stroke-width="3" stroke-linecap="round" stroke-linejoin="round"/>
<path d="M481.003 174C486.003 171.167 497.103 165.9 501.503 167.5M340.503 163.5C338.836 162 337 161 335.5 156.5" stroke="#313567" stroke-width="3" stroke-linecap="round" stroke-linejoin="round"/>
<path d="M355 184.5L385.5 154M373.5 184.5L388.5 169.5" stroke="#EDE7FF" stroke-width="3" stroke-linecap="round" stroke-linejoin="round"/>
<path d="M438 184.5L468.5 154M456.5 184.5L471.5 169.5" stroke="#EDE7FF" stroke-width="3" stroke-linecap="round" stroke-linejoin="round"/>
<path d="M511 235C537 218.5 585.6 207.9 572 261.5" stroke="#313567" stroke-width="3" stroke-linecap="round" stroke-linejoin="round"/>
<path d="M242 237C239.167 249.5 234.2 277.3 237 288.5" stroke="#EDE7FF" stroke-width="3" stroke-linecap="round" stroke-linejoin="round"/>
<path d="M250.5 232C242 235 224.4 250.7 222 289.5" stroke="#313567" stroke-width="3" stroke-linecap="round" stroke-linejoin="round"/>
<path d="M134 406C134 406 141.479 406 152.5 406M753.5 406C753.5 406 746.299 406 735 406M722 406C712.448 406 701.435 406 690 406M675.5 406C642.874 406 610.347 406 601 406C580.5 406 450.5 423 410 421.5C369.5 420 259 406 233.5 406C219.921 406 192.588 406 170 406" stroke="#313567" stroke-width="3" stroke-linecap="round" stroke-linejoin="round"/>
</svg>
